<svg width="153" height="168" viewBox="0 0 153 168" fill="none" xmlns="http://www.w3.org/2000/svg">
<path d="M128.992 0C130.351 0.586659 131.602 1.39773 132.693 2.39937C134.053 3.58787 135.685 4.42116 137.444 4.82507C139.332 5.26371 141.211 5.79447 143.081 6.32084C143.795 6.52261 144.473 6.84282 145.375 7.19812C144.992 7.55686 144.57 7.87305 144.119 8.14121C141.557 9.22904 138.96 10.2291 136.122 10.2248C132.789 10.2248 130.7 12.4618 129.842 14.8261C129.266 16.5838 129.156 18.461 129.522 20.2741C129.902 22.6338 130.726 24.8996 131.953 26.9502C133.411 29.3934 134.983 31.7753 136.599 34.1132C138.143 36.248 139.426 38.56 140.422 40.9999C142.849 47.3208 142.638 53.6416 140.344 59.9361C139.028 63.4834 137.187 66.812 134.882 69.81C133.59 71.5031 132.255 73.17 131.024 74.8938C130.274 75.9537 129.584 77.0549 128.957 78.1924C128.01 79.8688 127.612 81.8001 127.818 83.7149C128.075 86.2342 127.928 88.7784 127.38 91.2508C126.646 94.4718 125.032 97.4253 122.721 99.7824C120.958 101.591 119.01 103.208 116.909 104.607C112.683 107.463 107.958 108.327 102.987 107.928C99.0761 107.612 95.1828 107.086 91.2851 106.647C86.8176 106.079 82.3245 105.737 77.8227 105.621C74.906 105.631 72.0036 106.028 69.1908 106.801C64.6367 108.028 60.0236 109.025 55.3693 109.788C53.1405 110.08 51.0124 110.897 49.159 112.171C47.3056 113.445 45.7795 115.14 44.7054 117.118C43.2602 119.653 41.9332 122.263 40.6456 124.877C39.7697 126.61 39.6077 128.544 39.2792 130.426C38.6004 134.334 37.9654 138.247 37.1903 142.138C36.5879 144.959 36.1955 147.821 36.0166 150.7C36.0196 151.539 35.78 152.36 35.327 153.065C34.8739 153.771 34.2266 154.329 33.4634 154.674C30.3364 156.205 27.5467 158.253 24.757 160.302C22.1294 162.219 19.1426 163.193 16.0551 163.973C15.9982 163.973 15.9237 163.947 15.8098 163.916C15.8536 163.789 15.8887 163.658 15.9368 163.53C16.4317 162.184 17.0011 160.855 17.404 159.477C17.8069 158.1 18.3236 156.823 19.3878 155.823C19.6166 155.618 19.7995 155.366 19.9248 155.085C20.05 154.804 20.1148 154.499 20.1148 154.192C20.1148 154.051 20.163 153.902 20.1499 153.753C19.9703 151.792 21.1177 150.77 22.7425 150.103C23.6184 149.748 24.4943 149.428 25.3702 149.099C26.0528 148.866 26.6798 148.494 27.2119 148.006C27.744 147.518 28.1696 146.926 28.462 146.265C28.9392 145.255 29.3431 144.211 29.6708 143.142C30.7612 139.05 31.8824 134.926 32.8415 130.781C33.9889 125.75 34.0458 120.622 33.7831 115.486C33.6955 113.832 33.6998 112.17 33.678 110.512C33.678 109.174 34.2035 108.253 35.5567 107.84C37.2428 107.327 38.9158 106.757 40.5756 106.165C41.9124 105.736 43.2215 105.225 44.4952 104.634C45.6614 103.997 46.7863 103.286 47.8629 102.506C48.1669 102.242 48.4442 101.948 48.6907 101.629C46.7024 101.866 44.9243 102.068 43.1463 102.287C42.2135 102.397 41.285 102.524 40.3522 102.59C38.4478 102.765 36.5858 103.257 34.8429 104.046C33.4896 104.625 32.1145 105.169 30.7218 105.66C28.8343 106.327 26.9687 106.099 25.0286 105.318C25.2519 105.086 25.4271 104.879 25.6154 104.704C26.8811 103.428 28.2431 102.239 29.3992 100.861C31.0442 98.9644 32.0442 96.5926 32.2546 94.0888C32.3691 92.6057 31.9565 91.1297 31.0897 89.9217C30.8282 90.0785 30.5766 90.2514 30.3364 90.4393C28.9415 91.6459 27.3136 92.5522 25.5541 93.1019C22.6149 94.0808 19.7469 95.2621 16.9704 96.6373C15.7179 97.247 14.3734 97.6769 12.9019 98.2559C12.8056 97.5892 12.7223 97.1111 12.6698 96.6286C12.592 95.3967 12.2404 94.1978 11.6406 93.1194C11.2458 92.5447 10.8174 91.994 10.3574 91.4701C9.63482 92.0152 9.03895 92.7108 8.61098 93.509C8.18301 94.3073 7.93316 95.189 7.87868 96.0934C7.75605 97.8974 7.94419 99.7091 8.43487 101.449C8.57501 102.037 8.6845 102.629 8.84216 103.392C8.52563 103.297 8.22137 103.164 7.93562 102.998C6.9371 102.173 5.83787 101.432 5.00577 100.462C2.2204 97.2956 0.489144 93.3385 0.0526295 89.1409C-0.160921 87.0795 0.278828 85.0031 1.30953 83.2061C1.92717 82.1064 2.61622 81.0484 3.37224 80.0391C4.73425 78.1749 6.14443 76.3457 7.55461 74.5166C9.32522 72.3113 11.571 70.5358 14.1238 69.3231C17.5655 67.6475 21.2064 66.4182 24.9585 65.6648C29.1146 64.7738 33.33 64.1874 37.5713 63.9102C38.9779 63.8271 40.3504 63.4427 41.596 62.7829C46.2382 60.309 50.8629 57.7999 55.5532 55.4181C59.6418 53.2678 64.0223 51.7279 68.5558 50.8474C70.3221 50.4981 72.116 50.3072 73.9162 50.2772C77.7701 50.2772 81.6196 50.4658 85.4735 50.5667C87.1684 50.615 88.8632 50.6939 90.5537 50.6501C98.1958 50.4351 105.225 52.4836 111.763 56.3524C113.953 57.6376 116.046 59.015 118.184 60.3528C119.007 60.866 119.8 61.4363 120.654 61.9056C121.499 62.3997 122.457 62.6687 123.436 62.6872C124.415 62.7056 125.382 62.4728 126.246 62.0109C128.817 60.695 130.358 58.5632 131.204 55.8699C132.303 52.2232 132.415 48.3493 131.528 44.645C130.863 41.7929 129.755 39.0633 128.243 36.5565C126.789 34.065 125.252 31.6217 123.772 29.1434C122.235 26.5686 120.838 23.9192 120.071 20.9978C118.849 16.3394 118.819 11.703 120.636 7.18496C121.201 5.86136 121.922 4.60976 122.782 3.4565C123.952 1.84364 125.594 0.635591 127.481 0L128.992 0Z" fill="#2D4086"/>
<path d="M142.402 167C141.604 166.523 140.776 166.098 139.923 165.728C139.408 165.594 138.866 165.609 138.359 165.772C137.214 166.122 135.977 166.019 134.905 165.483C133.833 164.948 133.007 164.022 132.596 162.894C132.307 162.153 132.075 161.394 131.808 160.649C131.443 159.582 130.748 158.66 129.824 158.017C128.992 157.447 128.16 156.872 127.38 156.231C126.127 155.263 124.927 154.228 123.785 153.13C120.082 149.483 115.952 146.3 111.483 143.651C106.81 140.791 102.076 138.041 97.4074 135.181C95.7497 134.164 94.1569 133.045 92.6382 131.83C91.7783 131.068 91.0017 130.216 90.3214 129.29C90.0848 128.988 89.9376 128.626 89.8965 128.244C89.8555 127.863 89.9223 127.477 90.0893 127.132C90.3214 126.566 90.5798 126.009 90.8295 125.452C92.1693 122.619 92.4445 119.396 91.6046 116.376C91.2834 115.421 90.8896 114.491 90.4265 113.595C89.8266 112.279 89.809 111.92 90.4003 110.525L101.143 112.236C101.016 113.468 100.867 114.749 100.758 116.03C100.574 118.149 100.32 120.263 100.254 122.386C100.136 125.228 101.174 127.671 103.048 129.786C104.653 131.549 106.506 133.068 108.549 134.295C110.813 135.703 113.112 137.05 115.385 138.445C116.213 138.949 117.014 139.502 117.816 140.054C121.039 142.296 124.223 144.603 127.494 146.774C131.3 149.268 134.698 152.337 137.567 155.872C138.132 156.569 138.754 157.232 139.345 157.907C140.901 159.735 143.036 160.975 145.393 161.421C146.772 161.684 148.13 162.039 149.501 162.342C150.25 162.481 150.947 162.825 151.515 163.335C152.083 163.845 152.5 164.501 152.72 165.232C152.864 165.82 152.954 166.419 152.991 167.022L142.402 167Z" fill="#2D4086"/>
</svg>
