<svg width="271" height="48" viewBox="0 0 271 48" fill="none" xmlns="http://www.w3.org/2000/svg">
<path d="M0 0.467773C0.322911 0.467773 0.645822 0.506478 0.968734 0.506478C4.92763 0.506478 8.88652 0.506478 12.8422 0.506478C15.261 0.48282 17.673 0.765684 20.0205 1.3483C26.2204 2.97711 30.2632 6.97012 32.036 13.0371C34.1543 20.2748 32.3299 26.5836 26.6757 31.6346C23.6157 34.3841 19.6512 35.9153 15.5353 35.9372C10.4882 36.0243 5.44105 36.0017 0.393952 36.0243C0.264787 36.0243 0.132394 35.9985 0 35.9856L0 0.467773ZM5.28606 31.4314C5.75105 31.4604 6.145 31.5055 6.53572 31.5055C8.47319 31.5055 10.4107 31.5281 12.3481 31.5055C13.9724 31.5129 15.5938 31.3704 17.1918 31.0798C21.6641 30.1509 24.8319 27.6125 26.5756 23.4002C27.4612 21.1971 27.768 18.8044 27.4668 16.4495C27.0374 12.6436 25.2936 9.62138 22.1065 7.46038C19.7931 5.91583 17.0714 5.09497 14.2888 5.10263C11.5505 5.0607 8.81548 5.08328 6.07719 5.08328C5.82209 5.08328 5.56699 5.12199 5.28606 5.14456V31.4314Z" fill="#2D4086"/>
<path d="M56.787 29.3963C56.9139 30.7604 56.9268 32.1327 56.8257 33.499C56.7999 33.886 56.5222 34.0344 56.2542 34.2021C54.8778 35.0616 53.3656 35.6821 51.7818 36.0374C49.546 36.5378 47.2338 36.5981 44.9749 36.2148C42.7515 35.8482 40.7307 34.7052 39.2723 32.9894C37.1055 30.5575 36.1659 27.6611 36.1465 24.4422C36.1465 21.9618 36.5243 19.5751 37.8159 17.4076C40.0085 13.7275 43.3054 12.0116 47.5388 12.2212C52.4793 12.4631 55.7956 15.4466 56.9032 20.3782C57.2035 21.7167 57.3779 23.5584 57.1454 24.8324H56.2445C51.7022 24.8324 47.1588 24.8324 42.6144 24.8324C42.0396 24.8324 41.4648 24.8808 40.7609 24.9131C40.8933 25.6194 40.9643 26.2032 41.1225 26.7967C41.4901 28.2506 42.3167 29.5477 43.4798 30.4957C44.643 31.4438 46.081 31.9925 47.5808 32.0605C50.0865 32.2562 52.5954 31.723 54.8043 30.5252C55.4275 30.1607 56.0475 29.8092 56.787 29.3963ZM40.9514 21.9328H52.6343C52.6229 20.6063 52.1973 19.3164 51.417 18.243C50.9497 17.5925 50.3163 17.079 49.5828 16.7561C45.6853 15.0176 41.3324 17.5915 40.9514 21.9328Z" fill="#2D4086"/>
<path d="M122.122 29.3736C122.122 30.8218 122.122 32.1667 122.122 33.5117C122.122 33.8826 121.838 33.9955 121.599 34.1568C120.206 35.0393 118.671 35.6754 117.062 36.0372C114.828 36.5503 112.515 36.6172 110.255 36.2339C107.636 35.8017 105.592 34.3922 103.978 32.3248C102.488 30.3995 101.607 28.0735 101.449 25.645C101.244 23.6338 101.454 21.6018 102.066 19.6749C103.303 16.0366 105.66 13.5144 109.467 12.5178C111.279 12.0518 113.178 12.0385 114.996 12.4791C116.936 12.9088 118.666 14.0002 119.888 15.5657C121.987 18.2202 122.681 21.2714 122.452 24.6484C122.145 24.6774 121.89 24.7193 121.635 24.7193L110.394 24.7774C109.225 24.7774 108.059 24.7774 106.891 24.7774C106.636 24.7929 106.383 24.822 106.132 24.8645C106.003 28.0673 108.447 31.1765 111.621 31.841C114.116 32.3456 116.707 32.0487 119.022 30.9927C119.823 30.6444 120.576 30.1864 121.351 29.7767L122.122 29.3736ZM117.818 21.9326C117.839 21.5997 117.839 21.2657 117.818 20.9328C117.447 18.3847 115.732 16.6301 113.181 16.2882C109.936 15.856 106.761 17.6687 106.274 21.9326H117.818Z" fill="#2D4086"/>
<path d="M167.119 12.6693C166.945 13.0563 166.825 13.3144 166.703 13.5853L152.026 44.8553C151.632 45.6939 151.226 46.5293 150.838 47.3743C150.771 47.5597 150.646 47.7183 150.481 47.8265C150.317 47.9347 150.121 47.9865 149.924 47.9742C148.434 48.0345 146.942 48.0054 145.455 47.8871C145.739 47.2163 145.975 46.597 146.256 46.01C148.239 41.7804 150.228 37.5563 152.223 33.3375C152.437 32.8795 152.643 32.4182 152.869 31.9731C153.022 31.6943 153.099 31.381 153.095 31.0634C153.09 30.7459 153.004 30.4349 152.843 30.1605C150.809 26.0772 148.807 21.9777 146.799 17.8783C146.062 16.3731 145.329 14.8679 144.6 13.3628C144.503 13.1563 144.425 12.9402 144.306 12.6499H149.472C149.614 12.9112 149.76 13.1628 149.882 13.424C151.527 16.8429 153.167 20.264 154.803 23.6872C155.078 24.3882 155.461 25.0413 155.94 25.6224C156.098 25.2999 156.224 25.0418 156.341 24.787C158.016 21.1198 159.679 17.4461 161.371 13.7853C162.043 12.3339 161.788 12.6564 163.183 12.6145C164.22 12.5854 165.256 12.6145 166.293 12.6145C166.538 12.6177 166.771 12.6467 167.119 12.6693Z" fill="#2D4086"/>
<path d="M212.675 5.93457C212.372 5.79911 212.114 5.68622 211.858 5.56688C209.275 4.36704 206.624 3.3575 203.786 2.9124C200.673 2.42537 197.56 2.36086 194.589 3.52845C189.1 5.6959 185.754 9.70504 184.76 15.5623C184.231 18.3999 184.48 21.3274 185.48 24.0354C187.45 29.2185 191.224 32.4213 196.633 33.5954C200.366 34.4114 204.037 33.9179 207.612 32.7052C209.039 32.2149 210.412 31.5634 211.81 30.986L213.005 30.5022C213.034 31.186 213.043 31.7569 213.082 32.3278C213.116 32.6334 213.04 32.9411 212.869 33.1965C212.697 33.452 212.441 33.6389 212.146 33.7244C210.89 34.234 209.659 34.8113 208.377 35.2339C203.889 36.7143 199.294 37.1239 194.734 35.7757C188.16 33.8405 183.755 29.5572 182.05 22.8323C181.082 18.9844 181.253 15.0914 182.832 11.4306C185.351 5.57978 189.842 1.93511 196.045 0.493371C199.859 -0.393606 203.66 -0.000110663 207.386 1.05459C209.001 1.52227 210.583 2.18669 212.185 2.74791C212.365 2.79359 212.525 2.89989 212.637 3.04901C212.748 3.19814 212.805 3.38106 212.798 3.56715C212.886 4.35771 212.845 5.15732 212.675 5.93457Z" fill="#2D4086"/>
<path d="M249.575 34.7406V0.574219H251.974C251.997 0.896756 252.042 1.21929 252.042 1.56118C252.055 5.77997 252.063 9.99876 252.065 14.2175V15.5916C252.481 15.5916 252.678 15.3238 252.927 15.1561C253.783 14.5788 254.58 13.8886 255.491 13.4241C261.558 10.3213 269.208 12.9758 270.726 20.9199C271.192 23.2788 271.068 25.7163 270.364 28.0157C269.031 32.3635 266.066 35.0599 261.646 36.1114C258.11 36.9596 254.632 36.5307 251.216 35.3986C250.812 35.2663 250.415 35.1147 250.018 34.9631C249.901 34.9148 249.788 34.8341 249.575 34.7406ZM252.094 25.9353C252.094 28.0028 252.094 30.0735 252.094 32.1409C252.094 32.9634 252.158 33.0376 252.914 33.2795C255.142 33.9859 257.415 34.3406 259.744 33.9246C263.748 33.2085 266.499 30.9411 267.778 27.0707C268.541 24.7817 268.511 22.303 267.694 20.0329C266.638 17.0301 264.687 14.94 261.397 14.3949C259.73 14.1417 258.025 14.4265 256.531 15.2077C255.187 15.9095 253.964 16.8209 252.908 17.9074C252.634 18.1575 252.419 18.4643 252.276 18.8064C252.134 19.1486 252.068 19.5176 252.084 19.8878C252.113 21.9036 252.094 23.9195 252.094 25.9353Z" fill="#2D4086"/>
<path d="M90.1989 26.6957C90.3249 26.4087 90.4573 26.1216 90.58 25.8313C92.3269 21.7061 94.09 17.584 95.8047 13.4427C96.0469 12.8621 96.3439 12.6008 96.9639 12.6137C98.3137 12.6363 99.6602 12.6137 101.162 12.6137C100.968 13.1588 100.839 13.6039 100.648 14.0297C99.4794 16.7325 98.304 19.4311 97.1221 22.1254L91.229 35.6139C91.1128 35.8783 90.9836 36.1396 90.8706 36.3847C88.988 36.517 89.3497 36.6137 88.7426 35.2559C85.4683 27.945 82.2133 20.6266 78.9778 13.3007C78.9035 13.133 78.8486 12.9556 78.7646 12.7331C78.8815 12.6785 79.0054 12.6405 79.1328 12.6202C80.4244 12.6202 81.7354 12.6202 83.04 12.6202C83.2739 12.598 83.5083 12.6571 83.7036 12.7876C83.899 12.918 84.0432 13.1118 84.1121 13.3362C85.8299 17.3325 87.5866 21.3126 89.3368 25.2927C89.5467 25.77 89.7888 26.2345 90.0149 26.7054L90.1989 26.6957Z" fill="#2D4086"/>
<path d="M66.1096 36.0435C64.6051 36.1843 63.09 36.1681 61.5889 35.9951V0.68376C62.4284 0.438632 65.2636 0.428956 66.1096 0.667633V36.0435Z" fill="#2D4086"/>
<path d="M141.574 18.82C140.735 18.2556 140.014 17.704 139.233 17.2622C138.458 16.7794 137.546 16.5647 136.637 16.6509C135.728 16.7372 134.872 17.1197 134.202 17.7395C133.7 18.1728 133.256 18.6694 132.881 19.2167C131.965 20.5657 131.493 22.1669 131.532 23.7968C131.532 27.564 131.532 31.3323 131.532 35.1017V35.9371C130.563 36.2112 127.789 36.2048 126.937 35.9371V12.6757C128.478 12.558 130.027 12.5645 131.567 12.695V17.4944C131.745 17.348 131.913 17.1907 132.071 17.0235C132.581 16.3784 133.075 15.7333 133.582 15.0721C134.222 14.2552 135 13.5565 135.881 13.0079C136.491 12.6 137.185 12.3346 137.912 12.2313C138.639 12.128 139.379 12.1895 140.079 12.4112C141.555 12.874 142.889 13.7055 143.954 14.827C143.244 16.2058 142.449 17.5394 141.574 18.82Z" fill="#2D4086"/>
<path d="M241.437 12.6783H243.914V36.0526H241.653C241.33 34.8592 241.608 33.64 241.492 32.3208C241.256 32.5531 241.111 32.6885 240.975 32.8337C240.546 33.3046 240.136 33.8013 239.684 34.2496C238.622 35.3841 237.21 36.1293 235.673 36.3655C233.351 36.7203 231.107 36.5783 229.04 35.3591C226.502 33.8626 225.308 31.5306 225.007 28.6794C224.959 28.2053 224.975 27.7118 224.972 27.2473V12.6977C225.773 12.5267 226.528 12.6267 227.365 12.6267C227.387 12.9912 227.423 13.2976 227.423 13.5943C227.423 17.8679 227.4 22.1416 227.423 26.412C227.418 27.4721 227.54 28.529 227.788 29.5599C228.469 32.2241 230.649 33.9206 233.393 34.0754C235.847 34.2077 237.937 33.4304 239.59 31.5726L239.697 31.4532C241.402 29.5664 241.44 29.4567 241.437 26.9022C241.437 22.4706 241.437 18.0389 241.437 13.6072V12.6783Z" fill="#2D4086"/>
<path d="M76.2651 35.9242C75.319 36.1725 72.6485 36.2048 71.6475 35.9822V12.6337C73.1864 12.5661 74.7279 12.5822 76.2651 12.6821V35.9242Z" fill="#2D4086"/>
<path d="M216.761 0.590375C217.558 0.458156 218.372 0.458156 219.17 0.590375V35.8856C218.4 36.1952 217.544 36.2147 216.761 35.9405V0.590375Z" fill="#2D4086"/>
<path d="M71.237 5.4832C71.2692 4.77589 71.5758 4.10888 72.0918 3.62339C72.6078 3.13791 73.2927 2.87205 74.0015 2.88211C74.7103 2.89217 75.3874 3.17736 75.8893 3.67729C76.3913 4.17723 76.6788 4.85266 76.6909 5.56061C76.6867 6.28433 76.3954 6.97685 75.8809 7.48649C75.3665 7.99612 74.6708 8.28132 73.9462 8.2796C73.5825 8.28025 73.2225 8.20768 72.8876 8.06623C72.5526 7.92478 72.2497 7.71735 71.9968 7.45633C71.7439 7.19531 71.5463 6.88606 71.4157 6.54704C71.2852 6.20803 71.2244 5.84621 71.237 5.4832Z" fill="#2D4086"/>
</svg>
