<svg width="212" height="51" viewBox="0 0 212 51" fill="none" xmlns="http://www.w3.org/2000/svg">
<path d="M211.999 44.7816C211.184 44.7914 210.368 44.8158 209.55 44.7943C209.427 44.7943 209.23 44.5904 209.199 44.4518C208.936 43.234 208.703 42.0123 208.46 40.7867C208.426 40.8335 208.357 40.9272 208.291 41.0228C207.847 41.6629 207.44 42.3323 206.954 42.9403C203.906 46.7557 197.275 46.3898 195.198 40.9525C193.976 37.7519 194.036 34.4663 195.296 31.2812C196.415 28.4602 198.68 26.9086 201.596 26.3661C203.059 26.0938 204.576 26.1006 206.071 26.0157C206.817 25.9738 207.567 26.0079 208.305 26.0079C208.344 25.9269 208.383 25.885 208.382 25.844C208.351 23.9109 208.327 21.9778 208.271 20.0457C208.241 19.6078 208.163 19.1745 208.038 18.7537C207.254 15.7599 205.011 14.8505 202.184 15.1666C199.9 15.4233 198.057 16.5045 196.666 18.338C196.619 18.4005 196.569 18.4561 196.455 18.582C196.186 17.6569 195.924 16.7982 195.702 15.9297C195.669 15.8038 195.799 15.5999 195.903 15.4808C196.929 14.3547 198.242 13.5262 199.702 13.0833C201.566 12.4978 203.551 12.408 205.46 12.8227C208.614 13.4833 210.412 15.4965 210.991 18.5917C211.194 19.7268 211.294 20.8776 211.291 22.0305C211.321 27.8678 211.274 33.7052 211.33 39.5425C211.344 41.0599 211.624 42.5763 211.796 44.0917C211.819 44.2937 211.924 44.4821 211.992 44.6841L211.999 44.7816ZM208.404 28.0737C206.51 28.1508 204.69 28.1147 202.9 28.3265C200.608 28.5968 198.754 29.677 197.944 31.9692C197.035 34.5444 197.007 37.1732 197.913 39.7601C198.418 41.2043 199.373 42.3128 200.915 42.7344C202.947 43.2896 204.647 42.6885 206.005 41.1106C206.993 39.964 207.709 38.6555 208.235 37.2444C208.34 36.9563 208.395 36.6523 208.396 36.3457C208.409 33.8086 208.404 31.2715 208.404 28.7344V28.0737Z" fill="#2D4086"/>
<path d="M-0.000967248 44.6844C0.0666294 44.5976 0.127231 44.5056 0.180271 44.4092C2.89199 38.5036 5.6024 32.5973 8.31151 26.6904C8.33796 26.6308 8.35658 26.5684 8.39086 26.4737C8.2929 26.4103 8.19493 26.3342 8.08619 26.2727C4.68184 24.3211 2.65197 21.4229 2.07985 17.5587C1.62822 14.5054 1.64096 11.4501 2.65981 8.49531C4.40754 3.42595 8.03916 0.579502 13.3588 0.122821C16.24 -0.125036 19.1603 0.0789092 22.0984 0.0789092V44.7712H17.2843V27.6379H15.1898C14.7166 27.6379 14.2405 27.6701 13.7702 27.6281C13.3695 27.592 13.202 27.7608 13.0502 28.1024C10.6421 33.5214 8.22987 38.9381 5.81336 44.3526C5.65563 44.7107 5.47537 44.8278 5.09036 44.821C3.39358 44.7898 1.69582 44.7927 -0.00390625 44.782L-0.000967248 44.6844ZM17.2559 4.00071C16.3526 4.00071 15.5062 3.97827 14.6617 4.00071C11.6933 4.09829 9.42343 5.38344 8.21844 8.12743C6.5824 11.8511 6.60689 15.6754 7.9892 19.4703C8.577 21.0833 9.69088 22.306 11.3132 22.9949C13.2245 23.8078 15.2378 23.6058 17.2559 23.6058V4.00071Z" fill="#2D4086"/>
<path d="M68.2611 13.2583V40.7763H70.7553V50.9872H66.387V44.8532H52.8098V51.0009H48.4336V40.789C48.8989 40.789 49.3839 40.7616 49.8629 40.7978C50.2342 40.8251 50.4057 40.6924 50.5418 40.3508C51.5215 37.8898 52.0789 35.3264 52.512 32.7268C53.5367 26.5723 53.5475 20.3622 53.5582 14.1521V13.2544L68.2611 13.2583ZM63.3843 40.7724V17.2826H57.9961C57.9873 17.4182 57.9785 17.5138 57.9746 17.6104C57.8198 21.3439 57.7424 25.0832 57.4847 28.8099C57.287 31.9085 56.7739 34.9792 55.9535 37.9747C55.6929 38.9076 55.3726 39.8239 55.0718 40.7724H63.3843Z" fill="#2D4086"/>
<path d="M40.7359 44.7762V30.6786H33.4589V44.7742H28.5605V13.2554H33.4226V26.5938H40.7339V13.2622H45.5352V44.781L40.7359 44.7762Z" fill="#2D4086"/>
<path d="M91.9994 30.1342H78.914C78.883 30.1996 78.861 30.2689 78.8484 30.3401C78.8425 32.5913 79.012 34.821 79.7428 36.9756C80.0847 37.9846 80.5647 38.9195 81.324 39.6913C82.285 40.6671 83.4792 41.0497 84.8214 41.0575C86.9032 41.0721 88.7401 40.3324 90.4672 39.2493C90.6044 39.1634 90.7435 39.0795 90.8836 38.9956C90.9157 38.9885 90.9486 38.9849 90.9815 38.9848C91.3323 40.149 91.6928 41.319 92.0268 42.4978C92.0552 42.5954 91.9426 42.7905 91.8387 42.8705C90.1053 44.1613 88.0515 44.9571 85.898 45.1725C84.2081 45.354 82.5388 45.2867 80.9204 44.7207C78.1518 43.7527 76.3884 41.7523 75.2383 39.1449C74.3174 37.0488 73.9226 34.8259 73.808 32.5611C73.612 28.6998 73.7766 24.858 74.7475 21.0904C75.2834 19.0119 76.1014 17.0641 77.518 15.3994C80.2846 12.146 84.5373 12.3158 87.1452 13.7083C88.5843 14.4773 89.5267 15.7087 90.2184 17.1442C91.2362 19.2529 91.7133 21.5099 91.8662 23.8217C91.9974 25.7977 91.9798 27.7844 92.0249 29.7663C92.0298 29.8746 92.0112 29.9859 91.9994 30.1342ZM86.9698 26.109C86.9844 26.0264 86.9926 25.9429 86.9943 25.8592C86.8895 24.3681 86.8718 22.8644 86.6465 21.3919C86.4868 20.3497 86.1136 19.3212 85.707 18.3395C85.5527 17.9589 85.3037 17.6236 84.9834 17.3653C84.663 17.107 84.2819 16.9342 83.876 16.8631C82.337 16.5538 80.9791 17.2798 80.2836 18.8967C79.298 21.184 79.0727 23.6265 78.9022 26.109H86.9698Z" fill="#2D4086"/>
<path d="M101.983 29.3415V44.7672H97.0947V13.2581H101.938V27.5724L102.052 27.6104C102.13 27.467 102.211 27.3255 102.286 27.1801C104.63 22.6835 106.97 18.1854 109.307 13.6856C109.493 13.3255 109.699 13.2094 110.091 13.2172C111.38 13.2396 112.67 13.225 113.961 13.225H114.523C114.406 13.4572 114.327 13.6153 114.251 13.7685C111.812 18.3815 109.37 22.9922 106.924 27.6007C106.728 27.9647 106.752 28.2203 106.941 28.5706C109.76 33.7912 112.568 39.0171 115.367 44.2481C115.45 44.4023 115.524 44.5613 115.632 44.776C115.43 44.7906 115.277 44.8101 115.126 44.8101C113.673 44.8101 112.22 44.8004 110.767 44.8199C110.423 44.8199 110.252 44.7077 110.093 44.4071C107.509 39.5229 104.917 34.6412 102.316 29.7621C102.237 29.6118 102.149 29.4694 102.065 29.3191L101.983 29.3415Z" fill="#2D4086"/>
<path d="M132.709 19.028L132.271 18.6953C131.077 17.7917 129.812 17.0578 128.285 16.85C126.458 16.6021 125.03 17.2559 123.901 18.6543C122.808 20.0068 122.215 21.5817 121.932 23.2679C121.186 27.7225 121.2 32.1683 122.375 36.5566C122.638 37.4768 123.029 38.356 123.536 39.1688C124.45 40.6784 125.881 41.2961 127.638 41.2405C129.395 41.1849 130.939 40.5574 132.321 39.4948L132.641 39.2459C132.911 40.0988 133.17 40.9116 133.425 41.7255C133.807 42.9521 133.805 42.9531 132.714 43.6644C127.29 47.1998 120.37 44.933 117.869 38.8097C117.005 36.6961 116.6 34.481 116.421 32.223C116.173 29.116 116.24 26.0197 116.877 22.9527C117.25 21.1621 117.807 19.4398 118.748 17.8541C120.991 14.0836 124.355 12.4979 128.696 12.8091C130.264 12.9204 131.689 13.4054 133.038 14.1753C133.301 14.3256 133.397 14.4807 133.348 14.7901C133.123 16.1728 132.927 17.5555 132.709 19.028Z" fill="#2D4086"/>
<path d="M174.683 13.2471H188.367V42.3147H191.225V50.9994H188.933C188.887 50.3339 188.835 49.6889 188.799 49.0478C188.723 47.7792 188.645 46.5107 188.585 45.2489C188.571 44.962 188.522 44.8088 188.176 44.8088C182.658 44.8186 177.139 44.8215 171.62 44.8176C171.524 44.824 171.429 44.8357 171.335 44.8528C171.206 46.902 171.079 48.9385 170.95 51.0004H168.65V42.3156C168.859 42.3016 169.068 42.3032 169.276 42.3205C169.884 42.4181 170.305 42.1253 170.681 41.7067C171.529 40.7582 171.966 39.6058 172.319 38.4163C173.111 35.7489 173.598 33.0013 173.773 30.2253C174.121 24.7266 174.361 19.22 174.655 13.7164C174.66 13.5701 174.674 13.4276 174.683 13.2471ZM177.34 15.7539C177.324 15.8915 177.307 16.0018 177.301 16.113C177.178 18.7477 177.073 21.3766 176.932 24.0064C176.722 27.9038 176.414 31.7924 175.744 35.642C175.343 37.9508 174.903 40.2557 173.409 42.18C173.396 42.1976 173.415 42.2395 173.419 42.2776H185.31V15.7539H177.34Z" fill="#2D4086"/>
<path d="M152.453 20.5551H163.817V23.0541H152.457V42.2962H165.891V44.7807H149.31V0.0317383H165.71V2.48982H152.453V20.5551Z" fill="#2D4086"/>
</svg>
