<svg width="136" height="149" viewBox="0 0 136 149" fill="none" xmlns="http://www.w3.org/2000/svg">
<path d="M74.5765 0C76.9113 0.313169 79.2584 0.565172 81.5834 0.951741C108.529 5.44376 129.797 25.9074 134.883 52.2136C139.704 77.1375 128.711 102.932 106.39 115.755C85.9398 127.499 60.3497 125.26 43.027 109.832C30.7899 98.9223 24.8819 85.0915 25.9441 68.6721C27.3024 47.6311 42.097 31.1236 61.0105 26.7931C80.5506 22.3157 100.548 32.4203 107.739 50.5866C113.728 65.7141 108.911 82.8332 96.1308 91.854C84.9682 99.7297 70.318 99.3407 60.2543 90.8973C51.7642 83.7752 48.8616 71.8748 53.5582 62.3892C57.1926 55.0493 63.1471 51.0148 71.5368 51.1665C74.4307 51.2367 77.239 52.1614 79.6082 53.8241C81.9774 55.4868 83.8015 57.8131 84.8507 60.5102C86.5761 65.056 84.3025 69.871 79.8017 71.1995C75.2055 72.5574 70.6729 69.7437 69.6915 64.9214C69.6523 64.7306 69.6083 64.5373 69.552 64.2682C68.1765 64.4737 67.1731 65.2199 66.3581 66.201C64.0012 69.044 63.6782 72.3176 64.9141 75.6377C66.8574 80.8784 70.9029 83.7116 76.3117 84.3893C85.5849 85.5343 94.0089 79.3884 96.586 69.8514C99.1803 60.2484 95.1176 49.745 86.4954 43.7311C75.903 36.335 61.2406 37.1888 50.9321 45.7667C45.6187 50.1769 41.7692 56.0952 39.8923 62.7393C38.0154 69.3834 38.1996 76.4404 40.4205 82.9776C45.5919 98.4525 56.7496 107.371 72.7262 109.788C94.6893 113.108 115.771 98.4379 121.537 75.9827C127.108 54.3153 117.117 31.3977 97.2395 20.0624C77.1242 8.58524 51.5856 11.1469 33.7978 26.5093C21.9915 36.6995 15.1339 49.6226 13.3766 65.0976C10.2146 92.9452 25.8878 119.902 52.0457 130.54C78.2036 141.178 102.303 136.64 124.085 118.906C124.33 118.701 124.575 118.486 124.834 118.278C124.913 118.245 124.995 118.222 125.079 118.209L133.613 127.714C132.932 128.324 132.294 128.938 131.618 129.493C118.275 140.619 102.956 147.026 85.6608 148.714C84.8164 148.794 83.9745 148.905 83.1326 149H73.8325C71.8599 148.755 69.8775 148.582 67.9146 148.266C40.8904 144.107 20.7237 130.161 8.02659 105.868C2.33148 94.9588 -0.213827 83.1856 0.016229 70.8594C0.625633 38.1455 22.2289 10.4789 52.5816 2.40259C56.615 1.33097 60.827 0.934614 64.9533 0.222644C65.3082 0.161478 65.6581 0.0758457 66.0106 0L74.5765 0Z" fill="#2D4086"/>
</svg>
