<svg width="449" height="168" viewBox="0 0 449 168" fill="none" xmlns="http://www.w3.org/2000/svg">
<path d="M66.349 116.779C66.2726 116.305 66.1742 115.861 66.0537 115.449C65.9773 114.975 65.8262 114.54 65.6004 114.144C65.2099 113.397 64.6112 113.034 63.8044 113.056C62.5934 113.251 61.5352 113.557 60.6298 113.973C59.7771 114.38 58.8709 114.958 57.9111 115.707C55.0947 117.674 52.3768 120.083 49.7573 122.936C47.1904 125.781 44.8214 128.513 42.6504 131.131C41.344 132.746 40.0418 134.388 38.7439 136.055C37.446 137.723 36.1439 139.364 34.8375 140.979C33.3187 142.953 31.7167 144.913 30.0315 146.859C28.3463 148.805 26.5219 150.558 24.5582 152.116C23.4405 152.891 22.3542 153.525 21.2994 154.019C20.8509 154.253 20.3634 154.413 19.8369 154.498C18.4152 154.727 17.1236 154.422 15.962 153.583C14.8088 152.796 14.0209 151.761 13.5982 150.479C13.296 149.609 13.0949 148.696 12.9948 147.74C12.8947 146.784 12.8779 145.841 12.9443 144.912C12.9057 142.325 13.1617 139.556 13.7125 136.604C14.2548 133.6 14.933 130.6 15.747 127.606C16.6052 124.551 17.5373 121.618 18.5433 118.809C19.5934 115.939 20.607 113.345 21.5839 111.026C23.2984 106.915 25.4222 102.494 27.9554 97.764C30.5327 92.973 33.4031 88.3238 36.5663 83.8166C39.7212 79.2567 43.1196 75.0356 46.7618 71.1535C50.404 67.2714 54.226 64.1705 58.228 61.8511C59.1775 61.3739 60.0829 60.958 60.9441 60.6031C61.8053 60.2483 62.7624 59.986 63.8155 59.8163C65.3594 59.6756 66.7428 60.0469 67.9656 60.9303C69.2325 61.7526 70.0416 62.9187 70.393 64.4287C70.8139 66.0356 70.8663 67.7018 70.5501 69.4274C69.8701 73.5886 68.4716 77.6494 66.3546 81.6099C64.2377 85.5704 61.8728 89.1657 59.2601 92.3958C58.7215 93.0768 58.1482 93.7094 57.54 94.2936C56.9761 94.8166 56.3594 95.3482 55.6901 95.8882C55.4965 96.0274 55.3028 96.1667 55.1092 96.3059C54.9682 96.4367 54.7661 96.5233 54.5028 96.5657C54.4501 96.5742 54.3975 96.5827 54.3448 96.5911C54.2837 96.547 54.2268 96.5291 54.1741 96.5376C53.9466 96.4662 53.798 96.3821 53.7283 96.2853C53.5449 96.1528 53.5764 96.0127 53.8227 95.865C54.0163 95.7257 54.1352 95.6255 54.1794 95.5644C55.0151 95.0516 55.7855 94.4683 56.4905 93.8145C57.1954 93.1607 57.8613 92.4321 58.4882 91.6288C58.9299 91.0175 59.3495 90.4366 59.7471 89.8864C60.1361 89.2835 60.5252 88.6806 60.9142 88.0777C61.7637 86.6443 62.6845 84.9834 63.6767 83.0948C64.7131 81.1451 65.6357 79.1598 66.4445 77.1387C67.2975 75.0565 67.9925 72.9997 68.5295 70.9684C69.1192 68.9287 69.41 67.0451 69.4018 65.3177C69.4035 64.9933 69.3526 64.6774 69.2491 64.37C69.1981 64.054 69.1209 63.7424 69.0174 63.4349C68.6625 62.5737 68.2142 61.9707 67.6725 61.6258C67.1833 61.2725 66.4827 61.1152 65.5707 61.1542C63.0959 61.5529 60.5913 62.6047 58.0569 64.3096C55.5667 65.9533 53.18 67.9045 50.8969 70.1631C48.6138 72.4217 46.4835 74.7907 44.5061 77.2702C42.5287 79.7497 40.8375 81.9939 39.4325 84.003C37.5858 86.6235 35.6584 89.5811 33.6503 92.8758C31.6948 96.162 29.7733 99.6589 27.8857 103.366C26.0423 107.013 24.3032 110.804 22.6687 114.741C21.0256 118.625 19.6017 122.528 18.3968 126.45C17.2446 130.363 16.3472 134.181 15.7046 137.904C15.1146 141.618 14.9247 145.133 15.1348 148.449C15.1719 149.685 15.4418 150.857 15.9444 151.965C16.2738 152.668 16.8945 153 17.8066 152.961C18.5438 152.842 19.365 152.575 20.2704 152.159C21.8093 151.317 23.328 150.181 24.8263 148.751C26.3245 147.321 27.6165 145.951 28.702 144.642C29.7434 143.394 30.7542 142.124 31.7344 140.831C32.7673 139.53 33.8002 138.229 34.833 136.929C36.537 134.763 38.2451 132.624 39.9575 130.512C41.6699 128.399 43.4435 126.331 45.2782 124.306C47.1655 122.274 49.1097 120.259 51.1109 118.262C53.1562 116.203 55.3534 114.418 57.7027 112.905C58.2921 112.54 58.89 112.227 59.4964 111.967C60.1555 111.699 60.8272 111.51 61.5117 111.4C63.0387 111.154 64.3346 111.485 65.3994 112.394C66.5084 113.242 67.3048 114.329 67.7886 115.655C68.1078 116.63 68.3174 117.596 68.4175 118.552C68.5175 119.508 68.5386 120.477 68.4807 121.459C68.4974 123.239 68.2796 125.408 67.8274 127.966C67.4194 130.463 66.7956 133.129 65.9561 135.965C65.1693 138.793 64.1939 141.624 63.03 144.459C61.8746 147.346 60.5493 150.018 59.0543 152.474C57.6119 154.921 56.0353 157.039 54.3247 158.827C52.614 160.615 50.8143 161.85 48.9255 162.533C48.776 162.611 48.5696 162.671 48.3063 162.714C47.8325 162.79 47.2584 162.747 46.5841 162.586C45.5685 162.317 44.7516 161.774 44.1335 160.955C43.5238 160.189 43.411 159.154 43.7951 157.849C44.0552 156.781 44.6354 155.688 45.5357 154.571C46.4888 153.445 47.5683 152.434 48.7744 151.537C50.0331 150.632 51.3393 149.854 52.6931 149.204C54.0469 148.554 55.2767 148.139 56.3824 147.961C56.6984 147.91 56.988 147.864 57.2512 147.821C57.5671 147.77 57.8873 147.746 58.2117 147.747C58.475 147.705 58.6814 147.645 58.8308 147.567C58.9888 147.541 59.0992 147.388 59.1621 147.108C59.3388 146.864 59.4407 146.658 59.4679 146.492C60.3633 144.673 61.2826 142.499 62.2256 139.97C63.1602 137.388 63.9767 134.745 64.6753 132.039C65.4264 129.325 65.967 126.645 66.2969 123.999C66.671 121.292 66.6884 118.885 66.349 116.779ZM57.7273 149.77C57.8157 149.648 57.8514 149.534 57.8344 149.429C57.8786 149.368 57.9185 149.28 57.9542 149.166C58.0697 148.878 57.9959 148.755 57.7326 148.797L57.0218 148.912C55.9415 149.248 54.7465 149.71 53.4369 150.299C52.1884 150.933 50.9832 151.667 49.8213 152.503C48.7121 153.33 47.7294 154.271 46.8732 155.328C46.017 156.384 45.4452 157.529 45.158 158.764C45.0849 159.316 45.1128 159.825 45.2418 160.29C45.3351 160.869 45.702 161.135 46.3423 161.085C47.5534 160.89 48.7135 160.379 49.8227 159.552C50.9846 158.717 52.0421 157.736 52.9951 156.61C54.0008 155.476 54.8927 154.306 55.6708 153.1C56.5015 151.885 57.1871 150.776 57.7273 149.77ZM85.968 107.297C85.7829 107.489 85.4498 108.272 84.9689 109.646C84.5407 111.011 84.0547 112.521 83.5109 114.175C83.0198 115.821 82.5423 117.384 82.0784 118.863C81.6671 120.334 81.4164 121.293 81.3263 121.739C81.1479 122.308 80.9695 122.877 80.791 123.446C80.6568 123.954 80.4699 124.47 80.2303 124.995L79.6722 126.057C79.4241 126.53 79.0895 126.8 78.6682 126.867C78.247 126.935 77.8708 126.78 77.5397 126.401C77.2866 126.172 77.1262 125.846 77.0583 125.425C76.7561 124.555 76.6161 123.687 76.6383 122.819C76.6576 119.25 77.0675 115.592 77.8681 111.843C78.7213 108.087 79.8013 104.563 81.1079 101.273C81.3475 100.749 81.5463 100.474 81.7042 100.448C81.7569 100.44 81.7875 100.462 81.796 100.514C81.8486 100.506 81.9013 100.497 81.9539 100.489C82.2868 100.543 82.5534 100.689 82.7538 100.927C82.9984 101.104 83.0892 101.332 83.0263 101.613C82.9906 101.726 82.955 101.84 82.9193 101.954C82.8751 102.015 82.8352 102.103 82.7995 102.216C82.5038 103.398 82.1596 104.615 81.7671 105.867C81.4357 107.163 81.0643 108.546 80.6531 110.017C80.286 111.427 79.9537 112.885 79.6562 114.391C79.3587 115.898 79.1139 117.396 78.9217 118.885C78.7737 120.314 78.7268 121.699 78.7809 123.041C78.7096 123.268 78.7792 123.365 78.9898 123.331C79.1036 123.367 79.1962 123.271 79.2676 123.043C79.7382 121.941 80.1562 120.847 80.5216 119.762C80.9311 118.616 81.3143 117.474 81.6711 116.336C82.1266 114.804 82.5557 113.276 82.9585 111.752C83.4139 110.221 83.8999 108.711 84.4165 107.223C84.7189 106.418 85.0214 105.613 85.3239 104.808C85.6263 104.003 85.9857 103.216 86.4019 102.446C86.4903 102.324 86.5922 102.118 86.7077 101.83C86.8759 101.533 87.039 101.371 87.197 101.346C87.4603 101.303 87.6309 101.357 87.709 101.506C87.8653 101.805 87.9298 102.038 87.9026 102.204C87.9093 102.582 87.8455 103.024 87.7113 103.532C87.565 104.636 87.4494 105.762 87.3642 106.91C87.3318 108.05 87.3783 109.177 87.5038 110.291C87.5462 110.554 87.5887 110.817 87.6311 111.081C87.6735 111.344 87.7686 111.599 87.9163 111.845C88.1591 112.346 88.5701 112.55 89.1493 112.457C89.202 112.448 89.2283 112.444 89.2283 112.444C89.2725 112.383 89.3472 112.344 89.4525 112.327C89.8126 112.215 90.2126 112.015 90.6526 111.728C91.084 111.389 91.5113 111.023 91.9343 110.63C92.3572 110.238 92.7539 109.85 93.1242 109.466C93.4861 109.03 93.808 108.681 94.09 108.419C94.5571 107.966 94.9759 107.547 95.3462 107.163C95.7607 106.719 96.2015 106.269 96.6687 105.816C96.8454 105.571 97.0348 105.406 97.2369 105.319C97.3252 105.197 97.4348 105.206 97.5656 105.347C97.7762 105.313 97.8152 105.388 97.6827 105.572C97.5841 105.966 97.1951 106.568 96.5156 107.38C95.8276 108.139 95.0385 108.942 94.1484 109.787C93.3109 110.625 92.4607 111.383 91.5977 112.062C90.7263 112.689 90.0537 113.04 89.5798 113.117C88.8953 113.227 88.2652 113.004 87.6895 112.449C87.0169 111.963 86.6043 111.246 86.4516 110.298C86.3922 109.93 86.3328 109.561 86.2735 109.193C86.2667 108.816 86.26 108.438 86.2533 108.061C86.2363 107.956 86.2193 107.851 86.2023 107.745C86.1769 107.587 86.0988 107.438 85.968 107.297ZM98.3051 119.328C98.1899 117.942 98.2114 116.399 98.3696 114.698C98.5805 112.99 98.8746 111.295 99.2519 109.613C99.6208 107.879 100.051 106.189 100.542 104.544C101.033 102.898 101.527 101.441 102.025 100.172C102.097 99.9444 102.177 99.7695 102.265 99.6472C102.345 99.4723 102.425 99.2973 102.504 99.1224C102.584 98.9475 102.73 98.843 102.94 98.8091L103.098 98.7836C103.633 98.7515 104.061 99.0607 104.382 99.7112C104.46 99.8607 104.472 100.102 104.418 100.435C104.338 100.61 104.258 100.785 104.178 100.96C104.098 101.135 104.018 101.309 103.938 101.484C102.995 104.013 102.219 106.569 101.609 109.153C100.99 111.683 100.546 114.294 100.277 116.984C100.221 117.641 100.165 118.299 100.109 118.956C100.105 119.605 100.207 120.237 100.414 120.852C100.474 121.22 100.635 121.383 100.898 121.341C101.056 121.315 101.184 121.268 101.281 121.198C101.527 121.05 101.716 120.885 101.849 120.701C102.034 120.51 102.223 120.344 102.417 120.205C103.431 119.123 104.398 117.914 105.317 116.577C106.606 114.857 107.813 113.123 108.936 111.375C110.05 109.575 111.164 107.775 112.279 105.975C112.456 105.73 112.606 105.49 112.73 105.254C112.846 104.965 113.027 104.747 113.273 104.599C113.361 104.477 113.466 104.46 113.589 104.548C113.65 104.592 113.75 104.711 113.889 104.905C113.906 105.01 113.893 105.094 113.849 105.155C113.804 105.216 113.764 105.303 113.729 105.417C113.649 105.592 113.569 105.767 113.489 105.942C113.453 106.056 113.391 106.174 113.303 106.296C112.099 108.543 110.859 110.741 109.585 112.891C108.311 115.041 107.01 117.196 105.683 119.354C105.33 119.843 104.977 120.333 104.623 120.822C104.323 121.302 103.939 121.769 103.471 122.223C102.96 122.737 102.389 123.045 101.757 123.147C101.178 123.241 100.682 123.185 100.271 122.981C99.9046 122.716 99.5819 122.39 99.3034 122.003C99.0776 121.607 98.8738 121.181 98.6922 120.724C98.5547 120.206 98.4257 119.74 98.3051 119.328ZM104.877 95.742C104.344 95.4497 104.012 95.2331 103.881 95.0921C103.803 94.9427 103.809 94.6446 103.899 94.1979C104.354 92.6659 104.897 91.1739 105.528 89.7218C106.158 88.2697 106.819 86.8397 107.51 85.4318C107.582 85.2042 107.723 85.0734 107.933 85.0395C107.986 85.031 108.043 85.0488 108.104 85.093C108.41 85.3139 108.505 85.5686 108.389 85.8574C108.398 85.91 108.358 85.9975 108.27 86.1198C107.595 87.633 106.999 89.1335 106.483 90.6213C106.019 92.1006 105.586 93.602 105.183 95.1255C105.094 95.2477 105.032 95.3658 104.997 95.4796C105.005 95.5322 104.965 95.6197 104.877 95.742ZM135.306 97.9699C135.538 100.417 135.521 102.824 135.254 105.19C135.141 106.505 135.007 107.85 134.85 109.226C134.738 110.54 134.626 111.855 134.513 113.169C134.468 113.555 134.434 114.02 134.414 114.563C134.414 114.563 134.479 114.634 134.61 114.775L134.768 114.749C134.945 114.505 135.099 114.291 135.232 114.107C135.417 113.915 135.576 113.728 135.708 113.544C136.697 112.304 137.664 111.095 138.608 109.917C139.597 108.677 140.612 107.433 141.653 106.185C142.059 105.687 142.492 105.185 142.95 104.679C143.401 104.121 143.855 103.588 144.314 103.082L144.948 102.494C145.089 102.363 145.229 102.394 145.368 102.588C145.491 102.676 145.508 102.782 145.419 102.904C145.339 103.079 145.167 103.35 144.902 103.717C143.04 105.907 141.261 108.112 139.566 110.33C137.923 112.539 136.258 114.779 134.571 117.05C133.997 117.844 133.668 118.654 133.585 119.477C133.267 121.527 132.838 123.893 132.297 126.573C131.748 129.2 131.068 131.849 130.255 134.519C129.452 137.241 128.491 139.827 127.373 142.276C126.316 144.769 125.108 146.828 123.749 148.451C123.395 148.94 122.959 149.416 122.439 149.878C121.919 150.34 121.37 150.617 120.791 150.71C120.106 150.821 119.45 150.602 118.821 150.055C118.123 149.412 117.777 148.603 117.782 147.63C117.917 145.447 118.429 143.096 119.32 140.575C120.218 138.108 121.28 135.641 122.503 133.175C123.779 130.7 125.129 128.349 126.552 126.121C128.029 123.884 129.389 121.936 130.635 120.277C131.041 119.779 131.306 119.413 131.43 119.176C131.606 118.932 131.735 118.722 131.815 118.547C131.947 118.364 132.018 118.136 132.029 117.865C132.083 117.532 132.169 117.059 132.286 116.445C132.485 115.333 132.712 113.892 132.967 112.122C133.222 110.352 133.438 108.508 133.615 106.589C133.845 104.661 134.008 102.825 134.105 101.08C134.194 99.2835 134.149 97.8321 133.971 96.7264C133.92 96.4105 133.737 96.278 133.421 96.3289C133.368 96.3373 133.346 96.3679 133.354 96.4206C133.354 96.4206 133.328 96.4248 133.275 96.4333C132.888 96.7118 132.628 96.9427 132.496 97.1261C131.825 97.9906 131.184 98.8771 130.574 99.7857C129.956 100.642 129.46 101.586 129.086 102.618C128.953 102.802 128.887 102.894 128.887 102.894C128.226 103.486 127.714 104.163 127.351 104.924C126.987 105.685 126.567 106.428 126.089 107.153C125.603 107.825 125.152 108.546 124.736 109.316C124.364 110.024 123.965 110.736 123.541 111.453C122.948 112.467 122.359 113.507 121.775 114.574C121.182 115.588 120.562 116.606 119.917 117.628C119.58 118.223 119.24 118.791 118.895 119.332C118.55 119.874 118.179 120.42 117.781 120.97C117.481 121.451 117.097 121.918 116.63 122.372C116.215 122.816 115.718 123.086 115.139 123.179C114.033 123.357 113.238 122.783 112.755 121.456C112.478 120.745 112.403 119.946 112.531 119.061C112.855 117.388 113.41 115.3 114.195 112.797C114.981 110.293 115.928 107.791 117.037 105.289C118.138 102.735 119.383 100.4 120.771 98.286C122.15 96.119 123.601 94.5617 125.123 93.6142C125.51 93.3357 125.967 93.1541 126.494 93.0692C128.021 92.8232 129.056 93.5478 129.599 95.2429L129.625 95.4009C129.772 95.6472 129.815 95.9105 129.752 96.1907C129.742 96.4625 129.877 96.6298 130.157 96.6927C130.437 96.7556 130.639 96.669 130.763 96.4329C130.879 96.1442 131.06 95.9259 131.306 95.7782C131.447 95.6475 131.566 95.5473 131.663 95.4776C131.812 95.3995 131.958 95.2951 132.099 95.1643C132.389 94.9555 132.666 94.8298 132.929 94.7874C133.456 94.7026 133.985 94.9685 134.516 95.5851C134.795 95.9724 134.968 96.3767 135.036 96.7979C135.148 97.158 135.238 97.5487 135.306 97.9699ZM128.807 95.8568C128.707 94.9005 128.42 94.4606 127.946 94.5369C127.841 94.5539 127.638 94.6405 127.339 94.7967C126.03 95.3859 124.717 96.6239 123.4 98.5107C122.136 100.389 120.959 102.469 119.868 104.752C118.777 107.035 117.818 109.296 116.991 111.536C116.216 113.768 115.658 115.505 115.318 116.748C115.176 117.204 115.063 117.681 114.982 118.18C114.9 118.68 114.788 119.157 114.645 119.612C114.618 119.778 114.626 119.993 114.668 120.257C114.685 120.362 114.72 120.41 114.773 120.402C114.834 120.446 114.917 120.46 115.022 120.443L115.657 119.854C116.046 119.251 116.439 118.675 116.837 118.124C117.278 117.513 117.663 116.884 117.991 116.237L123.526 106.837C124.155 105.709 124.792 104.634 125.437 103.612C126.075 102.536 126.769 101.479 127.519 100.44C128.102 99.6978 128.439 98.9412 128.531 98.1701C128.615 97.3463 128.706 96.5752 128.807 95.8568ZM130.897 122.909C130.686 122.943 130.537 123.021 130.448 123.143C130.36 123.265 130.272 123.388 130.183 123.51C129.361 124.777 128.291 126.516 126.972 128.727C125.707 130.93 124.484 133.234 123.305 135.639C122.126 138.043 121.127 140.392 120.308 142.685C119.497 145.031 119.162 146.975 119.303 148.519C119.257 148.905 119.445 149.064 119.866 148.996C119.91 148.935 119.959 148.9 120.011 148.891C121.622 147.821 123.011 146.22 124.18 144.087C125.402 141.945 126.462 139.641 127.361 137.173C128.26 134.705 128.992 132.21 129.558 129.688C130.133 127.219 130.6 125.09 130.96 123.304L130.897 122.909ZM155.3 89.6433C154.565 89.4376 153.855 89.39 153.17 89.5003C152.538 89.6021 151.901 89.8397 151.259 90.2133C150.424 90.7261 149.644 91.419 148.92 92.2919C148.188 93.1121 147.582 94.047 147.103 95.0966C146.677 96.1377 146.368 97.2408 146.178 98.406C146.032 99.5099 146.096 100.58 146.371 101.616C146.396 101.774 146.496 102.055 146.669 102.459C146.852 102.592 146.997 102.65 147.102 102.633C147.155 102.624 147.225 102.559 147.314 102.437C147.438 102.201 147.535 101.969 147.607 101.741C147.731 101.505 147.881 101.265 148.058 101.02C148.262 100.609 148.465 100.198 148.669 99.7872C148.873 99.3762 149.108 98.9873 149.373 98.6205C149.699 98.2978 149.967 98.1195 150.178 98.0856C150.546 98.0262 150.923 98.1817 151.306 98.552C151.673 98.817 151.689 99.0845 151.355 99.3545C150.536 99.9727 150.01 100.733 149.777 101.634C149.544 102.536 149.312 103.438 149.079 104.34C148.972 104.681 149.119 104.928 149.522 105.079C150.685 105.594 151.925 105.745 153.242 105.533C153.505 105.491 153.768 105.448 154.031 105.406C154.286 105.311 154.502 105.141 154.679 104.896C154.803 104.66 154.874 104.433 154.893 104.214C155.357 102.734 155.746 101.294 156.06 99.8929C156.366 98.439 156.585 96.9452 156.716 95.4115C156.826 94.4213 156.805 93.4523 156.652 92.5046C156.5 91.5568 156.141 90.6693 155.575 89.842C156.222 90.1699 156.676 90.6371 156.935 91.2435C157.195 91.8499 157.433 92.4869 157.649 93.1544C157.898 94.0326 158.047 94.954 158.094 95.9187C158.141 96.8835 158.106 97.8346 157.986 98.7722C157.83 100.148 157.577 101.593 157.227 103.108C157.155 103.336 157.084 103.563 157.012 103.791C156.985 103.957 157.019 104.168 157.114 104.423L157.588 104.347C158.22 104.245 158.813 104.068 159.367 103.817C159.92 103.566 160.474 103.314 161.028 103.063C161.695 102.847 162.328 102.583 162.926 102.271C163.515 101.906 164.17 101.611 164.89 101.387C164.836 101.72 164.708 101.93 164.506 102.016C164.303 102.103 164.128 102.185 163.978 102.264C162.915 102.705 161.856 103.173 160.801 103.667C159.79 104.1 158.78 104.533 157.769 104.966C157.365 105.139 157.022 105.356 156.74 105.618C156.502 105.818 156.307 106.12 156.156 106.522C155.879 107.485 155.515 108.408 155.063 109.291C154.663 110.166 154.207 111.023 153.694 111.862C153.33 112.623 152.831 113.378 152.196 114.129C151.552 114.827 150.782 115.248 149.887 115.392C149.15 115.511 148.484 115.402 147.89 115.066C147.287 114.677 146.808 114.052 146.453 113.19C146.229 112.47 146.088 111.764 146.031 111.071C145.965 110.325 145.951 109.571 145.99 108.808C146.006 107.563 146.245 106.201 146.709 104.722C146.827 104.109 146.733 103.53 146.429 102.984C146.073 102.447 145.821 101.894 145.676 101.323C145.521 100.7 145.423 100.094 145.383 99.5064C145.293 98.2784 145.396 97.0734 145.692 95.8913C146.04 94.7007 146.568 93.6163 147.274 92.6381C147.973 91.6072 148.81 90.77 149.787 90.1264C150.808 89.4217 151.95 88.9676 153.214 88.764C153.652 88.8014 154.042 88.8737 154.383 88.9807C154.769 89.0266 155.074 89.2475 155.3 89.6433ZM149.099 105.471C149.055 105.532 149.011 105.594 148.966 105.655C148.914 105.663 148.865 105.698 148.821 105.759C148.247 108.229 148.067 110.634 148.283 112.977C148.366 113.828 148.644 114.215 149.118 114.139C149.434 114.088 149.707 113.936 149.936 113.683C150.085 113.605 150.208 113.531 150.305 113.461C150.446 113.33 150.561 113.204 150.649 113.082C151.417 112.147 152.067 111.151 152.599 110.093C153.122 108.983 153.589 107.854 153.998 106.708C154.097 106.314 153.957 106.12 153.58 106.127C152.826 106.14 152.064 106.101 151.292 106.009C150.574 105.909 149.843 105.73 149.099 105.471ZM175.504 92.8705C175.319 93.0624 174.986 93.8453 174.505 95.2193C174.077 96.5848 173.591 98.0947 173.047 99.7489C172.556 101.395 172.078 102.957 171.614 104.436C171.203 105.907 170.952 106.866 170.862 107.313C170.684 107.882 170.505 108.451 170.327 109.02C170.193 109.527 170.006 110.044 169.766 110.569L169.208 111.631C168.96 112.103 168.625 112.373 168.204 112.441C167.783 112.509 167.407 112.353 167.075 111.974C166.822 111.745 166.662 111.42 166.594 110.999C166.292 110.129 166.152 109.26 166.174 108.392C166.193 104.824 166.603 101.165 167.404 97.4168C168.257 93.6599 169.337 90.1366 170.644 86.8469C170.883 86.3221 171.082 86.047 171.24 86.0215C171.293 86.013 171.323 86.0351 171.332 86.0878C171.384 86.0793 171.437 86.0708 171.49 86.0623C171.823 86.1167 172.089 86.2628 172.29 86.5006C172.534 86.6773 172.625 86.9058 172.562 87.186C172.526 87.2998 172.491 87.4136 172.455 87.5274C172.411 87.5885 172.371 87.676 172.335 87.7898C172.04 88.9719 171.695 90.1888 171.303 91.4405C170.971 92.7364 170.6 94.1198 170.189 95.5906C169.822 97.0003 169.489 98.4583 169.192 99.9648C168.895 101.471 168.65 102.969 168.458 104.459C168.31 105.887 168.263 107.272 168.317 108.614C168.245 108.842 168.315 108.939 168.526 108.905C168.639 108.94 168.732 108.844 168.803 108.617C169.274 107.515 169.692 106.421 170.057 105.336C170.467 104.189 170.85 103.047 171.207 101.909C171.662 100.377 172.092 98.8494 172.494 97.3259C172.95 95.794 173.436 94.2841 173.952 92.7963C174.255 91.9913 174.557 91.1863 174.86 90.3812C175.162 89.5762 175.521 88.789 175.938 88.0197C176.026 87.8974 176.128 87.6919 176.244 87.4032C176.412 87.106 176.575 86.9446 176.733 86.9192C176.996 86.8768 177.167 86.9303 177.245 87.0798C177.401 87.3787 177.466 87.6114 177.438 87.7779C177.445 88.1549 177.381 88.5974 177.247 89.1052C177.101 90.2092 176.985 91.3353 176.9 92.4834C176.868 93.6231 176.914 94.7501 177.04 95.8643C177.082 96.1275 177.124 96.3908 177.167 96.6541C177.209 96.9174 177.304 97.1721 177.452 97.4185C177.695 97.9195 178.106 98.1234 178.685 98.0301C178.738 98.0216 178.764 98.0174 178.764 98.0174C178.808 97.9562 178.883 97.9172 178.988 97.9002C179.348 97.7882 179.748 97.5887 180.188 97.3017C180.62 96.9621 181.047 96.5961 181.47 96.2038C181.893 95.8116 182.29 95.4235 182.66 95.0397C183.022 94.6033 183.344 94.2543 183.626 93.9928C184.093 93.5393 184.512 93.1207 184.882 92.7369C185.297 92.292 185.737 91.8428 186.205 91.3894C186.381 91.1448 186.571 90.9793 186.773 90.8927C186.861 90.7704 186.971 90.7798 187.101 90.9208C187.312 90.8868 187.351 90.9616 187.219 91.145C187.12 91.539 186.731 92.1419 186.051 92.9537C185.363 93.7128 184.574 94.5152 183.684 95.3609C182.847 96.1981 181.996 96.9563 181.134 97.6356C180.262 98.2622 179.589 98.6137 179.116 98.69C178.431 98.8003 177.801 98.5777 177.225 98.0222C176.553 97.5364 176.14 96.8195 175.987 95.8718C175.928 95.5032 175.869 95.1346 175.809 94.766C175.803 94.389 175.796 94.0119 175.789 93.6348C175.772 93.5295 175.755 93.4242 175.738 93.3189C175.713 93.1609 175.635 93.0115 175.504 92.8705ZM187.841 104.901C187.726 103.515 187.747 101.972 187.905 100.272C188.116 98.5633 188.41 96.8683 188.788 95.1868C189.157 93.4527 189.587 91.7628 190.078 90.1171C190.569 88.4713 191.063 87.0141 191.561 85.7454C191.633 85.5178 191.712 85.3429 191.801 85.2206C191.881 85.0457 191.96 84.8708 192.04 84.6958C192.12 84.5209 192.265 84.4165 192.476 84.3825L192.634 84.3571C193.169 84.3249 193.597 84.6341 193.918 85.2847C193.996 85.4341 194.008 85.6753 193.953 86.0082C193.874 86.1832 193.794 86.3581 193.714 86.533C193.634 86.7079 193.554 86.8829 193.474 87.0578C192.531 89.5867 191.755 92.1428 191.144 94.7261C190.526 97.2567 190.082 99.8672 189.813 102.558C189.757 103.215 189.701 103.872 189.645 104.529C189.641 105.178 189.743 105.81 189.95 106.425C190.01 106.794 190.171 106.957 190.434 106.914C190.592 106.889 190.72 106.841 190.816 106.772C191.063 106.624 191.252 106.458 191.385 106.275C191.57 106.083 191.759 105.917 191.953 105.778C192.967 104.696 193.934 103.487 194.853 102.151C196.142 100.43 197.348 98.6964 198.471 96.9489C199.586 95.1486 200.7 93.3484 201.815 91.5482C201.991 91.3037 202.142 91.0634 202.266 90.8273C202.381 90.5386 202.562 90.3203 202.809 90.1726C202.897 90.0503 203.002 90.0334 203.125 90.1217C203.186 90.1659 203.286 90.2848 203.425 90.4784C203.442 90.5838 203.428 90.667 203.384 90.7281C203.34 90.7893 203.3 90.8767 203.265 90.9905C203.185 91.1654 203.105 91.3404 203.025 91.5153C202.989 91.6291 202.927 91.7471 202.839 91.8694C201.634 94.1163 200.395 96.3148 199.121 98.4649C197.847 100.615 196.546 102.769 195.219 104.928C194.866 105.417 194.512 105.906 194.159 106.395C193.858 106.876 193.474 107.343 193.007 107.796C192.496 108.311 191.924 108.619 191.293 108.721C190.713 108.814 190.218 108.759 189.807 108.555C189.44 108.29 189.118 107.964 188.839 107.576C188.613 107.181 188.41 106.754 188.228 106.297C188.091 105.779 187.961 105.314 187.841 104.901ZM194.413 81.3154C193.879 81.0232 193.547 80.8066 193.417 80.6656C193.339 80.5161 193.345 80.218 193.435 79.7713C193.89 78.2394 194.433 76.7473 195.063 75.2952C195.694 73.8431 196.355 72.4131 197.046 71.0052C197.118 70.7776 197.259 70.6469 197.469 70.6129C197.522 70.6044 197.579 70.6223 197.64 70.6665C197.946 70.8873 198.041 71.1421 197.925 71.4308C197.934 71.4835 197.894 71.5709 197.805 71.6932C197.131 73.2064 196.535 74.707 196.019 76.1947C195.555 77.674 195.121 79.1754 194.719 80.6989C194.63 80.8212 194.568 80.9392 194.533 81.053C194.541 81.1057 194.501 81.1931 194.413 81.3154ZM203.881 102.317C203.766 100.931 203.787 99.3876 203.945 97.6875C204.156 95.9788 204.45 94.2838 204.828 92.6024C205.197 90.8683 205.627 89.1784 206.118 87.5326C206.609 85.8869 207.103 84.4297 207.601 83.161C207.673 82.9334 207.752 82.7585 207.841 82.6362C207.921 82.4612 208 82.2863 208.08 82.1114C208.16 81.9365 208.305 81.832 208.516 81.7981L208.674 81.7726C209.209 81.7404 209.637 82.0496 209.958 82.7002C210.036 82.8497 210.048 83.0909 209.993 83.4238C209.914 83.5987 209.834 83.7736 209.754 83.9486C209.674 84.1235 209.594 84.2984 209.514 84.4734C208.571 87.0022 207.795 89.5583 207.184 92.1416C206.566 94.6722 206.122 97.2827 205.853 99.9731C205.797 100.63 205.741 101.288 205.685 101.945C205.681 102.594 205.783 103.226 205.99 103.841C206.05 104.209 206.211 104.372 206.474 104.33C206.632 104.304 206.76 104.257 206.856 104.187C207.103 104.039 207.292 103.874 207.425 103.69C207.61 103.499 207.799 103.333 207.993 103.194C209.007 102.112 209.974 100.903 210.893 99.5663C212.182 97.8459 213.388 96.112 214.511 94.3644C215.626 92.5642 216.74 90.764 217.855 88.9638C218.031 88.7192 218.182 88.4789 218.306 88.2428C218.421 87.9541 218.602 87.7359 218.849 87.5882C218.937 87.4659 219.042 87.4489 219.165 87.5373C219.226 87.5814 219.326 87.7003 219.465 87.894C219.482 87.9993 219.468 88.0825 219.424 88.1437C219.38 88.2048 219.34 88.2923 219.305 88.406C219.225 88.581 219.145 88.7559 219.065 88.9308C219.029 89.0446 218.967 89.1627 218.879 89.2849C217.674 91.5318 216.435 93.7303 215.161 95.8804C213.887 98.0305 212.586 100.185 211.259 102.343C210.906 102.832 210.552 103.322 210.199 103.811C209.898 104.291 209.514 104.758 209.047 105.212C208.536 105.726 207.964 106.034 207.333 106.136C206.753 106.23 206.258 106.174 205.847 105.97C205.48 105.705 205.158 105.379 204.879 104.992C204.653 104.596 204.45 104.17 204.268 103.713C204.131 103.195 204.001 102.729 203.881 102.317ZM210.453 78.7309C209.919 78.4387 209.587 78.2221 209.457 78.0811C209.379 77.9316 209.385 77.6336 209.475 77.1869C209.93 75.6549 210.473 74.1629 211.103 72.7108C211.734 71.2587 212.395 69.8287 213.086 68.4207C213.158 68.1932 213.299 68.0624 213.509 68.0285C213.562 68.02 213.619 68.0378 213.68 68.082C213.986 68.3028 214.081 68.5576 213.965 68.8464C213.974 68.899 213.934 68.9865 213.845 69.1088C213.171 70.622 212.575 72.1225 212.059 73.6103C211.595 75.0896 211.161 76.591 210.759 78.1144C210.67 78.2367 210.608 78.3548 210.573 78.4685C210.581 78.5212 210.541 78.6087 210.453 78.7309ZM235.625 73.9457C234.845 67.4268 234.967 61.1408 235.99 55.0876C237.066 49.0259 239.171 43.1495 242.306 37.4583C243.218 35.7447 244.306 34.111 245.568 32.5571C245.938 32.1733 246.313 31.8158 246.692 31.4847C247.062 31.1009 247.493 30.7612 247.986 30.4658C248.373 30.1873 248.83 30.0056 249.357 29.9208C250.252 29.7766 251.105 30.0442 251.917 30.7237C252.529 31.1654 253.017 31.681 253.382 32.2704C253.738 32.8072 254.029 33.4357 254.253 34.1559C254.874 36.0005 255.263 37.9097 255.419 39.8833C255.609 42.0676 255.715 44.2383 255.739 46.3954C255.754 48.4998 255.72 50.639 255.638 52.813C255.488 56.2405 255.338 59.6681 255.188 63.0956C255.03 66.4704 254.902 69.8674 254.805 73.2864C254.733 75.1887 254.71 77.0561 254.735 78.8888C254.813 80.713 254.947 82.555 255.139 84.4149C255.188 85.0552 255.264 85.6913 255.366 86.3231C255.511 86.8939 255.688 87.4867 255.895 88.1015C256.068 88.5058 256.313 88.6825 256.629 88.6316C256.681 88.6231 256.734 88.6146 256.787 88.6061C256.831 88.545 256.879 88.5102 256.932 88.5017C257.521 88.1366 258.045 87.701 258.504 87.195C259.76 85.264 260.901 83.2973 261.929 81.295C263.01 79.2842 264.056 77.2249 265.066 75.1173C266.495 71.9159 267.872 68.723 269.195 65.5385C270.51 62.3014 271.821 59.038 273.128 55.7483C274.363 52.6861 275.603 49.6503 276.847 46.6408C278.09 43.6313 279.417 40.6354 280.828 37.653C281.387 36.4285 281.976 35.2261 282.596 34.0458C283.261 32.8043 283.899 31.567 284.51 30.334C284.758 29.8619 285.055 29.355 285.4 28.8132C285.736 28.2188 286.129 27.6422 286.579 27.0835C287.03 26.5248 287.484 25.9924 287.943 25.4863C288.393 24.9276 288.838 24.5047 289.278 24.2177C289.613 23.9477 289.964 23.783 290.333 23.7236C290.912 23.6303 291.489 23.8614 292.065 24.4169C292.807 24.9996 293.403 25.8489 293.853 26.9649C294.286 27.9756 294.618 29.0295 294.849 30.1268C295.132 31.2156 295.333 32.2907 295.45 33.3523C296.244 38.9506 296.449 44.7518 296.066 50.7559C295.674 56.7073 294.849 62.6476 293.589 68.5768C292.33 74.5059 290.672 80.3102 288.616 85.9896C286.604 91.6079 284.353 96.9136 281.862 101.907C281.746 102.195 281.627 102.458 281.502 102.694C281.378 102.93 281.232 103.197 281.064 103.494C280.993 103.721 281.013 104.015 281.125 104.375C281.281 104.674 281.364 104.85 281.372 104.903C281.442 105 281.371 105.065 281.161 105.099L280.687 105.175C280.318 105.235 280.068 105.356 279.935 105.539C278.501 108.039 276.962 110.556 275.318 113.09C273.726 115.616 271.846 117.863 269.678 119.833C269.344 120.103 269.005 120.347 268.662 120.564C268.38 120.826 268.063 121.039 267.711 121.203C267.307 121.377 267.052 121.472 266.947 121.489C266.262 121.599 265.641 121.429 265.082 120.979C264.532 120.581 264.145 120.022 263.921 119.302C263.775 118.731 263.725 118.091 263.773 117.381C264.21 114.394 265.346 111.888 267.181 109.863C269.068 107.831 271.37 106.19 274.086 104.942C274.93 104.482 275.8 104.18 276.695 104.036C277.221 103.951 277.626 103.778 277.908 103.516C278.234 103.194 278.494 102.8 278.69 102.337C283.979 92.2469 288.048 81.6244 290.896 70.4693C293.744 59.3141 294.866 48.005 294.262 36.5418C294.147 35.1559 293.987 33.831 293.784 32.5673C293.624 31.2425 293.381 29.904 293.056 28.552C292.952 28.2446 292.848 27.9371 292.745 27.6297C292.633 27.2696 292.494 26.9137 292.33 26.5621C292.201 26.0967 291.847 25.9107 291.267 26.004L291.109 26.0295C290.697 26.15 290.301 26.3758 289.922 26.707C289.543 27.0381 289.199 27.4177 288.89 27.8456C288.581 28.2736 288.302 28.7236 288.054 29.1958C287.798 29.6153 287.563 30.0042 287.351 30.3625C286.094 32.6179 284.898 34.9174 283.763 37.2612C282.619 39.5522 281.511 41.8917 280.437 44.2796C279.14 47.2976 277.87 50.3113 276.626 53.3208C275.435 56.3219 274.222 59.3535 272.987 62.4156C271.546 66.2132 269.964 70.1415 268.241 74.2006C266.571 78.2512 264.727 82.0598 262.708 85.6262C262.071 86.7013 261.377 87.7585 260.626 88.7978C260.229 89.3481 259.739 89.8321 259.158 90.2498C258.666 90.5452 258.288 90.7142 258.025 90.7566C257.603 90.8245 257.161 90.7607 256.697 90.5653C256.286 90.3614 255.893 90.1006 255.518 89.783C255.187 89.4042 254.882 89.0211 254.603 88.6338C254.316 88.1939 254.117 87.7938 254.005 87.4337C253.642 86.5199 253.384 85.5891 253.231 84.6413C253.07 83.6409 252.965 82.6583 252.918 81.6935C252.696 78.9742 252.614 76.2864 252.672 73.63C252.722 70.9209 252.798 68.2076 252.9 65.4901C252.987 62.3428 253.105 59.2176 253.253 56.1145C253.401 53.0114 253.519 49.8862 253.606 46.739C253.659 45.0558 253.637 43.4116 253.541 41.8066C253.488 40.1403 253.327 38.4648 253.055 36.7798C252.945 36.0953 252.812 35.4414 252.658 34.818C252.548 34.1335 252.358 33.4617 252.09 32.8027C251.822 32.1436 251.424 31.8565 250.898 31.9414C250.687 31.9753 250.534 32.0271 250.437 32.0967C249.523 32.46 248.589 33.2047 247.636 34.3306C246.736 35.4481 245.857 36.6972 244.999 38.0779C244.194 39.4501 243.472 40.836 242.833 42.2354C242.185 43.5822 241.688 44.6887 241.342 45.5548C239.901 49.3524 238.766 53.2086 237.939 57.1235C237.102 60.9857 236.634 64.9507 236.533 69.0186C236.524 70.6406 236.599 72.2763 236.756 73.9255C236.906 75.5221 237.164 77.1281 237.533 78.7434C237.704 79.4721 237.937 80.2449 238.23 81.0619C238.524 81.8789 238.91 82.6 239.389 83.2251C239.963 84.105 240.619 84.4856 241.356 84.3668C241.724 84.3074 242.01 84.2344 242.212 84.1478C242.317 84.1309 242.37 84.1224 242.37 84.1224C242.414 84.0612 242.489 84.0222 242.594 84.0052C243.015 83.9374 243.448 84.1107 243.893 84.5252C244.024 84.6662 244.045 84.7978 243.957 84.9201C243.974 85.0254 243.904 85.0908 243.746 85.1162C242.587 85.3029 241.605 85.245 240.8 84.9425C239.987 84.5874 239.31 84.0752 238.77 83.4059C238.23 82.7366 237.778 81.945 237.415 81.0312C237.052 80.1174 236.741 79.195 236.483 78.2642C236.32 77.5882 236.157 76.9122 235.994 76.2362C235.875 75.499 235.752 74.7355 235.625 73.9457ZM266.066 119.038C266.276 119.004 266.527 118.882 266.817 118.673C267.68 117.994 268.522 117.183 269.343 116.241C270.216 115.29 271.028 114.295 271.779 113.255C272.582 112.207 273.329 111.142 274.019 110.058C274.717 109.027 275.345 108.062 275.902 107.162C275.99 107.039 276.07 106.864 276.141 106.637C276.23 106.515 276.213 106.409 276.091 106.321C276.029 106.277 275.973 106.259 275.92 106.267C275.867 106.276 275.81 106.258 275.749 106.214C275.697 106.222 275.644 106.231 275.591 106.239C275.547 106.3 275.472 106.34 275.367 106.357C273.38 107.433 271.452 108.878 269.583 110.692C267.767 112.497 266.528 114.533 265.867 116.801C265.645 117.431 265.501 118.048 265.437 118.653C265.348 118.775 265.365 118.88 265.487 118.969C265.618 119.11 265.811 119.133 266.066 119.038ZM310.081 71.1866C309.895 71.3785 309.562 72.1615 309.082 73.5355C308.653 74.901 308.167 76.4108 307.624 78.0651C307.132 79.7108 306.655 81.2734 306.191 82.7527C305.78 84.2235 305.529 85.1822 305.439 85.6289C305.26 86.1979 305.082 86.7668 304.904 87.3358C304.769 87.8436 304.582 88.3599 304.343 88.8847L303.785 89.947C303.537 90.4192 303.202 90.6892 302.781 90.757C302.36 90.8249 301.983 90.6694 301.652 90.2906C301.399 90.0613 301.239 89.736 301.171 89.3148C300.869 88.4451 300.729 87.5763 300.751 86.7084C300.77 83.1399 301.18 79.4814 301.981 75.733C302.834 71.9761 303.914 68.4528 305.221 65.163C305.46 64.6383 305.659 64.3631 305.817 64.3377C305.87 64.3292 305.9 64.3513 305.909 64.4039C305.961 64.3955 306.014 64.387 306.067 64.3785C306.399 64.4329 306.666 64.579 306.866 64.8168C307.111 64.9935 307.202 65.222 307.139 65.5022C307.103 65.616 307.068 65.7298 307.032 65.8436C306.988 65.9047 306.948 65.9922 306.912 66.106C306.616 67.2881 306.272 68.505 305.88 69.7567C305.548 71.0526 305.177 72.4359 304.766 73.9067C304.399 75.3164 304.066 76.7745 303.769 78.281C303.471 79.7875 303.227 81.2855 303.034 82.7751C302.886 84.2035 302.839 85.5886 302.894 86.9304C302.822 87.158 302.892 87.2548 303.102 87.2209C303.216 87.2565 303.309 87.1606 303.38 86.933C303.851 85.8308 304.269 84.737 304.634 83.6517C305.044 82.5053 305.427 81.3632 305.784 80.2253C306.239 78.6933 306.668 77.1656 307.071 75.6421C307.527 74.1102 308.013 72.6003 308.529 71.1125C308.832 70.3075 309.134 69.5024 309.436 68.6974C309.739 67.8924 310.098 67.1052 310.515 66.3358C310.603 66.2136 310.705 66.0081 310.82 65.7193C310.989 65.4221 311.152 65.2608 311.31 65.2354C311.573 65.1929 311.744 65.2465 311.822 65.3959C311.978 65.6949 312.042 65.9276 312.015 66.0941C312.022 66.4711 311.958 66.9136 311.824 67.4214C311.678 68.5254 311.562 69.6514 311.477 70.7996C311.444 71.9393 311.491 73.0662 311.616 74.1804C311.659 74.4437 311.701 74.707 311.744 74.9703C311.786 75.2335 311.881 75.4883 312.029 75.7346C312.272 76.2357 312.683 76.4396 313.262 76.3463C313.315 76.3378 313.341 76.3335 313.341 76.3335C313.385 76.2724 313.46 76.2334 313.565 76.2164C313.925 76.1043 314.325 75.9048 314.765 75.6179C315.197 75.2782 315.624 74.9123 316.047 74.52C316.47 74.1277 316.867 73.7397 317.237 73.3559C317.599 72.9194 317.921 72.5704 318.203 72.3089C318.67 71.8555 319.088 71.4369 319.459 71.0531C319.873 70.6082 320.314 70.159 320.781 69.7056C320.958 69.461 321.147 69.2954 321.35 69.2089C321.438 69.0866 321.547 69.0959 321.678 69.2369C321.889 69.203 321.928 69.2777 321.795 69.4612C321.697 69.8552 321.308 70.4581 320.628 71.2698C319.94 72.029 319.151 72.8314 318.261 73.6771C317.423 74.5143 316.573 75.2725 315.71 75.9518C314.839 76.5784 314.166 76.9298 313.692 77.0062C313.008 77.1165 312.378 76.8939 311.802 76.3384C311.13 75.8525 310.717 75.1357 310.564 74.1879C310.505 73.8193 310.445 73.4508 310.386 73.0822C310.379 72.7051 310.373 72.3281 310.366 71.951C310.349 71.8457 310.332 71.7404 310.315 71.6351C310.29 71.4771 310.211 71.3276 310.081 71.1866ZM334.234 67.538C334.497 67.4956 334.669 67.3869 334.749 67.212C334.873 66.9759 334.97 66.7441 335.042 66.5165C335.635 65.5026 336.201 64.4929 336.742 63.4875C337.335 62.4736 337.928 61.4597 338.52 60.4458C338.689 60.1486 338.839 59.9083 338.972 59.7249C339.148 59.4803 339.325 59.2358 339.502 58.9912C339.739 58.7908 339.964 58.6737 340.174 58.6398C340.28 58.6228 340.499 58.6415 340.832 58.6959L341.657 59.2922C341.98 59.6184 342.096 60.0048 342.006 60.4515C341.89 60.7402 341.748 61.0332 341.58 61.3304C341.465 61.6191 341.349 61.9078 341.233 62.1965C340.435 63.9458 339.591 65.9185 338.703 68.1145C337.814 70.3105 336.991 72.577 336.233 74.914C335.528 77.2425 334.932 79.5803 334.446 81.9275C333.951 84.2221 333.672 86.3469 333.609 88.3018C333.58 88.7927 333.582 89.3056 333.614 89.8406C333.638 90.323 333.635 90.8096 333.606 91.3005C333.653 92.2652 333.907 93.1697 334.367 94.0139C334.61 94.515 334.942 94.7316 335.363 94.6637C335.732 94.6043 336.075 94.387 336.393 94.0117C336.763 93.6279 337.032 93.2874 337.201 92.9902C337.67 92.2123 338.13 91.3819 338.582 90.4987C339.265 89.0381 339.865 87.564 340.381 86.0762C340.951 84.5799 341.489 83.0615 341.997 81.5211C342.522 80.086 343.047 78.6508 343.572 77.2157C344.097 75.7806 344.618 74.3191 345.135 72.8313C345.206 72.6038 345.273 72.3498 345.336 72.0696C345.399 71.7894 345.619 71.6459 345.996 71.6391C346.197 71.877 346.235 72.1139 346.111 72.35C345.978 72.5334 345.876 72.7389 345.805 72.9665C345.19 74.8483 344.579 76.7564 343.972 78.6909C343.41 80.5642 342.821 82.4418 342.206 84.3236C341.832 85.3562 341.462 86.4152 341.097 87.5005C340.723 88.5331 340.292 89.5478 339.805 90.5448C339.477 91.1918 339.083 91.9306 338.622 92.7611C338.162 93.5916 337.615 94.2199 336.981 94.6462C336.489 94.9416 336.111 95.1105 335.847 95.153C334.952 95.2972 334.218 94.9294 333.644 94.0495C333.14 93.2664 332.851 92.3135 332.778 91.1908C332.566 89.8744 332.521 88.4231 332.644 86.8367C332.758 85.1977 332.977 83.5417 333.302 81.8688C333.627 80.1958 333.982 78.5449 334.368 76.9162C334.806 75.2789 335.213 73.7818 335.589 72.4247C335.66 72.1971 335.759 71.8031 335.884 71.2426C335.823 71.1985 335.74 71.1849 335.635 71.2018C335.529 71.2188 335.459 71.2842 335.423 71.398C335.379 71.4591 335.313 71.5508 335.224 71.6731C334.613 72.9061 334.001 74.1391 333.389 75.3721C332.822 76.5439 332.228 77.72 331.608 78.9004C330.826 80.755 330.019 82.4517 329.187 83.9903C328.966 84.296 328.776 84.6238 328.616 84.9737C328.456 85.3235 328.266 85.6513 328.045 85.957C327.559 86.6295 326.922 87.0294 326.132 87.1567C325.026 87.3348 324.168 87.0409 323.559 86.2747C322.993 85.4475 322.638 84.5863 322.494 83.6912C322.34 83.0678 322.242 82.4623 322.201 81.8746C322.205 81.2258 322.213 80.6033 322.225 80.0071C322.276 78.6484 322.375 77.2548 322.523 75.8264C322.724 74.3895 323.038 72.9883 323.467 71.6228C323.895 70.2573 324.472 68.9759 325.197 67.7786C325.975 66.5728 326.941 65.5258 328.095 64.6377C328.482 64.3592 328.965 64.1733 329.544 64.08C330.439 63.9358 331.306 64.1202 332.145 64.6332C332.976 65.0937 333.507 65.7103 333.74 66.4831C333.818 66.6326 333.874 66.8127 333.908 67.0233C333.942 67.2339 334.051 67.4055 334.234 67.538ZM324.667 83.0979C324.735 83.5192 324.79 83.8614 324.833 84.1247C324.928 84.3795 324.997 84.6385 325.039 84.9018C325.073 85.1124 325.195 85.2007 325.406 85.1668C325.459 85.1583 325.511 85.1498 325.564 85.1413C325.608 85.0802 325.656 85.0454 325.709 85.0369C326.195 84.3644 326.638 83.5908 327.037 82.7161C327.897 81.011 328.73 79.3101 329.537 77.6135C330.336 75.8642 331.191 74.1327 332.103 72.4191C332.431 71.772 332.628 71.1461 332.692 70.5415C332.801 69.8757 332.8 69.2006 332.69 68.5161C332.656 68.3054 332.583 68.0201 332.471 67.66C332.412 67.2914 332.3 66.9313 332.135 66.5797C332.023 66.2196 331.867 65.9207 331.666 65.6828C331.519 65.4365 331.313 65.3346 331.05 65.377C330.681 65.4364 330.285 65.6622 329.862 66.0545C329.431 66.3941 329.012 66.8127 328.606 67.3103C328.2 67.8079 327.825 68.3276 327.48 68.8694C327.179 69.35 326.971 69.7347 326.855 70.0234C325.845 72.131 325.193 74.2888 324.9 76.4968C324.608 78.7048 324.53 80.9052 324.667 83.0979ZM377.003 66.238C377.054 66.5539 377.105 66.8698 377.156 67.1857C377.259 67.4932 377.332 67.7785 377.375 68.0418C377.478 68.3493 377.749 68.5217 378.187 68.5591C378.451 68.5167 378.688 68.4785 378.898 68.4446C379.161 68.4022 379.416 68.3071 379.663 68.1594C379.953 67.9505 380.248 67.768 380.547 67.6118C380.89 67.3944 381.202 67.155 381.484 66.8935C382.154 66.3534 382.827 65.8398 383.505 65.3524C384.227 64.8039 384.923 64.2597 385.592 63.7197C385.785 63.5804 385.957 63.4717 386.107 63.3936C386.248 63.2629 386.389 63.1321 386.53 63.0013C386.626 62.9317 386.727 62.8884 386.833 62.8715C386.991 62.846 387.104 62.8817 387.174 62.9785C387.244 63.0753 387.256 63.1543 387.212 63.2155C387.16 63.2239 387.115 63.2851 387.08 63.3989C386.991 63.5212 386.895 63.5908 386.789 63.6077C385.846 64.4619 384.899 65.2898 383.948 66.0913C383.041 66.8317 382.081 67.5806 381.069 68.3379C380.726 68.5553 380.405 68.7421 380.106 68.8983C379.763 69.1156 379.407 69.254 379.038 69.3134C378.09 69.4661 377.391 69.1467 376.939 68.3551C376.54 67.5551 376.281 66.7865 376.162 66.0493L375.806 63.8378C375.747 63.4693 375.559 63.3104 375.243 63.3613C375.19 63.3698 375.142 63.4046 375.098 63.4657C375.098 63.4657 375.071 63.47 375.019 63.4785C374.711 63.582 374.439 63.734 374.201 63.9344C373.963 64.1348 373.721 64.3088 373.475 64.4566C372.991 64.8047 372.511 65.1791 372.035 65.5799C371.604 65.9195 371.146 66.2634 370.662 66.6115C370.23 66.9511 369.654 67.233 368.934 67.457C368.829 67.474 368.754 67.5131 368.71 67.5742C368.657 67.5827 368.578 67.5954 368.473 67.6124C367.841 67.7142 367.237 67.4873 366.662 66.9318C365.999 66.1742 365.588 65.2952 365.427 64.2948C365.238 63.4608 365.133 62.6404 365.111 61.8336C365.133 60.9657 365.129 60.102 365.099 59.2426C365.107 57.6205 365.199 56.0121 365.375 54.4172C365.594 52.7613 365.787 51.1095 365.954 49.462C366.008 49.1291 366.036 48.8005 366.038 48.4761C366.031 48.099 366.055 47.744 366.109 47.4111C366.076 47.2005 365.997 47.051 365.875 46.9627C365.648 46.8913 365.476 47 365.36 47.2887C365.184 47.5333 365.007 47.7778 364.83 48.0224C364.706 48.2584 364.56 48.5251 364.392 48.8223C363.097 51.5159 361.917 54.2451 360.849 57.0101C359.782 59.775 358.776 62.5842 357.832 65.4375C357.137 67.4942 356.442 69.551 355.747 71.6077C355.043 73.6118 354.318 75.6465 353.57 77.7117C353.16 78.8581 352.668 79.9909 352.092 81.1101C351.923 81.4073 351.693 81.8226 351.401 82.3558C351.1 82.8365 350.739 83.1107 350.318 83.1786C350.16 83.204 349.998 83.2032 349.831 83.176C349.718 83.1403 349.573 83.0825 349.398 83.0026C348.524 82.6034 347.957 81.9383 347.699 81.0075C347.526 80.6032 347.406 80.1905 347.338 79.7693C347.323 79.3395 347.307 78.9098 347.292 78.4801C347.32 74.9643 347.703 71.4722 348.44 68.0041C349.231 64.5274 350.454 61.2241 352.111 58.094L352.707 57.2687C352.795 57.1464 352.945 57.0683 353.155 57.0343C353.419 56.9919 353.707 57.1075 354.022 57.381C354.388 57.646 354.567 57.9144 354.556 58.1861C354.582 58.3441 354.524 58.4885 354.383 58.6192C353.987 58.8451 353.71 59.1329 353.55 59.4828C353.443 59.8241 353.309 60.1698 353.15 60.5196C351.896 63.8009 350.958 67.0312 350.335 70.2107C349.705 73.3375 349.402 76.6546 349.427 80.1619C349.469 80.4252 349.53 80.6316 349.608 80.7811C349.808 81.0189 349.944 81.024 350.015 80.7964C350.333 80.4211 350.59 80.0016 350.785 79.538C351.149 78.7771 351.516 78.0426 351.888 77.3344C352.252 76.5735 352.585 75.7906 352.888 74.9855C353.43 73.6557 353.919 72.3344 354.356 71.0215C354.784 69.656 355.243 68.3126 355.732 66.9912C356.73 64.1295 357.762 61.3161 358.829 58.5511C359.949 55.7777 361.152 53.0179 362.438 50.2716C362.722 49.6857 362.983 49.1303 363.223 48.6055C363.506 48.0196 363.821 47.4558 364.166 46.914C364.246 46.7391 364.352 46.5599 364.484 46.3765C364.608 46.1404 364.741 45.957 364.882 45.8263C365.058 45.5817 365.278 45.4382 365.542 45.3958C365.805 45.3534 366.067 45.4732 366.329 45.7552C366.696 46.0202 366.913 46.3633 366.981 46.7845C367.127 47.3552 367.176 47.9956 367.128 48.7055C367.033 50.1254 366.916 51.5759 366.776 53.057C366.681 54.4769 366.559 55.9011 366.411 57.3295C366.38 58.1447 366.328 58.9906 366.253 59.867C366.222 60.6822 366.191 61.4975 366.161 62.3127C366.132 62.8036 366.16 63.3123 366.244 63.8388C366.321 64.3127 366.401 64.8129 366.486 65.3395C366.546 65.7081 366.68 66.0376 366.889 66.3281C366.984 66.5829 367.119 66.7502 367.294 66.83C367.513 66.8488 367.754 66.8369 368.017 66.7945C368.693 66.6315 369.344 66.3106 369.969 65.8318L372.583 63.952C373.164 63.5342 373.758 63.1955 374.364 62.9357C374.461 62.8661 374.641 62.8101 374.904 62.7676C375.536 62.6658 376.013 62.9402 376.333 63.5908C376.551 63.9339 376.698 64.3424 376.774 64.8163C376.869 65.0711 376.934 65.3038 376.968 65.5144C377.001 65.725 377.04 65.962 377.082 66.2252L377.003 66.238ZM409.169 70.0497C409.468 69.8935 409.679 69.6974 409.804 69.4613C409.928 69.2252 410.052 68.9892 410.176 68.7531C411.107 66.8204 412.126 64.7654 413.234 62.5881C414.342 60.4108 415.567 58.2956 416.911 56.2423C418.247 54.1364 419.686 52.1758 421.231 50.3603C422.827 48.5364 424.55 46.9894 426.398 45.7192C426.996 45.4068 427.655 45.1385 428.375 44.9145L428.533 44.889C429.165 44.7872 429.669 44.8951 430.044 45.2128C430.411 45.4778 430.588 45.9084 430.576 46.5046C430.52 47.1619 430.385 47.8319 430.171 48.5147C429.69 49.8887 429.214 51.1268 428.743 52.229C428.086 53.8476 427.415 55.5493 426.73 57.3343C426.098 59.1108 425.707 60.8755 425.557 62.6283C425.501 63.2856 425.524 63.9302 425.626 64.562C425.841 65.2296 426.291 65.5082 426.976 65.3979C427.231 65.3028 427.485 65.2078 427.74 65.1127C428.048 65.0091 428.324 64.8835 428.571 64.7357C428.861 64.5269 429.152 64.318 429.442 64.1091C429.733 63.9003 429.993 63.6693 430.222 63.4163C431.262 62.4925 432.254 61.4413 433.198 60.2627C434.239 59.0145 435.255 57.7705 436.243 56.5308C437.232 55.291 438.247 54.0471 439.288 52.7989C439.509 52.4932 439.805 52.1484 440.175 51.7646C440.369 51.6254 440.527 51.5999 440.649 51.6883C440.771 51.7766 440.797 51.9346 440.725 52.1622L440.195 52.8958C438.942 54.5024 437.688 56.1089 436.434 57.7155C435.18 59.3221 433.927 60.9286 432.673 62.5352C432.187 63.2077 431.521 63.9362 430.675 64.7208C429.873 65.4442 429.033 65.9307 428.155 66.1802C428.006 66.2583 427.799 66.3186 427.536 66.361C426.641 66.5053 425.906 66.1374 425.333 65.2575C424.759 64.3776 424.513 63.5258 424.597 62.702C424.622 61.1853 424.845 59.7178 425.265 58.2997C425.685 56.8815 426.161 55.4812 426.695 54.0987C427.121 53.0576 427.521 52.0208 427.895 50.9881C428.261 49.9029 428.657 48.8397 429.083 47.7986C429.146 47.5184 429.217 47.2908 429.297 47.1158C429.421 46.8798 429.519 46.6479 429.59 46.4204C429.653 46.1401 429.597 45.9601 429.422 45.8802C429.3 45.7919 429.186 45.7562 429.081 45.7732C428.975 45.7901 428.901 45.8292 428.857 45.8903C428.857 45.8903 428.83 45.8946 428.778 45.903C426.85 47.3481 425.017 49.048 423.279 51.0027C421.541 52.9574 419.908 55.0573 418.379 57.3024C416.894 59.4864 415.501 61.7367 414.199 64.0532C412.95 66.3612 411.803 68.626 410.756 70.8474C410.552 71.2584 410.348 71.6694 410.144 72.0804C409.932 72.4388 409.689 72.775 409.416 73.0892C409.231 73.2811 409.033 73.394 408.822 73.428C408.559 73.4704 408.27 73.3548 407.956 73.0813C407.625 72.7025 407.447 72.2719 407.424 71.7895C407.648 69.1603 408.078 66.6331 408.714 64.2077C409.341 61.7298 410.073 59.2348 410.911 56.7229L413.274 50.2648C413.337 49.9846 413.404 49.7306 413.475 49.5031C413.547 49.2755 413.614 49.0216 413.677 48.7413C413.765 48.6191 413.722 48.518 413.547 48.4381L413.231 48.489C413.037 48.6283 412.848 48.7939 412.663 48.9857C412.522 49.1165 412.385 49.2736 412.253 49.457C409.713 52.1351 407.396 55.0205 405.301 58.113C403.259 61.1972 401.304 64.3212 399.437 67.4852C399.092 68.0269 398.774 68.5644 398.481 69.0977C398.242 69.6225 397.945 70.1295 397.592 70.6186C397.38 70.9769 397.071 71.4049 396.665 71.9025C396.311 72.3916 395.905 72.8892 395.446 73.3952C395.032 73.8402 394.561 74.2673 394.032 74.6765C393.548 75.0246 393.069 75.2369 392.595 75.3132C391.911 75.4235 391.293 75.2799 390.743 74.8824C389.79 74.3336 389.154 73.5717 388.835 72.5967C388.491 71.4638 388.387 70.319 388.525 69.1624C388.954 64.4475 390.294 59.8558 392.545 55.3875C392.669 55.1514 392.793 54.9154 392.917 54.6793C393.041 54.4432 393.226 54.2513 393.473 54.1036C393.605 53.9202 393.75 53.8157 393.908 53.7903C394.066 53.7648 394.32 53.832 394.67 53.9917C395.134 54.1871 395.29 54.486 395.139 54.8886L394.259 56.975C393.816 57.9108 393.323 59.0436 392.781 60.3734C392.292 61.6948 391.841 63.0908 391.43 64.5617C391.063 65.9713 390.779 67.3946 390.579 68.8315C390.369 70.2157 390.35 71.4344 390.519 72.4875C390.636 73.549 390.984 74.0332 391.564 73.9398C391.985 73.872 392.433 73.6376 392.909 73.2369C393.446 72.8803 393.913 72.4269 394.31 71.8766C395.51 70.6029 396.622 69.2894 397.646 67.9358C398.67 66.5823 399.629 65.1583 400.523 63.6638C401.249 62.4665 402.106 61.0857 403.097 59.5216C404.079 57.9048 405.118 56.3058 406.214 54.7247C407.362 53.1351 408.532 51.6772 409.722 50.3509C410.958 48.9634 412.164 47.9046 413.343 47.1744C413.44 47.1048 413.568 47.0573 413.725 47.0318C414.147 46.9639 414.479 47.1806 414.722 47.6816C414.964 48.1827 414.974 48.7483 414.752 49.3784C414.582 50 414.408 50.5953 414.229 51.1643C414.051 51.7333 413.872 52.3022 413.694 52.8712C412.785 55.6107 411.95 58.3111 411.191 60.9725C410.431 63.6339 409.737 66.3658 409.108 69.1682C409.072 69.282 409.041 69.4221 409.014 69.5886C408.978 69.7024 409.03 69.8561 409.169 70.0497ZM399.339 41.7328C399.426 41.9349 399.429 42.1235 399.349 42.2984C399.314 42.4122 399.252 42.5302 399.163 42.6525C398.888 43.2911 398.613 43.9297 398.338 44.5683C398.115 45.1984 397.892 45.8285 397.67 46.4586C397.323 47.3247 397.003 48.1867 396.709 49.0443C396.415 49.902 396.178 50.7776 395.998 51.6709C395.935 51.9512 395.798 52.1083 395.587 52.1422C395.587 52.1422 395.474 52.1065 395.246 52.0351C395.132 51.9994 395.045 51.9595 394.984 51.9153C394.975 51.8627 394.914 51.8185 394.8 51.7828C394.486 51.5093 394.29 51.2978 394.212 51.1484C394.178 50.9377 394.263 50.6269 394.467 50.2159C394.929 49.061 395.395 47.9325 395.866 46.8302C396.337 45.728 396.834 44.6215 397.357 43.5108C397.517 43.1609 397.654 42.8416 397.77 42.5529C397.93 42.2031 398.094 41.8795 398.262 41.5823C398.438 41.3378 398.61 41.2291 398.776 41.2563C399.101 41.258 399.288 41.4169 399.339 41.7328Z" fill="#F3E5B1"/>
</svg>
