<svg width="377" height="41" viewBox="0 0 377 41" fill="none" xmlns="http://www.w3.org/2000/svg">
<path d="M350.784 15.6539C350.784 15.6539 347.206 15.6539 344.97 15.6539M343.209 2.91333C343.209 5.20131 343.209 10.971 343.209 13.8963C343.209 14.869 343.997 15.6544 344.966 15.6544M333.217 2.91005C333.217 8.14181 333.217 32.9448 333.217 38.1766M334.978 39.9376C338.567 39.9376 350.891 39.9376 350.891 39.9376C351.727 39.9376 352.545 39.8565 353.348 39.6944C354.148 39.5323 354.914 39.2927 355.651 38.9685C357.121 38.3274 358.403 37.4617 359.494 36.3711C360.584 35.2806 361.45 33.9979 362.091 32.5279C362.736 31.0468 363.057 29.4812 363.057 27.8196C363.057 26.9943 362.972 26.1874 362.806 25.3989M362.81 25.399C362.644 24.6106 362.394 23.8479 362.062 23.1074C361.734 22.3742 361.347 21.6854 360.909 21.048C360.463 20.3995 359.962 19.7951 359.413 19.2461C358.86 18.6935 358.256 18.1926 357.6 17.7541M357.604 17.7542C356.955 17.3157 356.259 16.9362 355.518 16.6194M355.515 16.6196C354.774 16.3028 354.008 16.0596 353.212 15.8975C352.416 15.7354 351.606 15.6539 350.788 15.6539M367.714 39.8857C369.346 39.8857 372.614 39.8857 374.242 39.8857C375.215 39.8857 376 39.098 376 38.129C376 33.3172 376 11.9039 376 2.96565C376 1.99299 375.211 1.20793 374.242 1.20793M374.242 1.20384C372.337 1.20384 369.268 1.20384 367.714 1.20384C366.741 1.20384 365.956 1.99258 365.956 2.96156C365.956 8.18596 365.956 32.9042 365.956 38.1249C365.956 39.0976 366.745 39.8822 367.714 39.8822M29.5464 32.1044C28.5921 32.786 27.5829 33.3537 26.5218 33.8106C25.4718 34.2638 24.3847 34.6025 23.2536 34.8309C22.1262 35.0593 20.9732 35.1734 19.8052 35.1734C19.8052 35.1734 15.4946 35.1734 12.9855 35.1734C12.0129 35.1734 11.2278 35.9619 11.2278 36.9309M29.5427 32.1045C30.4749 31.434 31.3444 30.6603 32.1402 29.776M32.1401 29.7798C32.8548 28.9876 33.4885 28.1402 34.0449 27.2523M34.0449 27.2483C34.6123 26.3457 35.0987 25.3877 35.5076 24.3893M35.5116 24.3892C35.9169 23.4018 36.2227 22.396 36.429 21.3791M36.4253 21.38C36.6316 20.3521 36.7347 19.3242 36.7347 18.2962C36.7347 17.143 36.6242 16.0119 36.3995 14.9066C36.1784 13.8087 35.843 12.7433 35.3972 11.7117C34.955 10.6874 34.4284 9.72964 33.8242 8.83803C33.2163 7.93905 32.5271 7.11333 31.7607 6.35435C30.9944 5.59907 30.1617 4.91758 29.2627 4.31703M29.2666 4.31729C28.3639 3.71306 27.406 3.19357 26.3891 2.75145C25.3685 2.30933 24.3035 1.97798 23.1946 1.75323M23.1909 1.75333C22.0856 1.52859 20.9544 1.41805 19.8049 1.41805C19.8049 1.41805 6.49335 1.41805 2.93797 1.41805C1.9653 1.41805 1.18066 2.20596 1.18066 3.17494C1.18066 8.27407 1.18066 33.0807 1.18066 38.1799C1.18066 39.1525 1.96898 39.9372 2.93797 39.9372C4.52223 39.9372 7.87867 39.9372 9.46662 39.9372C10.4393 39.9372 11.2241 39.1487 11.2241 38.1797C11.2241 37.8076 11.2241 37.3655 11.2241 36.9344C11.2241 35.9618 12.0126 35.1775 12.9816 35.1775M52.113 15.6539C54.3494 15.6539 57.9269 15.6539 57.9269 15.6539C58.7448 15.6539 59.5555 15.7354 60.3513 15.8975C61.1508 16.0596 61.9172 16.3028 62.6577 16.6196M50.352 2.91333C50.352 5.20131 50.352 10.971 50.352 13.8963C50.352 14.869 51.1404 15.6544 52.1094 15.6544M42.121 1.15234C43.7384 1.15234 46.9733 1.15234 48.5944 1.15234C49.5634 1.15234 50.3517 1.93709 50.3517 2.90976M40.36 38.1766C40.36 32.9448 40.36 8.14181 40.36 2.91005C40.36 1.94107 41.1448 1.15234 42.1175 1.15234M68.0476 21.048C68.4861 21.6854 68.8733 22.3742 69.2012 23.1074C69.5328 23.8479 69.7829 24.6105 69.9487 25.3989C70.1145 26.1874 70.1992 26.9943 70.1992 27.8196C70.1992 29.4812 69.8751 31.0468 69.2303 32.5279C68.5893 33.9979 67.7234 35.2806 66.6328 36.3711C65.5423 37.4617 64.2602 38.3274 62.7902 38.9685C62.0533 39.2927 61.287 39.5323 60.4874 39.6944C59.6843 39.8565 58.8663 39.9376 58.03 39.9376C58.03 39.9376 45.7059 39.9376 42.1173 39.9376C41.1483 39.9376 40.36 39.153 40.36 38.1803M68.0515 21.0478C67.6057 20.3993 67.1083 19.7951 66.5556 19.2461C66.003 18.6935 65.399 18.1926 64.7431 17.7541C64.091 17.3157 63.3982 16.9362 62.6539 16.6194M83.1427 38.1253V2.96565C83.1427 1.99299 82.354 1.20793 81.385 1.20793M83.1387 38.128C83.1387 39.097 82.354 39.8855 81.3813 39.8855L74.8528 39.8857M73.0955 2.96565V38.1253C73.0955 39.098 73.884 39.8822 74.853 39.8822M73.0955 2.96128C73.0955 1.9923 73.8803 1.20384 74.853 1.20384H81.3815M99.1546 15.4953C102.036 15.4953 107.455 15.4953 107.455 15.4953C108.292 15.4953 109.11 15.5768 109.913 15.7389C110.713 15.901 111.479 16.1442 112.216 16.4647M97.3973 13.2699C97.3973 13.4247 97.3973 13.5794 97.3973 13.7341C97.3973 14.7068 98.1858 15.4917 99.1548 15.4917M116.766 9.75493C116.766 8.09329 116.766 4.72948 116.766 3.06784C116.766 2.09517 115.977 1.31094 115.008 1.31094C110.709 1.31094 93.4071 1.31094 89.1075 1.31094C88.1348 1.31094 87.3502 2.09886 87.3502 3.06784C87.3502 8.10433 87.3502 31.2862 87.3502 37.5385C87.3502 38.8354 88.4002 39.8863 89.6971 39.8863M89.6932 39.8861C94.3023 39.8861 107.562 39.8861 107.562 39.8861C108.384 39.8861 109.191 39.805 109.983 39.6429C110.771 39.4808 111.534 39.2412 112.271 38.917C113 38.6001 113.689 38.2206 114.334 37.7822C114.99 37.3364 115.591 36.8424 116.14 36.2935C116.692 35.7408 117.189 35.1372 117.632 34.4851M117.631 34.4812C118.07 33.8291 118.449 33.1364 118.766 32.3922M118.767 32.3954C119.411 30.8995 119.732 29.3226 119.732 27.6647C119.732 26.8246 119.647 26.003 119.481 25.2035M119.481 25.2C119.316 24.4042 119.065 23.6378 118.733 22.8973C118.406 22.1641 118.018 21.479 117.576 20.8379C117.134 20.1968 116.633 19.6034 116.077 19.0581M116.08 19.0582C115.528 18.5129 114.927 18.0229 114.279 17.5882C113.634 17.1571 112.949 16.7813 112.216 16.4608M150.938 39.8857H157.868C158.841 39.8857 159.626 39.0971 159.626 38.1281C159.626 37.9254 159.589 37.7229 159.522 37.5313L146.885 2.41953C146.635 1.72318 145.972 1.25536 145.231 1.25536M150.938 39.8825C150.197 39.8825 149.538 39.422 149.284 38.7256L148.643 36.9679C148.389 36.2716 147.729 35.8111 146.988 35.8111M146.992 35.807H133.883C133.143 35.807 132.483 36.2712 132.229 36.9639M132.229 36.9679L131.588 38.7254M131.592 38.7289C131.337 39.4216 130.678 39.8858 129.937 39.8858L123.003 39.8857C122.801 39.8857 122.598 39.8523 122.407 39.7823C121.493 39.4544 121.021 38.4449 121.349 37.5312L133.99 2.41953C134.241 1.7195 134.904 1.25536 135.644 1.25536H145.227M220.425 38.1244V3.01633C220.425 2.04366 219.636 1.25945 218.667 1.25945M220.421 38.128C220.421 39.097 219.636 39.8855 218.664 39.8855L212.135 39.8857M212.135 39.8822C211.166 39.8822 210.378 39.0976 210.378 38.125V33.8106C210.378 32.8379 209.589 32.0529 208.62 32.0529C207.942 32.0529 207.327 32.4434 207.032 33.0513L206.951 33.2214M206.951 33.2244C206.656 33.8323 206.041 34.2229 205.363 34.2229L199.973 34.2235M199.977 34.2196C199.303 34.2196 198.687 33.8363 198.393 33.2284L198.308 33.0552C197.884 32.182 196.834 31.8141 195.957 32.2378C195.349 32.5326 194.966 33.1478 194.966 33.8221V38.1245M194.966 38.128C194.966 39.097 194.181 39.8855 193.208 39.8855L186.68 39.8857M184.919 3.01633V38.1244C184.919 39.0971 185.707 39.8822 186.676 39.8822M184.922 3.01279C184.922 2.04381 185.707 1.25536 186.68 1.25536H192.984C193.658 1.25536 194.273 1.64222 194.568 2.25013L201.06 15.7055C201.484 16.5787 202.533 16.9478 203.407 16.5241C203.764 16.3509 204.055 16.0636 204.225 15.7062M204.229 15.7055L210.724 2.25031C211.019 1.64239 211.634 1.25536 212.308 1.25536H218.664M236.857 17.7721H250.964C251.933 17.7721 252.722 18.5571 252.722 19.5298V26.0585C252.722 27.0274 251.937 27.8156 250.964 27.8156H236.857C235.884 27.8156 235.1 28.604 235.1 29.573M236.857 17.7694C235.888 17.7694 235.1 16.9839 235.1 16.0112V13.1669C235.1 12.1979 235.884 11.41 236.857 11.41H255.039C256.012 11.41 256.796 10.6213 256.796 9.6523M235.1 29.5774V29.839L255.039 29.839M256.8 38.1245V31.5959C256.8 30.6232 256.012 29.839 255.043 29.839M226.813 39.8857H255.039C256.012 39.8857 256.796 39.097 256.796 38.128M225.052 3.01633V38.1244C225.052 39.0971 225.841 39.8822 226.81 39.8822M225.056 3.01279C225.056 2.04381 225.841 1.25536 226.814 1.25536H255.039M256.8 9.64814V3.01633C256.8 2.04366 256.012 1.25945 255.043 1.25945M290.527 38.1244C290.527 32.9111 290.527 8.23335 290.527 3.01633C290.527 2.04366 289.738 1.25945 288.769 1.25945M282.241 39.8857C283.873 39.8857 287.141 39.8857 288.769 39.8857C289.742 39.8857 290.526 39.097 290.526 38.128M278.667 30.7743C278.508 30.778 278.353 30.7817 278.199 30.7817C277.16 30.7817 276.128 30.6785 275.108 30.4759M275.107 30.4727C274.091 30.2701 273.081 29.9643 272.083 29.5553M272.083 29.5591C271.088 29.1538 270.137 28.6675 269.235 28.1001C268.339 27.5364 267.499 26.8985 266.715 26.1838M266.715 26.1803C265.831 25.3771 265.053 24.5039 264.375 23.5644M264.375 23.568C263.697 22.6285 263.126 21.6263 262.658 20.5689M262.662 20.5692C262.202 19.5155 261.851 18.4249 261.619 17.3012C261.387 16.1738 261.269 15.0236 261.269 13.8483C261.269 13.8483 261.269 5.83853 261.269 3.01633M269.559 1.25536C267.927 1.25536 264.659 1.25536 263.03 1.25536C262.058 1.25536 261.273 2.04381 261.273 3.01279M272.499 17.706C272.248 17.3339 272.031 16.9399 271.854 16.5273C271.677 16.1109 271.541 15.6794 271.449 15.2299C271.361 14.7915 271.317 14.3309 271.317 13.8483C271.317 13.8483 271.317 5.83853 271.317 3.01633C271.317 2.04366 270.528 1.25945 269.559 1.25945M272.503 17.7059C272.75 18.0743 273.026 18.4096 273.332 18.7154M273.336 18.7155C273.645 19.025 273.98 19.305 274.345 19.5482M274.341 19.5486C274.713 19.7991 275.107 20.0165 275.52 20.1971M275.52 20.1928C275.937 20.3734 276.368 20.5097 276.817 20.6018C277.256 20.6902 277.716 20.7351 278.199 20.7351C278.431 20.7351 278.66 20.724 278.884 20.7056C279.791 20.6208 280.479 19.8614 280.479 18.9551M280.483 18.9511C280.483 15.3847 280.483 6.05222 280.483 3.01633M288.769 1.25536C287.141 1.25536 283.869 1.25536 282.241 1.25536C281.268 1.25536 280.483 2.04381 280.483 3.01279M318.719 11.3029C321.151 11.3029 325.454 11.3029 327.374 11.3029C328.346 11.3029 329.131 10.5139 329.131 9.54497C329.131 7.9128 329.131 4.64481 329.131 3.01633C329.131 2.04366 328.343 1.25945 327.374 1.25945M316.958 13.0639C316.958 19.1431 316.958 38.8875 316.958 38.8875C316.958 39.1748 316.862 39.4143 316.675 39.6022M316.674 39.5988C316.486 39.7867 316.247 39.8825 315.96 39.8825M315.956 39.8857H307.965C307.269 39.8857 306.911 39.5502 306.911 38.8834C306.911 38.8834 306.911 19.139 306.911 13.0598M305.153 11.3029C302.733 11.3029 298.463 11.3029 296.55 11.3029C295.581 11.3029 294.793 10.5176 294.793 9.54497C294.793 7.91649 294.793 4.64481 294.793 3.01633M327.374 1.25536C322.569 1.25536 301.355 1.25536 296.55 1.25536C295.578 1.25536 294.793 2.04381 294.793 3.01279M97.3973 13.2737C97.3973 12.3047 98.182 11.5163 99.1546 11.5163C102.997 11.5163 112.031 11.5163 115.008 11.5163C115.981 11.5163 116.766 10.7284 116.766 9.7594M318.716 11.3029C317.743 11.3029 316.958 12.0914 316.958 13.0603M306.911 13.0636C306.911 12.0909 306.122 11.3062 305.153 11.3062M278.67 30.7743C278.689 30.7743 278.707 30.7743 278.726 30.7743C279.695 30.7743 280.483 31.5593 280.483 32.532C280.483 34.271 280.483 36.769 280.483 38.1248C280.483 39.0975 281.272 39.8822 282.241 39.8822M333.221 2.90976C333.221 1.94078 334.005 1.15234 334.978 1.15234C336.595 1.15234 339.83 1.15234 341.451 1.15234C342.42 1.15234 343.209 1.93709 343.209 2.90976M333.217 38.1803C333.217 39.153 334.006 39.9378 334.974 39.9378" stroke="#2D4086" stroke-width="1.1053" stroke-miterlimit="10" stroke-linecap="round" stroke-linejoin="round"/>
</svg>
