<svg width="39" height="108" viewBox="0 0 39 108" fill="none" xmlns="http://www.w3.org/2000/svg">
<path d="M31.4584 11.2034C31.3467 11.2034 31.2227 11.1661 31.1234 11.1041C30.9621 11.0049 30.8629 10.8436 30.838 10.6575C30.8256 10.583 30.0316 3.36221 36.967 0.347339C37.1407 0.272898 37.3268 0.272896 37.5005 0.359744C37.6618 0.446592 37.7859 0.595475 37.8231 0.781579C37.8355 0.85602 39.4236 8.51108 31.6569 11.1661C31.5949 11.191 31.5328 11.2034 31.4584 11.2034ZM36.7313 1.84857C32.5874 4.04459 32.0663 7.98998 32.0539 9.70214C36.6693 7.70463 36.8678 3.58554 36.7313 1.84857Z" fill="#B2B7C4"/>
<path d="M30.3385 18.722C29.346 18.722 28.2541 18.5732 27.0631 18.2134C26.8894 18.1637 26.7405 18.0273 26.6661 17.8536C26.5916 17.6799 26.604 17.4813 26.6909 17.3201C26.7281 17.2456 30.5246 10.4591 38.4526 12.1464C38.6387 12.1836 38.7876 12.3077 38.8744 12.469C38.9613 12.6303 38.9613 12.8288 38.8993 13.0025C38.8744 13.0521 36.3807 18.722 30.3385 18.722ZM28.2293 17.2332C33.6636 18.4491 36.4551 14.8139 37.398 13.2134C32.2492 12.4938 29.2839 15.7568 28.2293 17.2332Z" fill="#B2B7C4"/>
<path d="M27.0008 18.0023C26.8767 18.0023 26.765 17.965 26.6534 17.903C19.3085 13.0519 23.0182 5.54575 23.0554 5.47131C23.1422 5.31002 23.2911 5.18594 23.4772 5.14872C23.6509 5.1115 23.8494 5.14872 23.9983 5.26039C30.3755 10.248 27.6087 17.5308 27.5839 17.6052C27.5095 17.7789 27.373 17.9154 27.1993 17.965C27.1248 17.9899 27.0628 18.0023 27.0008 18.0023ZM23.8618 6.76162C23.2415 8.51099 22.2365 12.9775 26.6658 16.3645C27.1124 14.6152 27.708 10.248 23.8618 6.76162Z" fill="#B2B7C4"/>
<path d="M26.3941 28.2255C25.2402 28.2255 23.9871 28.0518 22.61 27.6424C22.4363 27.5927 22.2874 27.4563 22.2129 27.2826C22.1385 27.1089 22.1509 26.9104 22.2378 26.7491C22.275 26.6746 26.6918 18.7963 35.8729 20.7441C36.059 20.7814 36.2079 20.9054 36.2948 21.0667C36.3816 21.228 36.3816 21.4265 36.3196 21.6002C36.2824 21.6622 33.3916 28.2255 26.3941 28.2255ZM23.7638 26.6622C30.4511 28.2379 33.7886 23.6474 34.8183 21.8111C28.4908 20.8434 24.9301 24.9749 23.7638 26.6622Z" fill="#B2B7C4"/>
<path d="M22.497 27.3815C22.3729 27.3815 22.2612 27.3443 22.1496 27.2822C13.6384 21.6743 17.9436 12.9771 17.9809 12.8902C18.0677 12.729 18.2166 12.6049 18.4027 12.5677C18.5888 12.5304 18.7749 12.5677 18.9238 12.6793C26.3183 18.4734 23.1049 26.8976 23.0801 26.9845C23.0056 27.1582 22.8692 27.2947 22.6955 27.3443C22.621 27.3691 22.559 27.3815 22.497 27.3815ZM18.7873 14.1806C18.0429 16.1533 16.6657 21.6619 22.162 25.7686C22.6955 23.7835 23.5764 18.3989 18.7873 14.1806Z" fill="#B2B7C4"/>
<path d="M22.539 38.8199C21.2115 38.8199 19.7723 38.6214 18.1842 38.1376C18.0105 38.0879 17.8616 37.9515 17.7872 37.7778C17.7127 37.6041 17.7251 37.4056 17.812 37.2443C17.8616 37.1574 22.9236 28.1004 33.4943 30.346C33.6804 30.3833 33.8293 30.5073 33.9161 30.6686C34.003 30.8299 34.003 31.0284 33.9409 31.2021C33.9037 31.289 30.5911 38.8199 22.539 38.8199ZM19.338 37.1698C27.3901 39.1425 31.3107 33.4726 32.4521 31.413C24.9335 30.2096 20.6407 35.2964 19.338 37.1698Z" fill="#B2B7C4"/>
<path d="M18.0324 37.8414C17.9084 37.8414 17.7967 37.8041 17.6851 37.7421C7.90843 31.2905 12.8464 21.303 12.896 21.2037C12.9828 21.0424 13.1317 20.9184 13.3178 20.8811C13.5039 20.8439 13.69 20.8811 13.8389 20.9928C22.3376 27.6553 18.6528 37.3451 18.6156 37.4443C18.5411 37.618 18.4047 37.7545 18.231 37.8041C18.1565 37.8414 18.0945 37.8414 18.0324 37.8414ZM13.69 22.494C12.834 24.6901 11.0102 31.3402 17.6975 36.2409C18.3302 34.0324 19.5089 27.5312 13.69 22.494Z" fill="#B2B7C4"/>
<path d="M17.6113 51.5265C16.718 51.5265 15.7627 51.4521 14.7577 51.2784C14.5716 51.2536 14.4103 51.1419 14.3235 50.9682C14.2366 50.8069 14.2118 50.6084 14.2863 50.4347C14.3235 50.3355 18.4798 40.0254 30.0182 40.9559C30.2043 40.9683 30.3656 41.0675 30.4773 41.2164C30.5889 41.3653 30.6137 41.5638 30.5641 41.7375C30.5393 41.8616 27.6733 51.5265 17.6113 51.5265ZM15.7627 50.1742C24.7825 51.2412 28.2192 44.467 29.1125 42.1593C20.6758 41.8616 16.8545 48.0154 15.7627 50.1742Z" fill="#B2B7C4"/>
<path d="M14.458 50.9928C14.3587 50.9928 14.2719 50.968 14.185 50.9308C2.90715 45.4097 6.79051 34.1194 6.82773 34.0078C6.88976 33.8341 7.02624 33.6976 7.19993 33.6356C7.37363 33.5735 7.57214 33.5859 7.72103 33.6852C17.6714 39.6033 15.0783 50.4221 15.0535 50.5338C15.0039 50.7199 14.8798 50.8687 14.7185 50.9432C14.6441 50.968 14.5448 50.9928 14.458 50.9928ZM7.78306 35.174C7.17512 37.581 6.03369 45.0747 14.0113 49.4419C14.3835 47.0474 14.8302 39.8142 7.78306 35.174Z" fill="#B2B7C4"/>
<path d="M13.1296 67.1952C12.9559 67.1952 12.7947 67.1207 12.6706 66.9967C12.5465 66.8602 12.4845 66.6741 12.5093 66.488C12.5217 66.3639 14.42 53.957 27.3355 52.0091C27.5216 51.9843 27.7077 52.034 27.8442 52.158C27.9807 52.2821 28.0551 52.4558 28.0551 52.6419C28.0551 52.7784 27.2983 66.215 13.1669 67.1828C13.1545 67.1952 13.142 67.1952 13.1296 67.1952ZM26.74 53.3739C17.075 55.2225 14.482 63.2994 13.8865 65.88C24.4447 64.751 26.3926 56.0662 26.74 53.3739Z" fill="#B2B7C4"/>
<path d="M12.6221 66.9714C12.5724 66.9714 12.5352 66.9715 12.4856 66.959C-1.32328 63.8077 0.0290643 50.4207 0.0414712 50.2842C0.066285 50.0981 0.165542 49.9368 0.314424 49.8375C0.463307 49.7383 0.66182 49.7135 0.835516 49.7631C13.292 53.6961 13.2424 66.2394 13.23 66.3635C13.23 66.5496 13.1432 66.7233 12.9943 66.8474C12.895 66.9218 12.7585 66.9714 12.6221 66.9714ZM1.22013 51.1899C1.14569 53.907 1.72881 62.7779 11.9645 65.5447C11.7908 62.9144 10.4757 54.5273 1.22013 51.1899Z" fill="#B2B7C4"/>
<path d="M20.899 107.096C20.688 107.096 20.4771 106.984 20.3655 106.786C17.301 101.562 9.69553 78.4236 13.6037 53.9324C17.4002 30.1608 30.8121 10.4215 30.9485 10.2229C31.147 9.93759 31.5317 9.86315 31.817 10.0617C32.1024 10.2602 32.1768 10.6448 31.9783 10.9301C31.8418 11.1287 18.5913 30.6447 14.832 54.1309C10.9734 78.2871 18.43 101.041 21.4325 106.153C21.6061 106.451 21.5069 106.823 21.2091 106.997C21.1099 107.071 20.9982 107.096 20.899 107.096Z" fill="#B2B7C4"/>
</svg>
