<svg width="39" height="108" viewBox="0 0 39 108" fill="none" xmlns="http://www.w3.org/2000/svg">
<path d="M7.54156 11.2034C7.47952 11.2034 7.40508 11.191 7.34304 11.1662C-0.436079 8.51108 1.15202 0.85602 1.17683 0.781579C1.21405 0.595475 1.33812 0.446592 1.49941 0.359744C1.6607 0.272896 1.8592 0.272898 2.03289 0.347339C8.96835 3.36221 8.17431 10.583 8.1619 10.6575C8.13709 10.8436 8.03784 11.0049 7.87655 11.1041C7.77729 11.1661 7.65322 11.2034 7.54156 11.2034ZM2.28105 1.84857C2.14457 3.58554 2.33066 7.71703 6.95843 9.70214C6.94602 7.98998 6.42495 4.04459 2.28105 1.84857Z" fill="#B2B7C4"/>
<path d="M8.67604 18.7213C2.63388 18.7213 0.140105 13.0638 0.115291 12.9894C0.0408501 12.8157 0.0532434 12.6296 0.140092 12.4559C0.22694 12.2946 0.375837 12.1705 0.56194 12.1333C8.47754 10.446 12.2864 17.2449 12.3237 17.307C12.4105 17.4683 12.4229 17.6668 12.3485 17.8405C12.274 18.0142 12.1376 18.1506 11.9515 18.2003C10.748 18.5601 9.66859 18.7213 8.67604 18.7213ZM1.61651 13.2127C2.55944 14.8132 5.33858 18.4484 10.7852 17.2325C9.71821 15.7561 6.75297 12.4931 1.61651 13.2127Z" fill="#B2B7C4"/>
<path d="M12.0014 18.0029C11.9394 18.0029 11.8773 17.9905 11.8153 17.9781C11.6416 17.9161 11.4927 17.792 11.4307 17.6183C11.4059 17.5439 8.63913 10.2735 15.0163 5.27348C15.1652 5.16182 15.3513 5.11219 15.5374 5.16182C15.7235 5.19904 15.8723 5.3231 15.9592 5.48439C15.9964 5.55883 19.7061 13.065 12.3612 17.9161C12.2495 17.9657 12.1255 18.0029 12.0014 18.0029ZM15.1404 6.7623C11.2942 10.2486 11.8897 14.6159 12.3364 16.3652C16.778 12.9906 15.7731 8.51167 15.1404 6.7623Z" fill="#B2B7C4"/>
<path d="M12.6026 28.2259C5.60513 28.2259 2.71432 21.6751 2.6895 21.6006C2.61506 21.4269 2.62747 21.2408 2.71432 21.0671C2.80117 20.9058 2.95005 20.7818 3.13615 20.7445C12.3173 18.7967 16.7217 26.6626 16.7713 26.7495C16.8582 26.9108 16.8706 27.1093 16.7961 27.283C16.7217 27.4567 16.5852 27.5931 16.3991 27.6428C15.0095 28.0398 13.7565 28.2259 12.6026 28.2259ZM4.19074 21.8115C5.22052 23.6478 8.55797 28.2383 15.2453 26.6626C14.0666 24.9753 10.4934 20.8438 4.19074 21.8115Z" fill="#B2B7C4"/>
<path d="M16.5024 27.3832C16.4404 27.3832 16.3783 27.3707 16.3163 27.3583C16.1426 27.2963 15.9937 27.1722 15.9317 26.9985C15.8945 26.9117 12.6935 18.4874 20.088 12.6934C20.2369 12.5817 20.423 12.5321 20.6091 12.5817C20.7952 12.619 20.9441 12.743 21.0309 12.9043C21.0806 12.9912 25.3733 21.676 16.8622 27.2963C16.7382 27.3459 16.6265 27.3832 16.5024 27.3832ZM20.2121 14.1822C15.423 18.413 16.2915 23.7852 16.8374 25.7703C22.3461 21.6512 20.9565 16.1425 20.2121 14.1822Z" fill="#B2B7C4"/>
<path d="M16.4625 38.8209C8.42287 38.8209 5.09782 31.2899 5.0606 31.2031C4.98615 31.0294 4.99857 30.8433 5.08542 30.6696C5.17226 30.5083 5.32114 30.3842 5.50724 30.347C16.0779 28.1014 21.1399 37.1584 21.1896 37.2452C21.2764 37.4065 21.2888 37.605 21.2144 37.7787C21.1399 37.9524 21.0034 38.0889 20.8173 38.1385C19.2293 38.61 17.7901 38.8209 16.4625 38.8209ZM6.56184 31.414C7.69087 33.4736 11.6238 39.1559 19.6759 37.1708C18.3856 35.2726 14.1673 30.1981 6.56184 31.414Z" fill="#B2B7C4"/>
<path d="M20.9634 37.8411C20.9014 37.8411 20.8394 37.8287 20.7773 37.8163C20.6036 37.7542 20.4548 37.6302 20.3927 37.4565C20.3555 37.3572 16.6707 27.6674 25.1694 21.0049C25.3183 20.8933 25.5044 20.8436 25.6905 20.8933C25.8766 20.9305 26.0254 21.0546 26.1123 21.2158C26.1619 21.3151 31.0999 31.3026 21.3232 37.7542C21.2116 37.8163 21.0875 37.8411 20.9634 37.8411ZM25.3059 22.4937C19.487 27.5434 20.6657 34.0446 21.2984 36.2406C27.9857 31.3399 26.1619 24.6774 25.3059 22.4937Z" fill="#B2B7C4"/>
<path d="M21.3887 51.5254C11.3268 51.5254 8.47317 41.8604 8.43595 41.7488C8.38632 41.5751 8.42355 41.3765 8.5228 41.2277C8.63447 41.0788 8.79575 40.9795 8.98185 40.9671C20.5203 40.0242 24.6766 50.3467 24.7138 50.446C24.7758 50.6197 24.7634 50.8182 24.6766 50.9795C24.5897 51.1408 24.4284 51.2524 24.2423 51.2897C23.2374 51.4509 22.282 51.5254 21.3887 51.5254ZM9.88755 42.1582C10.7808 44.4659 14.2052 51.24 23.2374 50.173C22.158 48.0142 18.2994 41.8604 9.88755 42.1582Z" fill="#B2B7C4"/>
<path d="M24.5339 50.9925C24.4471 50.9925 24.3602 50.9677 24.2734 50.9305C24.0997 50.856 23.9756 50.6948 23.9384 50.5211C23.9136 50.4094 21.3081 39.5906 31.2709 33.6725C31.4321 33.5733 31.6182 33.5608 31.7919 33.6229C31.9656 33.6849 32.1021 33.8214 32.1642 33.9951C32.2014 34.1068 36.0847 45.397 24.8069 50.9181C24.72 50.9677 24.6208 50.9925 24.5339 50.9925ZM31.2088 35.1737C24.261 39.7643 24.6456 47.0471 24.993 49.4417C32.9582 45.0744 31.8292 37.5683 31.2088 35.1737Z" fill="#B2B7C4"/>
<path d="M25.8721 67.1941C25.8597 67.1941 25.8473 67.1941 25.8349 67.1941C11.7035 66.2264 10.9591 52.7897 10.9467 52.6532C10.9342 52.4671 11.0087 52.2934 11.1452 52.1694C11.2816 52.0453 11.4677 51.9833 11.6538 52.0205C24.5694 53.9684 26.4677 66.3629 26.4801 66.4993C26.5049 66.6854 26.4429 66.8715 26.3188 67.008C26.2071 67.1197 26.0458 67.1941 25.8721 67.1941ZM12.2618 53.3728C12.6092 56.0651 14.5695 64.7376 25.1153 65.879C24.5198 63.3108 21.9143 55.2215 12.2618 53.3728Z" fill="#B2B7C4"/>
<path d="M26.3899 66.9712C26.2534 66.9712 26.1169 66.9215 26.0053 66.8347C25.8564 66.723 25.7695 66.5493 25.7695 66.3508C25.7695 66.2267 25.7075 53.6834 38.164 49.7504C38.3377 49.7008 38.5362 49.7256 38.6851 49.8248C38.8464 49.9241 38.9457 50.0854 38.9581 50.2715C38.9705 50.408 40.3228 63.795 26.514 66.9464C26.4767 66.9588 26.4271 66.9712 26.3899 66.9712ZM37.7794 51.1896C28.5239 54.5147 27.2087 62.9017 27.035 65.5444C37.2955 62.7776 37.8539 53.9067 37.7794 51.1896Z" fill="#B2B7C4"/>
<path d="M18.101 107.096C17.9893 107.096 17.8901 107.071 17.7908 107.009C17.493 106.836 17.3938 106.451 17.5675 106.166C20.5699 101.042 28.0265 78.2998 24.1679 54.1436C20.4211 30.6574 7.15809 11.1289 7.02162 10.9428C6.82311 10.6575 6.89755 10.2729 7.18291 10.0744C7.46827 9.87584 7.85288 9.95029 8.05139 10.2356C8.18787 10.4342 21.5997 30.1735 25.3962 53.9451C29.3044 78.4363 21.699 101.575 18.6345 106.798C18.5228 106.997 18.3119 107.096 18.101 107.096Z" fill="#B2B7C4"/>
</svg>
