<svg width="546" height="184" viewBox="0 0 546 184" fill="none" xmlns="http://www.w3.org/2000/svg">
<path d="M32.3806 146.761L32.1436 146.799C31.8804 146.841 31.6825 146.954 31.55 147.138C31.409 147.268 31.2416 147.403 31.048 147.543C28.8719 149.46 26.6916 151.351 24.5071 153.215C22.3225 155.08 20.1117 156.949 17.8745 158.822C17.5398 159.092 16.9631 159.536 16.1444 160.154C15.3698 160.711 14.7718 161.023 14.3506 161.091C13.982 161.151 13.6101 161.021 13.2348 160.704C12.4145 159.972 12.0903 159.133 12.262 158.187C12.3333 157.959 12.4089 157.758 12.4888 157.583C12.5602 157.355 12.6315 157.128 12.7029 156.9C13.2806 155.456 14.1004 153.839 15.1622 152.047C16.2767 150.247 17.505 148.482 18.8471 146.753C20.2333 144.963 21.6756 143.354 23.1739 141.924C24.7248 140.485 26.2256 139.406 27.6762 138.686C27.8699 138.547 28.072 138.46 28.2826 138.426C28.4932 138.392 28.6775 138.363 28.8355 138.337C30.2045 138.117 31.4112 138.733 32.4555 140.185C32.6559 140.423 32.8079 140.695 32.9114 141.003C33.0676 141.302 33.2986 141.562 33.6043 141.783C33.9729 141.723 34.2718 141.567 34.5011 141.314C34.8884 141.035 35.2757 140.757 35.663 140.479C36.0503 140.2 36.4376 139.922 36.8249 139.643C37.4942 139.103 37.9538 138.435 38.2036 137.638C40.491 129.707 42.9618 121.908 45.6161 114.241C48.2619 106.522 51.1004 98.8258 54.1317 91.1525C54.8062 89.6393 55.4545 88.1303 56.0763 86.6255C56.7509 85.1123 57.4517 83.5948 58.1789 82.0731C58.3387 81.7232 58.5561 81.229 58.8314 80.5904C59.1593 79.9434 59.5135 79.2921 59.8941 78.6365C60.3273 77.9725 60.7733 77.3874 61.2319 76.8813C61.6906 76.3753 62.1042 76.0925 62.4728 76.0332C63.1573 75.9229 63.6948 76.2414 64.0854 76.9888C64.5286 77.7277 64.7926 78.3604 64.8774 78.887C65.1185 79.7125 65.2542 80.555 65.2846 81.4144C65.3592 82.2127 65.4118 83.0416 65.4422 83.901C65.4639 86.3825 65.376 88.8546 65.1786 91.3174C65.0253 93.719 64.85 96.1512 64.6526 98.6139C64.2697 102.943 63.8342 107.281 63.3461 111.627C62.8494 115.921 62.3265 120.219 61.7772 124.521C61.6514 125.082 61.591 125.713 61.596 126.414C61.5416 126.747 61.6987 126.884 62.0672 126.824C62.5938 126.74 62.9844 126.65 63.2392 126.555C64.2753 126.28 65.2546 125.987 66.1769 125.676C67.1519 125.357 68.1574 125.06 69.1935 124.785C70.019 124.544 70.8224 124.333 71.6038 124.153C72.3851 123.973 73.197 123.816 74.0395 123.68C75.4085 123.459 76.7597 123.296 78.093 123.189C79.479 123.074 80.8768 123.199 82.2865 123.567C82.514 123.638 82.7416 123.709 82.9692 123.781C83.1968 123.852 83.3802 123.985 83.5195 124.178C83.7198 124.416 83.8107 124.645 83.792 124.864C83.7648 125.03 83.6195 125.134 83.3562 125.177L83.1983 125.202C82.0162 124.907 80.8332 124.773 79.6494 124.802C78.5182 124.822 77.3734 124.925 76.215 125.112C73.8456 125.494 71.5279 126.029 69.262 126.719C66.9961 127.408 64.7651 128.145 62.5688 128.931C62.4193 129.01 62.2656 129.061 62.1076 129.087C62.0023 129.104 61.8749 129.151 61.7255 129.229C61.3212 129.403 61.074 129.713 60.9839 130.159L60.8615 130.908C60.2391 135.762 59.4681 140.532 58.5484 145.218C57.6288 149.904 56.6344 154.629 55.5653 159.393C55.1336 161.408 54.7019 163.422 54.2701 165.436C53.8384 167.451 53.4067 169.465 52.9749 171.479C52.8679 171.821 52.709 172.008 52.4984 172.042C52.3404 172.068 52.1392 171.992 51.8946 171.816C51.5108 171.445 51.2714 171.133 51.1763 170.878C51.0813 170.623 51.1272 170.238 51.3141 169.721L51.4747 169.209C52.4789 166.724 53.2861 164.19 53.8962 161.607C54.5064 159.024 55.0554 156.396 55.5433 153.725C56.1128 150.554 56.6033 147.396 57.0149 144.25C57.4706 141.043 57.9263 137.837 58.382 134.63C58.4551 134.078 58.5282 133.526 58.6014 132.974C58.7271 132.414 58.8266 131.857 58.8997 131.305C58.9643 130.701 58.786 130.432 58.3648 130.5C58.3122 130.509 58.2637 130.543 58.2196 130.605C58.2196 130.605 58.1669 130.613 58.0616 130.63C55.5222 131.633 53.0525 132.734 50.6523 133.931C48.2437 135.075 45.869 136.43 43.5282 137.996C43.0883 138.283 42.6526 138.596 42.2211 138.936C41.8338 139.214 41.3939 139.501 40.9013 139.797C39.9245 140.44 39.2662 141.384 38.9263 142.627C37.7112 146.82 36.4919 150.987 35.2683 155.128C34.0448 159.269 32.7949 163.413 31.5187 167.563C31.3929 168.123 31.1881 168.696 30.9044 169.282C30.8772 169.449 30.7583 169.549 30.5477 169.583C30.3897 169.608 30.219 169.555 30.0356 169.422C29.6688 169.157 29.3724 168.827 29.1466 168.431C28.9819 168.079 28.9667 167.65 29.1009 167.142C29.1928 166.371 29.3509 165.508 29.5752 164.553C29.9441 162.819 30.3129 161.085 30.6818 159.351C31.0506 157.617 31.3931 155.887 31.7093 154.162C31.9779 153.146 32.1674 152.143 32.278 151.153C32.38 150.11 32.4821 149.067 32.5842 148.024C32.6029 147.805 32.5953 147.59 32.5614 147.38C32.5801 147.161 32.5198 146.954 32.3806 146.761ZM63.8098 79.3021L63.7462 78.9072C63.6953 78.5913 63.5382 78.4545 63.275 78.4969C63.1696 78.5139 63.0949 78.5529 63.0507 78.6141C62.2302 79.5566 61.3018 81.0027 60.2654 82.9524C59.2732 84.841 58.2444 87.0055 57.1791 89.4461C56.1137 91.8866 55.0433 94.463 53.9677 97.1753C52.9448 99.8791 51.966 102.522 51.0314 105.103C50.141 107.624 49.3305 109.969 48.5998 112.14C47.8691 114.31 47.2854 116.052 46.8487 117.365C45.9039 120.218 44.9854 123.067 44.0932 125.912C43.1926 128.704 42.2962 131.523 41.404 134.367C41.3411 134.648 41.2519 134.932 41.1364 135.221C41.065 135.448 40.9979 135.702 40.935 135.983C40.952 136.088 40.9953 136.189 41.0649 136.286C41.1345 136.383 41.222 136.423 41.3273 136.406L41.9999 136.054C43.1261 135.332 44.3576 134.594 45.6945 133.838C47.084 133.074 48.5082 132.358 49.9673 131.691C51.4706 130.963 52.9603 130.318 54.4364 129.756C55.9039 129.141 57.2789 128.622 58.5614 128.2C59.0794 128.062 59.4149 127.63 59.5679 126.903C59.5781 126.631 59.5969 126.412 59.6241 126.246C59.6428 126.027 59.6615 125.807 59.6802 125.588C60.5644 119.342 61.3654 113.081 62.0832 106.807C62.8009 100.533 63.3523 94.2317 63.7371 87.9032C63.9278 85.0634 63.9521 82.1963 63.8098 79.3021ZM32.3252 142.394C32.1046 141.025 31.3625 140.442 30.0988 140.646C28.8351 140.849 27.494 141.579 26.0756 142.834C24.6572 144.089 23.2684 145.528 21.9094 147.151C20.603 148.766 19.4062 150.391 18.3189 152.025C17.2316 153.658 16.3915 154.982 15.7985 155.996C15.666 156.179 15.5641 156.385 15.4927 156.613C15.3772 156.901 15.4026 157.059 15.5691 157.086C15.6913 157.175 15.7967 157.158 15.885 157.036C16.2638 156.704 16.6732 156.395 17.1131 156.108C17.5446 155.769 17.9761 155.429 18.4075 155.089C20.5836 153.172 22.7639 151.281 24.9484 149.417C27.133 147.552 29.3396 145.657 31.5683 143.731L32.004 143.418C32.2775 143.104 32.3846 142.762 32.3252 142.394ZM34.3012 149.125C34.2842 149.02 34.2842 149.02 34.3012 149.125C34.3097 149.178 34.3708 149.222 34.4846 149.258C34.6425 149.232 34.713 149.167 34.6961 149.062C35.2399 147.407 35.7267 145.735 36.1567 144.045C36.2026 143.66 36.1067 143.567 35.8689 143.768C34.7359 144.112 34.1923 144.929 34.2379 146.218C34.2005 146.656 34.1936 147.117 34.2173 147.599C34.2852 148.02 34.3132 148.529 34.3012 149.125ZM86.9149 141.782C86.6926 140.738 86.6061 139.698 86.6555 138.664C86.6965 137.577 86.7637 136.486 86.8573 135.39C87.5057 127.344 88.9032 119.421 91.0496 111.62C93.2487 103.811 95.745 96.1702 98.5385 88.6973C98.6982 88.3474 98.8664 88.0502 99.0431 87.8057C99.1314 87.6834 99.2282 87.6138 99.3335 87.5968C99.4388 87.5798 99.5221 87.5934 99.5832 87.6376C99.9857 87.7888 100.296 88.036 100.513 88.3791C100.739 88.7749 100.798 89.1435 100.691 89.4849C99.2435 92.9054 97.8867 96.5544 96.6207 100.432C95.3547 104.309 94.211 108.275 93.1896 112.329C92.1681 116.383 91.2826 120.442 90.5329 124.507C89.8359 128.563 89.3019 132.457 88.9311 136.19C88.8103 137.452 88.72 138.736 88.6604 140.042C88.6534 141.34 88.7254 142.625 88.8763 143.897C88.8831 144.274 88.9161 144.647 88.9755 145.016C89.0791 145.323 89.1911 145.683 89.3116 146.096C89.4933 146.553 89.7421 146.756 90.058 146.705C90.6899 146.603 91.4339 146.024 92.2901 144.968C93.1378 143.859 93.9949 142.64 94.8613 141.312C95.7193 139.931 96.4762 138.594 97.132 137.3C97.8405 135.997 98.3408 135.079 98.633 134.546C99.7578 132.474 100.852 130.38 101.915 128.264C103.032 126.139 104.152 124.041 105.277 121.969C105.445 121.672 105.613 121.375 105.782 121.077C105.95 120.78 106.118 120.483 106.286 120.186C106.549 120.143 106.702 120.254 106.745 120.517C106.717 120.684 106.624 120.942 106.464 121.292C104.913 124.405 103.358 127.491 101.798 130.552C100.238 133.612 98.6828 136.699 97.1316 139.812C96.892 140.337 96.5862 140.953 96.2141 141.661C95.8335 142.317 95.4267 142.977 94.9934 143.641C94.5602 144.305 94.0964 144.947 93.6021 145.567C93.1604 146.178 92.728 146.68 92.305 147.072C91.9789 147.395 91.5262 147.603 90.947 147.696C90.2625 147.806 89.6715 147.659 89.1739 147.253C88.7289 146.838 88.3502 146.332 88.0378 145.734C87.7169 145.083 87.4707 144.394 87.2993 143.665C87.1279 142.936 86.9998 142.309 86.9149 141.782ZM109.152 132.446C109.221 132.543 109.299 132.855 109.383 133.381C109.616 134.154 109.889 134.677 110.203 134.951C110.57 135.216 111.157 135.337 111.964 135.315C113.491 135.069 114.712 134.602 115.628 133.915C116.587 133.166 117.544 132.228 118.497 131.102C121.436 127.55 124.152 123.79 126.646 119.822C126.726 119.647 126.832 119.468 126.965 119.285C127.097 119.101 127.204 118.922 127.283 118.747C127.416 118.564 127.509 118.468 127.561 118.459C127.614 118.451 127.701 118.491 127.824 118.579C128.015 118.764 128.054 119.001 127.938 119.29C127.415 120.401 126.622 121.852 125.56 123.644C124.49 125.383 123.319 127.165 122.046 128.991C120.818 130.755 119.516 132.397 118.14 133.915C116.808 135.372 115.566 136.382 114.415 136.946C114.221 137.085 114.019 137.172 113.808 137.206C113.598 137.24 113.387 137.274 113.176 137.308C112.071 137.486 111.077 137.187 110.196 136.41C108.956 135.422 108.13 134.15 107.717 132.596C107.468 131.718 107.301 130.853 107.218 130.003C107.179 129.09 107.167 128.174 107.181 127.254C107.378 124.791 107.842 122.474 108.573 120.304C109.356 118.125 110.459 116.083 111.881 114.179C112.049 113.882 112.296 113.572 112.622 113.25C112.94 112.874 113.288 112.521 113.667 112.19C114.046 111.859 114.433 111.58 114.829 111.354C115.216 111.076 115.568 110.911 115.884 110.86C116.673 110.733 117.343 111.03 117.891 111.752C118.492 112.466 118.874 113.161 119.037 113.837C119.148 114.521 119.136 115.117 119.001 115.625C118.857 116.405 118.62 117.28 118.29 118.252C117.952 119.17 117.526 120.049 117.013 120.888C116.5 121.727 115.865 122.478 115.107 123.14C114.394 123.741 113.589 124.114 112.694 124.258C112.01 124.369 111.336 124.207 110.671 123.774C110.427 123.597 110.252 123.517 110.147 123.534C109.989 123.56 109.86 123.77 109.762 124.164C109.378 125.468 109.134 126.804 109.03 128.171C108.979 129.53 109.019 130.955 109.152 132.446ZM111.714 123.201C112.451 123.082 113.198 122.692 113.956 122.029C114.758 121.306 115.463 120.49 116.073 119.581C116.736 118.664 117.228 117.694 117.549 116.669C117.923 115.637 118.046 114.726 117.919 113.936C117.931 113.34 117.673 113.084 117.147 113.169L116.989 113.194C116.313 113.357 115.622 113.766 114.917 114.419C114.265 115.065 113.656 115.811 113.09 116.658C112.569 117.445 112.082 118.28 111.63 119.163C111.222 119.985 110.903 120.684 110.672 121.262C110.584 121.384 110.526 121.528 110.499 121.695C110.524 121.853 110.519 121.989 110.483 122.103C110.41 122.655 110.627 122.998 111.135 123.132C111.363 123.203 111.556 123.226 111.714 123.201ZM137.662 118.696C138.004 118.803 138.28 118.839 138.49 118.805C138.596 118.788 138.701 118.771 138.806 118.754C138.903 118.685 139.004 118.642 139.109 118.625C139.874 118.339 140.77 118.033 141.797 117.705C142.817 117.325 143.866 116.967 144.947 116.631C146.071 116.233 147.151 115.897 148.187 115.622C149.276 115.339 150.216 115.133 151.005 115.006C151.269 114.964 151.536 114.948 151.808 114.958C152.071 114.915 152.339 114.899 152.61 114.91C152.716 114.893 152.777 114.937 152.794 115.042C152.855 115.086 152.916 115.13 152.977 115.175C152.889 115.297 152.792 115.367 152.687 115.383C150.088 116.018 147.533 116.754 145.02 117.591C142.5 118.375 139.992 119.239 137.497 120.181C137.04 120.363 136.591 120.597 136.151 120.884C135.764 121.162 135.416 121.516 135.106 121.944C134.7 122.441 134.294 122.939 133.888 123.436C133.474 123.881 133.033 124.33 132.566 124.784C131.949 125.315 131.599 125.993 131.516 126.817C131.332 128.359 131.149 129.901 130.965 131.443C130.773 132.933 130.585 134.449 130.401 135.991C130.042 139.128 129.679 142.239 129.312 145.323C128.997 148.399 128.739 151.493 128.538 154.604C128.509 155.095 128.507 155.582 128.53 156.064C128.502 156.555 128.473 157.046 128.444 157.537C128.416 157.703 128.385 157.843 128.349 157.957C128.322 158.124 128.177 158.228 127.914 158.27C127.65 158.313 127.427 158.268 127.244 158.135C127.007 158.011 126.872 157.844 126.839 157.633C126.796 157.37 126.784 157.129 126.803 156.91C126.769 156.699 126.735 156.488 126.701 156.278C126.715 152.008 126.918 147.735 127.31 143.458C127.648 139.19 128.096 134.931 128.654 130.681C128.717 130.401 128.762 130.178 128.789 130.011C128.808 129.792 128.823 129.547 128.833 129.275C128.897 128.67 128.772 128.393 128.456 128.444C128.298 128.47 128.092 128.53 127.837 128.625C127.635 128.712 127.459 128.794 127.309 128.872C126.844 129.001 126.454 128.929 126.14 128.655C125.817 128.329 125.67 127.921 125.699 127.43C125.71 127.158 125.781 126.931 125.914 126.747C125.993 126.572 126.1 126.393 126.232 126.21C126.789 125.31 127.442 124.664 128.189 124.274C128.831 123.9 129.272 123.451 129.512 122.926C129.751 122.401 129.921 121.78 130.021 121.061C130.829 116.015 131.789 111.08 132.903 106.254C134.06 101.368 135.437 96.5004 137.032 91.6515C137.54 90.1111 138.053 88.597 138.569 87.1092C139.13 85.5603 139.669 84.0419 140.185 82.5541C140.248 82.2739 140.346 82.0421 140.478 81.8586C140.602 81.6226 140.726 81.3865 140.85 81.1504C140.93 80.9755 141.076 80.8711 141.286 80.8371C141.391 80.8202 141.475 80.8338 141.536 80.8779C142.044 81.0122 142.423 81.3562 142.675 81.9099C142.761 82.1121 142.725 82.3881 142.565 82.7379C142.014 84.0151 141.521 85.3101 141.084 86.623C140.691 87.8747 140.277 89.157 139.84 90.4698C138.227 95.2134 136.838 100.002 135.672 104.836C134.551 109.608 133.547 114.443 132.661 119.339C132.651 119.611 132.583 120.027 132.457 120.588C132.474 120.693 132.465 120.803 132.429 120.916C132.446 121.022 132.538 121.088 132.704 121.115L133.336 121.013C134.138 120.29 134.976 119.291 135.851 118.015C136.779 116.731 137.689 115.342 138.583 113.848C139.477 112.353 140.291 110.871 141.027 109.402C141.815 107.925 142.471 106.63 142.994 105.52C143.083 105.397 143.167 105.249 143.247 105.074C143.326 104.899 143.411 104.75 143.499 104.628C143.49 104.575 143.539 104.541 143.644 104.524C143.802 104.498 143.942 104.53 144.064 104.618C144.318 104.847 144.43 105.207 144.401 105.698C144.132 106.714 143.794 107.633 143.386 108.455C142.712 109.968 141.954 111.468 141.113 112.954C140.272 114.44 139.422 115.873 138.564 117.254C138.388 117.498 138.237 117.739 138.113 117.975C137.981 118.158 137.831 118.398 137.662 118.696ZM129.3 125.634C129.143 125.335 129.017 125.221 128.92 125.29C128.524 125.516 128.168 125.817 127.85 126.192C127.576 126.506 127.307 126.847 127.042 127.214L127.093 127.529C127.154 127.574 127.264 127.583 127.422 127.558C128.028 127.298 128.605 126.854 129.152 126.225C129.187 126.112 129.201 126.028 129.193 125.976C129.228 125.862 129.264 125.748 129.3 125.634ZM153.308 155.718C153.087 154.349 153.268 152.619 153.849 150.526C154.43 148.434 155.165 146.289 156.054 144.093C156.995 141.889 157.984 139.812 159.02 137.862C160.109 135.904 160.994 134.357 161.676 133.221L162.471 132.12C162.78 131.692 162.725 131.35 162.305 131.093C161.913 130.671 161.494 130.252 161.049 129.837C160.657 129.414 160.265 128.991 159.873 128.568C159.375 128.162 158.877 127.756 158.38 127.35C157.926 126.883 157.473 126.416 157.02 125.949C156.243 125.155 155.595 124.315 155.073 123.426C154.596 122.477 154.321 121.441 154.248 120.318C154.036 119.002 154.242 117.429 154.866 115.6C155.489 113.77 156.363 111.982 157.486 110.235C158.609 108.487 159.871 106.933 161.272 105.573C162.726 104.204 164.121 103.304 165.456 102.873C165.606 102.795 165.838 102.73 166.154 102.679C166.997 102.544 167.702 102.727 168.269 103.23C168.836 103.733 169.086 104.449 169.02 105.378L169.045 105.536C168.785 106.604 168.491 107.624 168.161 108.596C167.831 109.567 167.361 110.507 166.752 111.416C166.68 111.643 166.557 111.717 166.382 111.637C166.085 111.469 166.003 111.293 166.135 111.11C166.286 110.707 166.442 110.331 166.601 109.981C166.814 109.623 167.022 109.238 167.226 108.827C167.421 108.364 167.617 107.9 167.812 107.436C167.999 106.92 168.103 106.39 168.123 105.847C168.186 105.566 168.218 105.264 168.22 104.94C168.222 104.615 168.074 104.369 167.777 104.201C167.655 104.112 167.488 104.085 167.278 104.119C167.067 104.153 166.865 104.24 166.671 104.379C166.522 104.457 166.372 104.535 166.223 104.613C165.035 105.291 163.838 106.24 162.63 107.461C161.475 108.673 160.394 110.009 159.386 111.468C158.379 112.927 157.546 114.465 156.889 116.084C156.223 117.65 155.842 119.143 155.747 120.563C155.677 122.141 156.165 123.494 157.211 124.621C157.359 124.868 157.528 125.084 157.72 125.269C157.965 125.445 158.183 125.626 158.375 125.811C159.134 126.499 159.893 127.187 160.652 127.875C161.411 128.563 162.153 129.308 162.876 130.11C163.068 130.295 163.243 130.375 163.401 130.35C163.559 130.324 163.726 130.189 163.903 129.945C164.441 129.264 164.954 128.587 165.439 127.914C165.969 127.181 166.504 126.473 167.042 125.792C167.669 124.989 168.3 124.212 168.936 123.462C169.562 122.658 170.22 121.877 170.908 121.118C171.049 120.987 171.164 120.861 171.252 120.738C171.393 120.608 171.591 120.495 171.846 120.4C171.898 120.391 171.986 120.431 172.108 120.519L172.133 120.677C171.868 121.044 171.665 121.293 171.524 121.424C170.193 122.881 168.948 124.378 167.791 125.915C166.679 127.391 165.552 128.95 164.412 130.592C163.998 131.037 163.969 131.528 164.325 132.064C164.674 132.549 164.969 133.041 165.212 133.542C165.499 133.982 165.737 134.457 165.927 134.967C166.489 136.443 166.832 137.9 166.956 139.339C167.08 140.777 167.046 142.241 166.853 143.731C166.716 144.888 166.349 146.297 165.752 147.96C165.208 149.614 164.468 151.219 163.53 152.775C162.653 154.375 161.633 155.754 160.469 156.914C159.314 158.127 158.105 158.835 156.841 159.039C155.525 159.251 154.519 158.71 153.825 157.418C153.677 157.171 153.578 156.89 153.527 156.574C153.423 156.267 153.35 155.982 153.308 155.718ZM165.257 137.344C165.045 136.027 164.688 134.815 164.185 133.708C164.046 133.514 163.933 133.316 163.846 133.114C163.751 132.859 163.564 132.7 163.283 132.638C163.012 132.627 162.814 132.74 162.69 132.976C162.618 133.204 162.516 133.409 162.384 133.593C160.756 136.232 159.255 138.986 157.881 141.854C156.559 144.714 155.495 147.668 154.689 150.715C154.545 151.494 154.4 152.274 154.256 153.054C154.112 153.833 154.05 154.626 154.072 155.433C154.07 155.757 154.095 156.078 154.146 156.394C154.205 156.762 154.313 157.096 154.469 157.395C154.642 157.799 154.839 158.011 155.058 158.029C155.285 158.101 155.583 158.107 155.952 158.047C156.426 157.971 156.905 157.759 157.389 157.411C157.873 157.063 158.345 156.635 158.803 156.129C159.323 155.667 159.755 155.166 160.1 154.624C160.506 154.126 160.842 153.694 161.107 153.327C161.797 152.244 162.439 151.033 163.033 149.695C163.637 148.409 164.122 147.061 164.489 145.652C164.917 144.286 165.205 142.889 165.353 141.461C165.501 140.032 165.469 138.66 165.257 137.344ZM185.931 107.434C186.194 107.392 186.366 107.283 186.446 107.108C186.57 106.872 186.668 106.64 186.739 106.412C187.332 105.399 187.898 104.389 188.439 103.383C189.032 102.37 189.625 101.356 190.218 100.342C190.386 100.045 190.536 99.8043 190.669 99.6208C190.845 99.3763 191.022 99.1317 191.199 98.8872C191.436 98.6868 191.661 98.5696 191.871 98.5357C191.977 98.5187 192.196 98.5375 192.529 98.5919L193.354 99.1882C193.677 99.5143 193.793 99.9007 193.703 100.347C193.587 100.636 193.445 100.929 193.277 101.226C193.162 101.515 193.046 101.804 192.931 102.092C192.132 103.842 191.288 105.814 190.4 108.01C189.511 110.206 188.688 112.473 187.93 114.81C187.225 117.138 186.629 119.476 186.143 121.823C185.648 124.118 185.369 126.243 185.306 128.198C185.277 128.689 185.279 129.202 185.311 129.737C185.335 130.219 185.332 130.706 185.303 131.196C185.351 132.161 185.604 133.066 186.065 133.91C186.307 134.411 186.639 134.628 187.061 134.56C187.429 134.5 187.772 134.283 188.09 133.908C188.46 133.524 188.73 133.183 188.898 132.886C189.367 132.108 189.827 131.278 190.279 130.395C190.962 128.934 191.562 127.46 192.078 125.972C192.648 124.476 193.186 122.957 193.694 121.417C194.219 119.982 194.744 118.547 195.27 117.112C195.795 115.677 196.315 114.215 196.832 112.727C196.903 112.5 196.971 112.246 197.033 111.966C197.096 111.685 197.316 111.542 197.693 111.535C197.894 111.773 197.932 112.01 197.808 112.246C197.675 112.429 197.573 112.635 197.502 112.862C196.887 114.744 196.276 116.652 195.669 118.587C195.107 120.46 194.518 122.338 193.903 124.22C193.529 125.252 193.159 126.311 192.794 127.396C192.42 128.429 191.99 129.444 191.502 130.441C191.174 131.088 190.78 131.827 190.319 132.657C189.859 133.488 189.312 134.116 188.678 134.542C188.186 134.838 187.808 135.006 187.545 135.049C186.649 135.193 185.915 134.825 185.341 133.945C184.837 133.162 184.548 132.209 184.475 131.087C184.263 129.77 184.218 128.319 184.341 126.733C184.455 125.094 184.674 123.438 184.999 121.765C185.324 120.092 185.679 118.441 186.065 116.812C186.503 115.175 186.91 113.678 187.286 112.321C187.357 112.093 187.456 111.699 187.581 111.139C187.52 111.094 187.437 111.081 187.332 111.098C187.227 111.115 187.156 111.18 187.12 111.294C187.076 111.355 187.01 111.447 186.922 111.569C186.31 112.802 185.698 114.035 185.087 115.268C184.519 116.44 183.925 117.616 183.305 118.796C182.524 120.651 181.717 122.348 180.884 123.886C180.663 124.192 180.473 124.52 180.313 124.87C180.153 125.219 179.963 125.547 179.742 125.853C179.256 126.525 178.619 126.925 177.829 127.053C176.723 127.231 175.865 126.937 175.256 126.171C174.69 125.343 174.335 124.482 174.191 123.587C174.037 122.964 173.939 122.358 173.899 121.771C173.902 121.122 173.91 120.499 173.922 119.903C173.973 118.544 174.073 117.151 174.221 115.722C174.421 114.285 174.736 112.884 175.164 111.519C175.592 110.153 176.169 108.872 176.894 107.675C177.672 106.469 178.638 105.422 179.792 104.534C180.179 104.255 180.662 104.069 181.241 103.976C182.136 103.832 183.004 104.016 183.843 104.529C184.673 104.99 185.205 105.606 185.437 106.379C185.515 106.529 185.571 106.709 185.605 106.919C185.639 107.13 185.748 107.301 185.931 107.434ZM176.365 122.994C176.432 123.415 176.488 123.757 176.53 124.021C176.625 124.275 176.694 124.534 176.736 124.798C176.77 125.008 176.892 125.097 177.103 125.063C177.156 125.054 177.208 125.046 177.261 125.037C177.305 124.976 177.354 124.941 177.406 124.933C177.892 124.26 178.335 123.487 178.734 122.612C179.594 120.907 180.427 119.206 181.234 117.509C182.033 115.76 182.888 114.029 183.8 112.315C184.128 111.668 184.325 111.042 184.389 110.437C184.498 109.772 184.497 109.097 184.387 108.412C184.353 108.201 184.28 107.916 184.168 107.556C184.109 107.187 183.997 106.827 183.832 106.476C183.72 106.116 183.564 105.817 183.363 105.579C183.216 105.332 183.01 105.231 182.747 105.273C182.378 105.332 181.983 105.558 181.56 105.95C181.128 106.29 180.709 106.709 180.303 107.206C179.897 107.704 179.522 108.224 179.177 108.765C178.876 109.246 178.668 109.631 178.553 109.919C177.542 112.027 176.89 114.185 176.597 116.393C176.305 118.601 176.227 120.801 176.365 122.994ZM225.268 105.958C225.321 105.949 225.352 105.971 225.36 106.024C225.413 106.015 225.492 106.003 225.597 105.986C225.553 106.047 225.535 106.104 225.544 106.156C225.552 106.209 225.534 106.266 225.49 106.327C225.49 106.327 225.424 106.419 225.291 106.602C224.462 107.492 223.603 108.36 222.713 109.206C221.875 110.043 220.981 110.862 220.029 111.664C219.651 111.995 219.312 112.238 219.013 112.395C218.705 112.498 218.315 112.588 217.841 112.665C217.727 112.629 217.609 112.567 217.487 112.478C217.373 112.443 217.303 112.346 217.278 112.188C217.077 111.95 216.956 111.7 216.914 111.436C216.837 110.962 216.787 110.484 216.764 110.002C216.792 109.511 216.821 109.02 216.85 108.529C217.075 105.9 217.47 103.325 218.036 100.802C218.655 98.2717 219.326 95.7326 220.05 93.185C220.149 92.791 220.221 92.4012 220.267 92.0157C220.357 91.569 220.394 91.1308 220.379 90.7011C220.362 90.5957 220.293 90.4989 220.17 90.4106C220.048 90.3222 219.939 90.3129 219.842 90.3825C219.41 90.7221 219.027 91.0269 218.693 91.2969C218.411 91.5585 218.119 91.9295 217.819 92.4102C217.164 93.3799 216.567 94.3675 216.027 95.3729C215.531 96.3171 215.013 97.292 214.472 98.2974C213.037 101.122 211.684 103.96 210.415 106.811C209.19 109.602 207.947 112.449 206.686 115.353C206.34 116.219 205.967 117.09 205.568 117.964C205.221 118.831 204.817 119.679 204.357 120.509C204.197 120.859 204.033 121.183 203.865 121.48C203.688 121.725 203.49 122 203.269 122.305C202.951 122.681 202.608 122.898 202.239 122.957C201.818 123.025 201.394 122.905 200.966 122.595C200.066 122.038 199.457 121.11 199.139 119.81C198.936 118.547 198.931 117.008 199.125 115.194C199.319 113.38 199.614 111.523 200.01 109.622C200.45 107.661 200.903 105.778 201.369 103.974C201.887 102.162 202.373 100.652 202.827 99.4446C202.934 99.1032 203.103 98.6438 203.334 98.0663C203.618 97.4804 203.97 97.1535 204.391 97.0856C204.549 97.0602 204.685 97.0653 204.799 97.101C205.438 97.3762 205.698 97.8204 205.581 98.4336C205.402 99.0025 205.193 99.5494 204.954 100.074C204.045 102.814 203.272 105.558 202.634 108.308C201.997 111.058 201.53 113.861 201.234 116.718C201.161 117.27 201.088 117.822 201.015 118.374C200.986 118.865 201.044 119.395 201.19 119.966C201.207 120.071 201.277 120.168 201.399 120.257L201.715 120.206C201.883 119.909 202.056 119.638 202.232 119.393C202.409 119.149 202.582 118.878 202.75 118.58C203.343 117.567 203.913 116.583 204.462 115.63C205.055 114.617 205.618 113.581 206.149 112.523L211.494 101.938C211.866 101.229 212.362 100.285 212.982 99.1048C213.594 97.8718 214.236 96.6609 214.909 95.4721C215.626 94.2221 216.359 93.0774 217.11 92.0381C217.914 90.9902 218.628 90.2269 219.253 89.748C219.394 89.6173 219.57 89.5349 219.781 89.501C220.202 89.4331 220.53 89.6234 220.764 90.0718C220.912 90.3181 220.976 90.5508 220.958 90.7699C220.992 90.9806 221.003 91.2217 220.993 91.4935C220.929 92.0981 220.807 92.6849 220.629 93.2539C220.503 93.8144 220.355 94.4054 220.185 95.027L218.166 103.618C217.941 104.572 217.743 105.522 217.572 106.468C217.453 107.406 217.364 108.366 217.306 109.347C217.269 109.786 217.262 110.246 217.286 110.728C217.309 111.211 217.408 111.654 217.581 112.058C217.695 112.094 217.857 112.095 218.068 112.061C218.384 112.01 218.634 111.888 218.819 111.697C219.066 111.549 219.334 111.371 219.624 111.162C219.915 110.953 220.175 110.722 220.404 110.469C221.109 109.815 221.792 109.192 222.453 108.599C223.158 107.945 223.836 107.296 224.489 106.65C224.63 106.52 224.749 106.419 224.845 106.35C224.986 106.219 225.127 106.088 225.268 105.958ZM224.886 124.981C224.478 124.128 224.26 123.11 224.232 121.926C224.278 119.866 224.535 117.771 225.002 115.643C225.408 113.471 225.955 111.33 226.641 109.221C227.38 107.103 228.211 105.051 229.134 103.066C230.057 101.08 231.031 99.2488 232.057 97.5709C232.393 96.9765 232.827 96.3124 233.357 95.5788C233.878 94.7925 234.465 94.0767 235.118 93.4313C235.761 92.7334 236.448 92.1365 237.179 91.6406C237.909 91.1448 238.643 90.8375 239.38 90.7187C240.539 90.5321 241.497 90.7827 242.257 91.4707C243.068 92.1503 243.595 92.9028 243.836 93.7283C243.973 94.2463 244.058 94.7729 244.09 95.3079C244.167 95.7818 244.168 96.2947 244.095 96.8467C244.012 97.6705 243.933 98.5206 243.858 99.397C243.827 100.212 243.748 101.062 243.62 101.947C243.602 102.166 243.583 102.385 243.564 102.604C243.546 102.824 243.606 103.03 243.745 103.224L244.143 102.673C245.118 100.68 246.098 98.5498 247.084 96.2842C248.113 93.9574 249.029 91.595 249.831 89.1968C250.633 86.7987 251.269 84.3734 251.738 81.9209C252.26 79.4598 252.527 77.0939 252.539 74.823C252.524 74.3933 252.478 73.9415 252.402 73.4676C252.378 72.9853 252.306 72.5377 252.186 72.125C252.143 71.8617 252.079 71.629 251.992 71.4268C251.897 71.1721 251.776 70.9215 251.628 70.6752C251.507 70.2625 251.289 70.0815 250.973 70.1324C250.921 70.1409 250.745 70.2233 250.446 70.3795C250.208 70.5799 249.996 70.776 249.811 70.9679C249.626 71.1598 249.41 71.3296 249.164 71.4773C247.516 72.9853 245.899 74.5154 244.312 76.0676C242.726 77.6197 241.143 79.1982 239.565 80.803C238.446 81.9017 237.326 83.0005 236.207 84.0992C235.087 85.198 233.968 86.2967 232.848 87.3954C232.663 87.5873 232.311 87.9142 231.791 88.3761C231.315 88.7769 230.791 89.2125 230.219 89.6829C229.638 90.1006 229.079 90.4878 228.542 90.8444C228.058 91.1925 227.684 91.3877 227.421 91.4302C226.526 91.5744 225.998 91.1463 225.837 90.1458C225.866 89.655 225.991 89.0945 226.214 88.4644C226.481 87.7732 226.742 87.2178 226.999 86.7983C227.84 85.3123 228.985 83.5342 230.434 81.464C231.936 79.3853 233.582 77.3643 235.373 75.4012C237.216 73.4295 239.101 71.7212 241.029 70.2761C243.002 68.7698 244.883 67.8725 246.673 67.584C247.831 67.3974 248.962 67.5394 250.064 68.01C250.247 68.1426 250.444 68.1918 250.655 68.1579C250.918 68.1155 251.142 67.9983 251.328 67.8064C251.944 67.2749 252.684 66.6695 253.547 65.9903C254.41 65.311 255.303 64.6538 256.228 64.0188C257.204 63.3752 258.167 62.8148 259.117 62.3377C260.119 61.8521 261.041 61.5414 261.884 61.4057L262.279 61.3421C263.235 61.242 263.873 61.6795 264.192 62.6545C264.365 63.0587 264.429 63.4536 264.383 63.8392C264.381 64.1636 264.357 64.5186 264.311 64.9041C264.051 65.9724 263.668 67.1146 263.162 68.3306C262.531 69.7827 261.901 71.2348 261.271 72.6869C260.684 74.0779 260.046 75.4773 259.354 76.8852C257.526 80.9613 255.873 84.955 254.397 88.8664C252.973 92.7692 251.658 96.6815 250.454 100.603C249.249 104.525 248.162 108.508 247.193 112.554C246.216 116.547 245.264 120.698 244.338 125.007C243.816 127.468 243.316 129.898 242.839 132.298C242.422 134.742 242.036 137.208 241.681 139.696C241.616 140.301 241.547 140.879 241.474 141.431C241.454 141.975 241.407 142.523 241.334 143.075C241.315 143.294 241.292 143.487 241.265 143.653C241.238 143.819 241.21 143.986 241.183 144.152C241.095 144.275 240.994 144.318 240.88 144.282C240.697 144.15 240.605 144.083 240.605 144.083C240.632 143.917 240.629 143.728 240.595 143.518C240.569 143.36 240.57 143.198 240.597 143.031C240.667 141.453 240.798 139.92 240.99 138.43C241.183 136.941 241.423 135.416 241.712 133.857C242.51 129.083 243.394 124.348 244.367 119.654C245.392 114.951 246.526 110.257 247.77 105.573C248.97 100.95 250.375 96.4291 251.986 92.0099C253.65 87.5822 255.427 83.1902 257.318 78.8339C258.064 77.0931 258.814 75.3786 259.569 73.6904C260.323 72.0023 261.077 70.3141 261.832 68.6259C262.151 67.9262 262.449 67.2571 262.724 66.6185C262.991 65.9272 263.227 65.2139 263.432 64.4785C263.548 64.1898 263.633 63.879 263.687 63.5461C263.794 63.2047 263.748 62.9151 263.547 62.6773C263.286 62.3953 262.971 62.284 262.602 62.3434C262.339 62.3858 262.005 62.4936 261.601 62.6668C261.188 62.7873 260.709 62.9995 260.164 63.3035C258.713 64.0234 257.363 64.8622 256.113 65.82C254.862 66.7777 253.616 67.7618 252.375 68.7722C251.996 69.1033 251.946 69.4625 252.224 69.8498C253.104 70.9506 253.65 72.1592 253.862 73.4755C254.118 74.7307 254.225 76.0641 254.182 77.4755C254.189 79.5272 253.882 81.8184 253.264 84.3491C252.698 86.8712 251.934 89.5063 250.972 92.2543C250.002 94.9496 248.882 97.7231 247.613 100.575C246.388 103.365 245.067 106.063 243.65 108.668C242.233 111.273 240.795 113.747 239.335 116.089C237.868 118.378 236.458 120.361 235.108 122.037C234.393 122.963 233.449 123.979 232.277 125.086C231.105 126.194 229.913 126.845 228.702 127.04C227.07 127.303 225.798 126.616 224.886 124.981ZM227.765 125.246C228.011 125.098 228.235 124.981 228.437 124.895C228.684 124.747 228.904 124.603 229.097 124.464C230.276 123.734 231.589 122.496 233.037 120.75C234.528 118.943 235.968 116.983 237.356 114.868C238.736 112.701 240.014 110.577 241.191 108.497C242.36 106.364 243.212 104.606 243.745 103.224C243.246 103.142 242.904 103.035 242.721 102.902C242.538 102.77 242.465 102.485 242.502 102.046C242.565 101.766 242.601 101.49 242.612 101.218C242.675 100.938 242.737 100.658 242.8 100.378C242.964 99.379 243.074 98.3888 243.132 97.4071C243.19 96.4254 243.138 95.4343 242.977 94.4339C242.884 93.8547 242.711 93.2882 242.46 92.7344C242.2 92.128 241.702 91.8842 240.965 92.003C239.912 92.1727 238.993 92.6719 238.208 93.5006C237.415 94.2767 236.704 95.0664 236.078 95.8697C233.331 99.6076 231.187 103.572 229.648 107.764C228.1 111.903 227.016 116.237 226.395 120.767C226.204 121.932 226.207 123.12 226.402 124.331C226.529 125.121 226.856 125.474 227.383 125.389C227.435 125.38 227.488 125.372 227.541 125.363C227.585 125.302 227.659 125.263 227.765 125.246ZM227.299 89.6671C227.421 89.7555 227.509 89.7954 227.562 89.7869C227.614 89.7784 227.737 89.7045 227.931 89.5653C228.362 89.2257 228.737 88.8682 229.055 88.4929C232.123 85.4055 235.199 82.3709 238.284 79.3888C241.413 76.3456 244.664 73.3908 248.038 70.5243C248.276 70.3239 248.518 70.1499 248.764 70.0022C249.011 69.8544 249.086 69.6532 248.991 69.3984C248.888 69.0909 248.652 68.9669 248.283 69.0263C246.229 69.3572 244.226 70.1662 242.272 71.4533C240.372 72.732 238.566 74.2654 236.855 76.0536C235.136 77.7892 233.57 79.6352 232.156 81.5916C230.743 83.548 229.519 85.3389 228.484 86.9642C228.404 87.1391 228.298 87.3183 228.166 87.5017C228.033 87.6851 227.905 87.8948 227.781 88.1309C227.693 88.2532 227.608 88.4018 227.529 88.5767C227.501 88.7432 227.444 88.8875 227.355 89.0098C227.187 89.307 227.168 89.5261 227.299 89.6671ZM267.511 94.0462C267.326 94.2381 266.993 95.0211 266.512 96.395C266.084 97.7606 265.598 99.2704 265.054 100.925C264.563 102.57 264.085 104.133 263.621 105.612C263.21 107.083 262.959 108.042 262.869 108.488C262.691 109.057 262.512 109.626 262.334 110.195C262.2 110.703 262.013 111.22 261.773 111.744L261.215 112.807C260.967 113.279 260.632 113.549 260.211 113.617C259.79 113.684 259.414 113.529 259.083 113.15C258.83 112.921 258.669 112.596 258.601 112.174C258.299 111.305 258.159 110.436 258.181 109.568C258.201 105.999 258.61 102.341 259.411 98.5926C260.264 94.8357 261.344 91.3124 262.651 88.0226C262.89 87.4978 263.089 87.2227 263.247 87.1973C263.3 87.1888 263.33 87.2109 263.339 87.2635C263.392 87.255 263.444 87.2465 263.497 87.2381C263.83 87.2925 264.096 87.4386 264.297 87.6764C264.541 87.8531 264.632 88.0815 264.569 88.3618C264.534 88.4756 264.498 88.5894 264.462 88.7032C264.418 88.7643 264.378 88.8518 264.342 88.9655C264.047 90.1476 263.703 91.3645 263.31 92.6163C262.979 93.9122 262.607 95.2955 262.196 96.7663C261.829 98.176 261.497 99.6341 261.199 101.141C260.902 102.647 260.657 104.145 260.465 105.635C260.317 107.063 260.27 108.448 260.324 109.79C260.252 110.018 260.322 110.114 260.533 110.08C260.647 110.116 260.739 110.02 260.81 109.793C261.281 108.69 261.699 107.597 262.064 106.511C262.474 105.365 262.857 104.223 263.214 103.085C263.669 101.553 264.099 100.025 264.501 98.5017C264.957 96.9697 265.443 95.4599 265.959 93.9721C266.262 93.167 266.564 92.362 266.867 91.557C267.169 90.752 267.529 89.9648 267.945 89.1954C268.033 89.0731 268.135 88.8676 268.251 88.5789C268.419 88.2817 268.582 88.1204 268.74 88.0949C269.003 88.0525 269.174 88.106 269.252 88.2555C269.408 88.5545 269.473 88.7872 269.445 88.9536C269.452 89.3307 269.388 89.7731 269.254 90.281C269.108 91.3849 268.992 92.511 268.907 93.6592C268.875 94.7989 268.921 95.9258 269.047 97.04C269.089 97.3033 269.132 97.5666 269.174 97.8298C269.216 98.0931 269.311 98.3479 269.459 98.5942C269.702 99.0953 270.113 99.2992 270.692 99.2059C270.745 99.1974 270.771 99.1931 270.771 99.1931C270.815 99.132 270.89 99.0929 270.995 99.076C271.356 98.9639 271.756 98.7644 272.195 98.4774C272.627 98.1378 273.054 97.7719 273.477 97.3796C273.9 96.9873 274.297 96.5993 274.667 96.2155C275.029 95.779 275.351 95.43 275.633 95.1685C276.1 94.7151 276.519 94.2965 276.889 93.9127C277.304 93.4677 277.744 93.0186 278.212 92.5652C278.388 92.3206 278.578 92.155 278.78 92.0684C278.868 91.9462 278.978 91.9555 279.108 92.0965C279.319 92.0626 279.358 92.1373 279.226 92.3207C279.127 92.7148 278.738 93.3177 278.058 94.1294C277.37 94.8885 276.581 95.6909 275.691 96.5366C274.854 97.3739 274.004 98.1321 273.141 98.8113C272.269 99.4379 271.597 99.7894 271.123 99.8658C270.438 99.9761 269.808 99.7535 269.232 99.198C268.56 98.7121 268.147 97.9953 267.995 97.0475C267.935 96.6789 267.876 96.3103 267.816 95.9418C267.81 95.5647 267.803 95.1876 267.796 94.8106C267.779 94.7053 267.762 94.6 267.745 94.4946C267.72 94.3367 267.642 94.1872 267.511 94.0462ZM319.551 115.076C320.545 114.537 321.644 113.982 322.848 113.41C324.044 112.785 325.275 112.209 326.54 111.681C327.858 111.144 329.159 110.665 330.441 110.242C331.776 109.811 332.997 109.506 334.102 109.328C334.366 109.285 334.629 109.243 334.892 109.201C335.155 109.158 335.423 109.142 335.695 109.152C335.861 109.179 336.023 109.18 336.181 109.155C336.339 109.129 336.506 109.157 336.681 109.237C336.908 109.308 337.035 109.423 337.06 109.581C337.094 109.791 337.006 109.913 336.795 109.947C333.689 110.448 330.755 111.353 327.995 112.662C325.287 113.962 322.592 115.342 319.91 116.801C319.277 117.227 318.936 117.795 318.888 118.505C318.841 119.215 318.789 119.898 318.733 120.556C318.676 121.213 318.708 121.91 318.827 122.647C318.945 123.385 318.889 124.042 318.658 124.619C318.595 124.9 318.432 125.061 318.169 125.103C318.011 125.129 317.901 125.119 317.84 125.075C316.886 124.851 316.346 124.182 316.22 123.067C316.23 122.796 316.245 122.55 316.264 122.331C316.282 122.112 316.301 121.893 316.32 121.674C316.294 121.516 316.269 121.358 316.243 121.2C316.218 121.042 316.144 120.919 316.022 120.83C315.961 120.786 315.851 120.777 315.693 120.802C315.535 120.828 315.359 120.91 315.166 121.049C314.189 121.693 313.295 122.512 312.483 123.508C311.706 124.389 310.93 125.27 310.154 126.152C309.438 127.077 308.693 127.981 307.916 128.862C307.643 129.176 307.369 129.49 307.096 129.805C306.822 130.119 306.549 130.433 306.275 130.747C305.896 131.078 305.575 131.265 305.312 131.307C304.891 131.375 304.431 131.206 303.934 130.8C303.62 130.527 303.516 130.219 303.623 129.878C304.102 128.828 304.784 127.692 305.667 126.469C306.612 125.291 307.639 124.126 308.75 122.974C309.87 121.876 311.002 120.856 312.147 119.915C313.292 118.974 314.353 118.182 315.329 117.539L315.765 117.225C316.424 116.957 316.765 116.389 316.787 115.521C316.981 113.707 317.175 111.893 317.369 110.079C317.554 108.213 317.774 106.394 318.029 104.625C318.88 98.1672 320.054 91.8737 321.551 85.7441C323.092 79.5534 324.914 73.4256 327.016 67.3607C327.978 64.6127 328.966 61.8604 329.98 59.104C330.995 56.3475 331.983 53.5953 332.945 50.8473C333.63 49.0623 334.288 47.2815 334.92 45.505C335.552 43.7285 336.127 41.9342 336.646 40.122C336.843 39.3339 337.014 38.5501 337.158 37.7705C337.355 36.9825 337.469 36.1808 337.5 35.3655C337.512 34.7694 337.448 34.3745 337.309 34.1808C337.223 33.9787 336.969 33.9115 336.547 33.9794C336.442 33.9964 336.341 34.0397 336.244 34.1093C336.139 34.1263 336.034 34.1432 335.928 34.1602C335.261 34.3758 334.628 34.6398 334.03 34.9522C333.546 35.3004 333.058 35.6221 332.565 35.9176C332.072 36.213 331.584 36.5348 331.1 36.8829C329.286 38.3637 327.352 40.1069 325.298 42.1125C323.297 44.1096 321.378 46.2825 319.542 48.6312C317.749 50.9187 316.136 53.3125 314.702 55.8124C313.313 58.2512 312.322 60.6527 311.731 63.0169C311.481 63.8134 311.288 64.6278 311.152 65.4601C311.007 66.2396 311.007 67.077 311.151 67.9721C311.185 68.1827 311.15 68.2965 311.044 68.3135C310.834 68.3474 310.667 68.3202 310.545 68.2319C310.239 68.011 310.004 67.7248 309.839 67.3732C309.727 67.0131 309.664 66.6182 309.649 66.1885C309.601 65.2237 309.703 64.1809 309.955 63.0599C310.259 61.9305 310.584 60.9327 310.931 60.0665C312.939 55.0971 315.419 50.5379 318.37 46.389C321.374 42.2316 324.989 38.5159 329.215 35.2419C330.465 34.2842 331.684 33.4665 332.871 32.789C333.223 32.6243 333.552 32.4902 333.86 32.3867C334.22 32.2746 334.611 32.1847 335.032 32.1168C336.032 31.9556 336.93 32.1621 337.725 32.7363C338.519 33.3105 339.054 34.1157 339.329 35.1518C339.467 35.6699 339.508 36.2576 339.451 36.9149C339.412 37.6775 339.316 38.4222 339.163 39.1492C339.002 39.8234 338.84 40.4977 338.679 41.172C338.276 42.6954 337.816 44.2011 337.3 45.6889C336.827 47.1155 336.333 48.5727 335.816 50.0605C334.775 52.9834 333.724 55.8537 332.666 58.6713C331.607 61.4889 330.557 64.3592 329.515 67.2821C326.888 74.7821 324.73 82.3417 323.041 89.9608C321.343 97.5273 320.135 105.285 319.417 113.234C319.354 113.514 319.317 113.79 319.307 114.062C319.297 114.333 319.378 114.671 319.551 115.076ZM339.404 88.4587C339.686 88.1972 339.885 87.9221 340 87.6334C340.116 87.3447 340.231 87.0559 340.347 86.7672C341.227 84.5186 342.181 82.3931 343.209 80.3907C344.228 78.3357 345.353 76.2638 346.583 74.1748C346.812 73.9218 347.02 73.6993 347.205 73.5074C347.434 73.2544 347.672 73.054 347.918 72.9063C348.217 72.7501 348.419 72.6635 348.525 72.6465C348.999 72.5702 349.432 72.7435 349.824 73.1665C350.225 73.6421 350.484 74.2485 350.603 74.9857C350.775 75.7143 350.837 76.4336 350.789 77.1436C350.794 77.8451 350.799 78.5465 350.804 79.248C350.736 80.5015 350.606 81.7108 350.416 82.8759C350.226 84.041 349.982 85.2146 349.687 86.3967C349.615 86.6243 349.57 86.8477 349.552 87.0668C349.533 87.2859 349.518 87.5313 349.508 87.8031C349.63 87.8914 349.744 87.9271 349.85 87.9101C350.035 87.7182 350.198 87.5569 350.339 87.4261C350.524 87.2342 350.735 87.0381 350.973 86.8377C352.04 85.7474 353.115 84.7098 354.199 83.7249C355.327 82.6788 356.429 81.637 357.504 80.5994C357.689 80.4075 357.852 80.2462 357.993 80.1154C358.187 79.9762 358.381 79.8369 358.574 79.6977C358.732 79.6722 358.842 79.6816 358.903 79.7257C359.086 79.8582 359.112 80.0162 358.979 80.1996C358.274 80.8534 357.336 81.7339 356.164 82.8412C355.044 83.9399 353.907 85.0955 352.752 86.3081C351.597 87.5206 350.52 88.7204 349.523 89.9075C348.526 91.0945 347.828 92.1254 347.428 93.0001C346.548 95.2487 345.335 97.443 343.789 99.5828C343.516 99.897 343.242 100.211 342.969 100.525C342.695 100.839 342.395 101.158 342.069 101.481C341.682 101.759 341.409 101.911 341.251 101.936C341.093 101.962 340.957 101.957 340.844 101.921C340.73 101.885 340.612 101.823 340.49 101.735C339.895 101.399 339.753 100.854 340.064 100.102C340.233 99.8047 340.374 99.5118 340.49 99.223C340.658 98.9258 340.853 98.6244 341.074 98.3187C341.799 97.1214 342.563 95.9988 343.367 94.951C344.215 93.842 345.124 92.7772 346.094 91.7566C346.737 91.0586 347.286 90.1058 347.74 88.8983C348.185 87.6381 348.539 86.3116 348.8 84.9189C349.115 83.5177 349.355 82.1556 349.519 80.8325C349.676 79.4568 349.792 78.3307 349.867 77.4543C349.878 76.8581 349.868 76.2925 349.836 75.7575C349.848 75.1613 349.781 74.5779 349.635 74.0072C349.471 73.6556 349.257 73.501 348.993 73.5434C348.888 73.5604 348.787 73.6036 348.69 73.6733C347.915 74.2302 347.059 75.2866 346.121 76.8422C345.228 78.3367 344.324 80.103 343.41 82.141C342.54 84.1179 341.673 86.2834 340.81 88.6373C340 90.9828 339.237 93.2934 338.524 95.5693C337.802 97.7925 337.168 99.8934 336.622 101.872C336.129 103.842 335.743 105.471 335.465 106.758C335.347 107.372 335.222 107.932 335.087 108.44C334.9 108.956 334.718 109.499 334.539 110.068C334.476 110.348 334.34 110.505 334.129 110.539C333.971 110.564 333.8 110.511 333.617 110.378C333.189 110.069 333.007 109.612 333.072 109.008C333.15 107.482 333.348 105.857 333.664 104.131C334.546 99.8836 335.406 95.6665 336.244 91.4798C337.126 87.2321 338.013 83.0107 338.903 78.8155L343.921 55.6423C344.173 54.5213 344.424 53.4004 344.676 52.2794C344.919 51.1058 345.083 49.9449 345.168 48.7968C345.222 48.4639 345.294 48.2363 345.382 48.114C345.418 48.0002 345.488 47.9349 345.594 47.9179C345.752 47.8924 345.861 47.9018 345.922 47.946C346.639 48.3707 346.973 48.938 346.926 49.648L346.88 50.8709C346.71 51.4925 346.57 52.1362 346.462 52.802C346.405 53.4593 346.292 54.0988 346.122 54.7204C345.077 59.9668 344.005 65.2175 342.907 70.4724C341.809 75.7273 340.711 80.9822 339.613 86.2372C339.567 86.6227 339.491 86.9862 339.384 87.3276C339.329 87.6604 339.336 88.0375 339.404 88.4587ZM343.446 97.4503C343.147 97.6065 342.931 97.7763 342.798 97.9597C342.666 98.1431 342.56 98.3223 342.48 98.4973C342.392 98.6195 342.408 98.7248 342.531 98.8132L342.689 98.7877C343.068 98.4566 343.32 98.0108 343.446 97.4503ZM369.079 77.6809C368.894 77.8728 368.561 78.6558 368.08 80.0298C367.652 81.3953 367.166 82.9052 366.622 84.5594C366.131 86.2051 365.653 87.7677 365.189 89.247C364.778 90.7178 364.527 91.6765 364.437 92.1232C364.259 92.6922 364.08 93.2611 363.902 93.8301C363.768 94.3379 363.581 94.8542 363.341 95.379L362.783 96.4413C362.535 96.9135 362.2 97.1835 361.779 97.2513C361.358 97.3192 360.982 97.1637 360.651 96.7849C360.398 96.5556 360.237 96.2303 360.169 95.8091C359.867 94.9394 359.727 94.0706 359.749 93.2027C359.769 89.6342 360.179 85.9757 360.979 82.2273C361.832 78.4704 362.912 74.9471 364.219 71.6573C364.459 71.1326 364.657 70.8574 364.815 70.832C364.868 70.8235 364.899 70.8456 364.907 70.8982C364.96 70.8898 365.012 70.8813 365.065 70.8728C365.398 70.9272 365.664 71.0733 365.865 71.3111C366.109 71.4878 366.2 71.7163 366.137 71.9965C366.102 72.1103 366.066 72.2241 366.03 72.3379C365.986 72.399 365.946 72.4865 365.911 72.6003C365.615 73.7824 365.271 74.9993 364.878 76.251C364.547 77.5469 364.175 78.9302 363.764 80.401C363.397 81.8107 363.065 83.2688 362.767 84.7753C362.47 86.2818 362.225 87.7798 362.033 89.2694C361.885 90.6978 361.838 92.0829 361.892 93.4247C361.821 93.6523 361.89 93.7491 362.101 93.7152C362.215 93.7508 362.307 93.6549 362.379 93.4273C362.849 92.3251 363.267 91.2313 363.633 90.1461C364.042 88.9996 364.425 87.8575 364.782 86.7196C365.238 85.1876 365.667 83.6599 366.069 82.1364C366.525 80.6045 367.011 79.0946 367.528 77.6068C367.83 76.8018 368.132 75.9967 368.435 75.1917C368.737 74.3867 369.097 73.5995 369.513 72.8301C369.601 72.7079 369.703 72.5024 369.819 72.2136C369.987 71.9164 370.15 71.7551 370.308 71.7297C370.571 71.6872 370.742 71.7408 370.82 71.8902C370.976 72.1892 371.041 72.4219 371.014 72.5884C371.02 72.9654 370.957 73.4079 370.822 73.9157C370.676 75.0197 370.56 76.1457 370.475 77.2939C370.443 78.4336 370.489 79.5605 370.615 80.6748C370.657 80.938 370.7 81.2013 370.742 81.4646C370.785 81.7278 370.88 81.9826 371.027 82.2289C371.27 82.73 371.681 82.9339 372.26 82.8406C372.313 82.8321 372.339 82.8279 372.339 82.8279C372.383 82.7667 372.458 82.7277 372.564 82.7107C372.924 82.5986 373.324 82.3991 373.764 82.1122C374.195 81.7725 374.622 81.4066 375.045 81.0143C375.468 80.622 375.865 80.234 376.235 79.8502C376.597 79.4137 376.919 79.0648 377.201 78.8032C377.668 78.3498 378.087 77.9312 378.457 77.5474C378.872 77.1025 379.313 76.6533 379.78 76.1999C379.956 75.9553 380.146 75.7898 380.348 75.7032C380.436 75.5809 380.546 75.5902 380.677 75.7312C380.887 75.6973 380.926 75.772 380.794 75.9555C380.695 76.3495 380.306 76.9524 379.627 77.7642C378.939 78.5233 378.15 79.3257 377.259 80.1714C376.422 81.0086 375.572 81.7668 374.709 82.4461C373.837 83.0727 373.165 83.4241 372.691 83.5005C372.006 83.6108 371.376 83.3882 370.8 82.8327C370.128 82.3468 369.715 81.63 369.563 80.6822C369.503 80.3136 369.444 79.9451 369.384 79.5765C369.378 79.1994 369.371 78.8224 369.364 78.4453C369.347 78.34 369.33 78.2347 369.313 78.1294C369.288 77.9714 369.21 77.8219 369.079 77.6809ZM393.232 74.0323C393.496 73.9899 393.667 73.8812 393.747 73.7063C393.871 73.4702 393.969 73.2384 394.04 73.0108C394.633 71.9969 395.2 70.9872 395.74 69.9818C396.333 68.9679 396.926 67.954 397.519 66.9401C397.687 66.6429 397.837 66.4026 397.97 66.2192C398.147 65.9746 398.323 65.7301 398.5 65.4855C398.738 65.2851 398.962 65.168 399.173 65.1341C399.278 65.1171 399.497 65.1358 399.83 65.1902L400.655 65.7865C400.978 66.1127 401.094 66.4991 401.004 66.9458C400.889 67.2345 400.747 67.5275 400.579 67.8247C400.463 68.1134 400.347 68.4021 400.232 68.6908C399.433 70.4401 398.59 72.4128 397.701 74.6088C396.812 76.8048 395.989 79.0713 395.231 81.4083C394.526 83.7368 393.93 86.0746 393.444 88.4218C392.95 90.7164 392.671 92.8412 392.608 94.7961C392.579 95.287 392.58 95.7999 392.612 96.3349C392.636 96.8173 392.633 97.3039 392.604 97.7948C392.652 98.7595 392.906 99.664 393.366 100.508C393.609 101.009 393.941 101.226 394.362 101.158C394.73 101.099 395.074 100.881 395.391 100.506C395.762 100.122 396.031 99.7817 396.199 99.4845C396.668 98.7066 397.128 97.8762 397.58 96.993C398.263 95.5324 398.863 94.0583 399.38 92.5705C399.949 91.0742 400.488 89.5559 400.996 88.0154C401.521 86.5803 402.046 85.1451 402.571 83.71C403.096 82.2749 403.617 80.8134 404.133 79.3256C404.205 79.0981 404.272 78.8441 404.335 78.5639C404.398 78.2837 404.618 78.1402 404.995 78.1335C405.195 78.3713 405.233 78.6082 405.109 78.8443C404.977 79.0277 404.875 79.2332 404.803 79.4608C404.188 81.3426 403.577 83.2507 402.971 85.1852C402.408 87.0585 401.819 88.9361 401.204 90.8179C400.83 91.8506 400.461 92.9095 400.095 93.9948C399.722 95.0274 399.291 96.0422 398.803 97.0391C398.475 97.6862 398.081 98.4249 397.621 99.2554C397.16 100.086 396.613 100.714 395.98 101.14C395.487 101.436 395.109 101.605 394.846 101.647C393.951 101.791 393.216 101.424 392.642 100.544C392.138 99.7607 391.849 98.8078 391.776 97.6851C391.564 96.3687 391.52 94.9174 391.642 93.331C391.756 91.692 391.976 90.036 392.3 88.3631C392.625 86.6901 392.98 85.0392 393.366 83.4105C393.804 81.7732 394.211 80.2761 394.587 78.919C394.658 78.6914 394.757 78.2974 394.883 77.7369C394.822 77.6928 394.738 77.6792 394.633 77.6961C394.528 77.7131 394.457 77.7785 394.422 77.8923C394.377 77.9534 394.311 78.0451 394.223 78.1674C393.611 79.4004 393 80.6334 392.388 81.8664C391.82 83.0382 391.227 84.2143 390.607 85.3947C389.825 87.2493 389.018 88.946 388.185 90.4846C387.965 90.7903 387.774 91.1181 387.615 91.468C387.455 91.8178 387.265 92.1456 387.044 92.4513C386.558 93.1238 385.92 93.5237 385.13 93.651C384.024 93.8291 383.167 93.5352 382.557 92.7691C381.992 91.9418 381.637 91.0806 381.493 90.1855C381.338 89.5621 381.241 88.9566 381.2 88.3689C381.203 87.7201 381.211 87.0976 381.223 86.5014C381.274 85.1427 381.374 83.7491 381.522 82.3207C381.722 80.8838 382.037 79.4826 382.465 78.1171C382.893 76.7516 383.47 75.4702 384.196 74.2729C384.974 73.0671 385.94 72.0201 387.093 71.132C387.48 70.8535 387.963 70.6676 388.543 70.5743C389.438 70.4301 390.305 70.6145 391.144 71.1276C391.974 71.588 392.506 72.2046 392.738 72.9775C392.816 73.1269 392.873 73.307 392.906 73.5176C392.94 73.7282 393.049 73.8998 393.232 74.0323ZM383.666 89.5922C383.734 90.0135 383.789 90.3557 383.831 90.619C383.926 90.8738 383.995 91.1328 384.038 91.3961C384.071 91.6067 384.194 91.695 384.404 91.6611C384.457 91.6526 384.51 91.6441 384.562 91.6356C384.606 91.5745 384.655 91.5397 384.708 91.5312C385.193 90.8587 385.636 90.0851 386.035 89.2104C386.895 87.5053 387.728 85.8044 388.535 84.1078C389.334 82.3585 390.189 80.627 391.102 78.9134C391.43 78.2663 391.626 77.6404 391.691 77.0358C391.799 76.37 391.799 75.6949 391.688 75.0104C391.654 74.7997 391.581 74.5144 391.469 74.1543C391.41 73.7857 391.298 73.4256 391.133 73.074C391.021 72.7139 390.865 72.415 390.665 72.1771C390.517 71.9308 390.311 71.8289 390.048 71.8713C389.68 71.9307 389.284 72.1565 388.861 72.5488C388.429 72.8884 388.011 73.307 387.605 73.8046C387.199 74.3022 386.823 74.8219 386.478 75.3637C386.178 75.8443 385.969 76.229 385.854 76.5177C384.843 78.6253 384.191 80.7831 383.899 82.9911C383.606 85.1991 383.529 87.3995 383.666 89.5922ZM427.287 66.9246C427.519 69.3722 427.502 71.7789 427.235 74.1449C427.122 75.4595 426.988 76.8046 426.831 78.1804C426.719 79.495 426.607 80.8096 426.494 82.1242C426.449 82.5097 426.415 82.9743 426.395 83.5178C426.395 83.5178 426.46 83.5883 426.591 83.7293L426.749 83.7038C426.926 83.4593 427.08 83.2453 427.213 83.0619C427.398 82.87 427.557 82.6823 427.689 82.4989C428.678 81.2592 429.645 80.05 430.589 78.8714C431.578 77.6317 432.593 76.3877 433.634 75.1395C434.04 74.6419 434.473 74.1401 434.931 73.634C435.382 73.0753 435.836 72.5429 436.295 72.0368L436.929 71.4484C437.07 71.3176 437.21 71.3491 437.349 71.5427C437.472 71.631 437.489 71.7364 437.4 71.8586C437.32 72.0336 437.148 72.3044 436.883 72.6713C435.021 74.862 433.242 77.0664 431.547 79.2843C429.904 81.4938 428.239 83.7338 426.552 86.0044C425.978 86.7992 425.649 87.6084 425.566 88.4322C425.248 90.4822 424.819 92.8473 424.278 95.5274C423.729 98.1548 423.049 100.804 422.236 103.473C421.433 106.196 420.472 108.782 419.354 111.231C418.297 113.724 417.089 115.782 415.73 117.406C415.376 117.895 414.94 118.37 414.42 118.832C413.9 119.294 413.351 119.572 412.772 119.665C412.087 119.775 411.431 119.557 410.802 119.01C410.104 118.366 409.758 117.558 409.763 116.585C409.898 114.402 410.41 112.051 411.301 109.53C412.199 107.062 413.261 104.596 414.484 102.13C415.76 99.655 417.11 97.3037 418.533 95.0755C420.01 92.8389 421.37 90.8909 422.616 89.2317C423.022 88.7341 423.287 88.3673 423.411 88.1312C423.587 87.8867 423.716 87.6769 423.796 87.502C423.928 87.3186 423.999 87.091 424.01 86.8192C424.064 86.4863 424.15 86.0133 424.267 85.4002C424.466 84.2877 424.693 82.8466 424.948 81.0768C425.203 79.3071 425.419 77.4625 425.596 75.5433C425.826 73.6156 425.989 71.7795 426.086 70.0352C426.175 68.2382 426.13 66.7869 425.952 65.6811C425.901 65.3652 425.718 65.2327 425.402 65.2836C425.349 65.2921 425.327 65.3226 425.335 65.3753C425.335 65.3753 425.309 65.3795 425.256 65.388C424.869 65.6665 424.609 65.8975 424.477 66.0809C423.806 66.9453 423.165 67.8318 422.555 68.7404C421.937 69.5963 421.441 70.5406 421.067 71.5732C420.934 71.7566 420.868 71.8483 420.868 71.8483C420.207 72.441 419.695 73.1178 419.332 73.8786C418.968 74.6395 418.548 75.3825 418.07 76.1077C417.584 76.7802 417.133 77.5011 416.717 78.2705C416.345 78.9787 415.946 79.6911 415.522 80.4078C414.929 81.4217 414.34 82.4619 413.756 83.5285C413.163 84.5424 412.543 85.5605 411.898 86.5829C411.561 87.1773 411.221 87.7454 410.876 88.2872C410.531 88.8289 410.16 89.3749 409.762 89.9252C409.462 90.4058 409.078 90.8728 408.611 91.3262C408.196 91.7712 407.699 92.0403 407.12 92.1336C406.014 92.3118 405.219 91.7376 404.736 90.411C404.459 89.6993 404.384 88.901 404.512 88.0161C404.836 86.3431 405.391 84.255 406.176 81.7515C406.962 79.2481 407.909 76.7455 409.018 74.2438C410.119 71.6895 411.364 69.3552 412.752 67.2408C414.131 65.0737 415.582 63.5165 417.104 62.5689C417.491 62.2905 417.948 62.1088 418.475 62.024C420.002 61.7779 421.037 62.5025 421.58 64.1977L421.606 64.3556C421.753 64.6019 421.796 64.8652 421.733 65.1454C421.723 65.4172 421.858 65.5845 422.138 65.6474C422.418 65.7103 422.62 65.6237 422.744 65.3876C422.86 65.0989 423.041 64.8807 423.287 64.733C423.428 64.6022 423.547 64.502 423.644 64.4324C423.793 64.3543 423.939 64.2498 424.08 64.1191C424.37 63.9102 424.647 63.7846 424.91 63.7421C425.437 63.6573 425.966 63.9232 426.497 64.5398C426.776 64.9271 426.949 65.3314 427.017 65.7526C427.129 66.1127 427.219 66.5034 427.287 66.9246ZM420.788 64.8115C420.688 63.8553 420.401 63.4153 419.927 63.4917C419.822 63.5086 419.619 63.5952 419.32 63.7514C418.011 64.3406 416.698 65.5786 415.381 67.4654C414.117 69.3437 412.94 71.4242 411.849 73.7067C410.758 75.9893 409.799 78.2507 408.972 80.4908C408.197 82.7225 407.639 84.46 407.299 85.7032C407.157 86.1584 407.044 86.6356 406.963 87.135C406.881 87.6343 406.769 88.1116 406.626 88.5667C406.599 88.7332 406.607 88.948 406.649 89.2113C406.666 89.3166 406.701 89.365 406.754 89.3566C406.815 89.4007 406.898 89.4143 407.003 89.3974L407.638 88.8089C408.027 88.206 408.42 87.6295 408.818 87.0792C409.259 86.4678 409.644 85.8386 409.972 85.1916L415.507 75.7914C416.136 74.6637 416.773 73.5886 417.418 72.5662C418.056 71.4912 418.75 70.434 419.5 69.3947C420.083 68.6525 420.42 67.8959 420.512 67.1248C420.596 66.3011 420.687 65.53 420.788 64.8115ZM422.878 91.8635C422.667 91.8975 422.518 91.9756 422.429 92.0979C422.341 92.2201 422.253 92.3424 422.164 92.4647C421.342 93.7316 420.272 95.4707 418.953 97.6819C417.688 99.8846 416.465 102.188 415.286 104.593C414.107 106.998 413.108 109.347 412.289 111.64C411.478 113.985 411.143 115.93 411.284 117.474C411.238 117.859 411.426 118.018 411.847 117.95C411.891 117.889 411.94 117.854 411.992 117.846C413.603 116.776 414.992 115.175 416.161 113.042C417.383 110.9 418.443 108.595 419.342 106.128C420.241 103.66 420.973 101.165 421.539 98.6428C422.114 96.1733 422.581 94.0452 422.941 92.2585L422.878 91.8635ZM438.101 80.5783C437.985 79.1923 438.007 77.6492 438.165 75.9491C438.376 74.2404 438.67 72.5454 439.047 70.8639C439.416 69.1299 439.846 67.4399 440.337 65.7942C440.829 64.1484 441.323 62.6912 441.821 61.4225C441.892 61.195 441.972 61.02 442.06 60.8978C442.14 60.7228 442.22 60.5479 442.3 60.373C442.38 60.198 442.525 60.0936 442.736 60.0597L442.894 60.0342C443.429 60.002 443.857 60.3112 444.178 60.9618C444.256 61.1113 444.268 61.3525 444.213 61.6853C444.133 61.8603 444.053 62.0352 443.974 62.2101C443.894 62.3851 443.814 62.56 443.734 62.7349C442.791 65.2638 442.014 67.8199 441.404 70.4032C440.786 72.9338 440.342 75.5443 440.073 78.2347C440.017 78.892 439.961 79.5493 439.905 80.2066C439.901 80.8554 440.003 81.4872 440.21 82.1021C440.269 82.4707 440.431 82.6338 440.694 82.5914C440.852 82.5659 440.979 82.5184 441.076 82.4488C441.322 82.301 441.512 82.1355 441.644 81.952C441.83 81.7601 442.019 81.5946 442.213 81.4553C443.227 80.3736 444.193 79.1644 445.112 77.8278C446.402 76.1075 447.608 74.3735 448.731 72.626C449.846 70.8258 450.96 69.0256 452.075 67.2253C452.251 66.9808 452.402 66.7405 452.526 66.5044C452.641 66.2157 452.822 65.9975 453.068 65.8497C453.157 65.7275 453.262 65.7105 453.384 65.7988C453.445 65.843 453.546 65.9619 453.685 66.1556C453.702 66.2609 453.688 66.3441 453.644 66.4052C453.6 66.4664 453.56 66.5538 453.524 66.6676C453.444 66.8426 453.365 67.0175 453.285 67.1924C453.249 67.3062 453.187 67.4242 453.099 67.5465C451.894 69.7934 450.655 71.9919 449.38 74.142C448.106 76.292 446.806 78.4464 445.479 80.6049C445.126 81.094 444.772 81.5831 444.419 82.0722C444.118 82.5528 443.734 83.0199 443.267 83.4733C442.756 83.9878 442.184 84.296 441.552 84.3978C440.973 84.4912 440.478 84.4359 440.067 84.232C439.7 83.967 439.377 83.6408 439.099 83.2535C438.873 82.8577 438.669 82.4314 438.488 81.9745C438.35 81.4564 438.221 80.991 438.101 80.5783ZM444.673 56.9925C444.139 56.7003 443.807 56.4837 443.676 56.3427C443.598 56.1932 443.604 55.8951 443.694 55.4484C444.15 53.9165 444.693 52.4245 445.323 50.9724C445.954 49.5203 446.614 48.0903 447.306 46.6823C447.377 46.4547 447.518 46.324 447.729 46.29C447.782 46.2816 447.838 46.2994 447.9 46.3436C448.205 46.5644 448.3 46.8192 448.185 47.1079C448.193 47.1606 448.153 47.2481 448.065 47.3703C447.391 48.8836 446.795 50.3841 446.278 51.8719C445.814 53.3512 445.381 54.8525 444.978 56.376C444.89 56.4983 444.828 56.6163 444.792 56.7301C444.801 56.7828 444.761 56.8702 444.673 56.9925ZM483.816 65.0281C483.867 65.344 483.918 65.66 483.969 65.9759C484.072 66.2833 484.145 66.5687 484.188 66.8319C484.291 67.1394 484.562 67.3118 485 67.3493C485.264 67.3068 485.501 67.2687 485.711 67.2347C485.975 67.1923 486.229 67.0972 486.476 66.9495C486.766 66.7406 487.061 66.5581 487.36 66.4019C487.703 66.1845 488.015 65.9451 488.297 65.6836C488.967 65.1436 489.64 64.6299 490.318 64.1425C491.04 63.594 491.736 63.0498 492.405 62.5098C492.598 62.3705 492.77 62.2619 492.92 62.1838C493.061 62.053 493.202 61.9222 493.343 61.7915C493.439 61.7219 493.54 61.6786 493.646 61.6616C493.804 61.6361 493.917 61.6718 493.987 61.7686C494.057 61.8655 494.069 61.9445 494.025 62.0056C493.973 62.0141 493.928 62.0752 493.893 62.189C493.804 62.3113 493.708 62.3809 493.602 62.3979C492.66 63.2521 491.712 64.0799 490.761 64.8814C489.854 65.6218 488.894 66.3707 487.882 67.1281C487.539 67.3454 487.218 67.5322 486.919 67.6884C486.576 67.9058 486.22 68.0441 485.851 68.1035C484.903 68.2562 484.204 67.9368 483.752 67.1452C483.353 66.3452 483.094 65.5766 482.975 64.8394L482.619 62.628C482.56 62.2594 482.372 62.1005 482.056 62.1514C482.003 62.1599 481.955 62.1947 481.911 62.2559C481.911 62.2559 481.885 62.2601 481.832 62.2686C481.524 62.3722 481.252 62.5241 481.014 62.7245C480.776 62.9249 480.534 63.099 480.288 63.2467C479.804 63.5948 479.324 63.9692 478.848 64.37C478.417 64.7096 477.959 65.0535 477.475 65.4016C477.043 65.7412 476.467 66.0231 475.747 66.2472C475.642 66.2641 475.567 66.3032 475.523 66.3643C475.47 66.3728 475.391 66.3855 475.286 66.4025C474.654 66.5043 474.05 66.2775 473.475 65.722C472.812 64.9643 472.401 64.0853 472.24 63.0849C472.051 62.2509 471.946 61.4305 471.924 60.6237C471.946 59.7558 471.942 58.8921 471.912 58.0327C471.92 56.4107 472.012 54.8022 472.188 53.2074C472.407 51.5514 472.6 49.8996 472.767 48.2521C472.821 47.9193 472.849 47.5906 472.851 47.2662C472.844 46.8891 472.868 46.5342 472.923 46.2013C472.889 45.9906 472.81 45.8412 472.688 45.7528C472.461 45.6814 472.289 45.7901 472.173 46.0788C471.997 46.3234 471.82 46.568 471.643 46.8125C471.519 47.0486 471.373 47.3152 471.205 47.6124C469.91 50.306 468.73 53.0353 467.662 55.8002C466.595 58.5652 465.589 61.3743 464.645 64.2276C463.95 66.2843 463.255 68.3411 462.56 70.3978C461.856 72.4019 461.131 74.4366 460.383 76.5018C459.973 77.6482 459.481 78.781 458.905 79.9002C458.736 80.1975 458.506 80.6127 458.214 81.146C457.913 81.6266 457.552 81.9008 457.131 81.9687C456.973 81.9942 456.811 81.9933 456.644 81.9661C456.531 81.9304 456.386 81.8726 456.211 81.7928C455.337 81.3935 454.77 80.7284 454.512 79.7976C454.339 79.3934 454.219 78.9806 454.151 78.5594C454.136 78.1297 454.12 77.6999 454.105 77.2702C454.133 73.7544 454.516 70.2624 455.253 66.7942C456.044 63.3175 457.267 60.0142 458.924 56.8842L459.52 56.0588C459.608 55.9365 459.758 55.8584 459.968 55.8245C460.232 55.782 460.52 55.8976 460.835 56.1711C461.201 56.4361 461.38 56.7045 461.369 56.9763C461.395 57.1342 461.337 57.2786 461.196 57.4093C460.8 57.6352 460.523 57.923 460.363 58.2729C460.256 58.6143 460.122 58.9599 459.963 59.3097C458.709 62.591 457.771 65.8214 457.148 69.0008C456.518 72.1276 456.215 75.4447 456.24 78.9521C456.282 79.2153 456.343 79.4217 456.421 79.5712C456.621 79.809 456.757 79.8141 456.828 79.5865C457.146 79.2112 457.403 78.7917 457.598 78.3281C457.962 77.5672 458.329 76.8327 458.701 76.1245C459.065 75.3636 459.398 74.5807 459.701 73.7757C460.243 72.4458 460.732 71.1245 461.169 69.8116C461.597 68.4461 462.056 67.1027 462.545 65.7814C463.543 62.9196 464.575 60.1062 465.642 57.3413C466.762 54.5678 467.965 51.808 469.251 49.0618C469.535 48.4758 469.796 47.9205 470.036 47.3957C470.319 46.8097 470.634 46.2459 470.979 45.7041C471.059 45.5292 471.165 45.35 471.297 45.1666C471.421 44.9306 471.554 44.7471 471.695 44.6164C471.871 44.3718 472.091 44.2283 472.355 44.1859C472.618 44.1435 472.88 44.2633 473.142 44.5453C473.509 44.8103 473.726 45.1534 473.794 45.5747C473.94 46.1454 473.989 46.7857 473.941 47.4957C473.846 48.9156 473.729 50.3661 473.589 51.8471C473.494 53.267 473.372 54.6912 473.224 56.1196C473.193 56.9348 473.141 57.7807 473.066 58.6571C473.035 59.4723 473.004 60.2876 472.974 61.1029C472.945 61.5937 472.973 62.1024 473.057 62.629C473.134 63.1029 473.214 63.6031 473.299 64.1296C473.359 64.4982 473.493 64.8277 473.702 65.1182C473.797 65.373 473.932 65.5403 474.107 65.6202C474.326 65.6389 474.567 65.627 474.83 65.5846C475.506 65.4217 476.157 65.1008 476.782 64.6219L479.396 62.7421C479.977 62.3244 480.571 61.9856 481.177 61.7258C481.274 61.6562 481.454 61.6002 481.717 61.5578C482.349 61.456 482.826 61.7303 483.146 62.3809C483.364 62.724 483.511 63.1325 483.587 63.6064C483.682 63.8612 483.747 64.0939 483.781 64.3045C483.814 64.5152 483.853 64.7521 483.895 65.0154L483.816 65.0281ZM504.737 49.3404C504.002 49.1347 503.292 49.0871 502.607 49.1974C501.975 49.2992 501.338 49.5368 500.696 49.9104C499.86 50.4232 499.081 51.1161 498.357 51.989C497.625 52.8092 497.019 53.7441 496.54 54.7937C496.114 55.8348 495.805 56.9379 495.615 58.1031C495.468 59.207 495.533 60.2771 495.808 61.3132C495.833 61.4712 495.933 61.7523 496.106 62.1566C496.289 62.2891 496.434 62.3468 496.539 62.3299C496.592 62.3214 496.662 62.256 496.75 62.1337C496.874 61.8977 496.972 61.6658 497.043 61.4383C497.167 61.2022 497.318 60.9619 497.495 60.7173C497.698 60.3063 497.902 59.8953 498.106 59.4843C498.31 59.0733 498.544 58.6844 498.81 58.3176C499.136 57.9949 499.404 57.8166 499.615 57.7827C499.983 57.7233 500.359 57.8788 500.743 58.2491C501.11 58.5141 501.126 58.7816 500.792 59.0516C499.973 59.6698 499.447 60.4297 499.214 61.3316C498.981 62.2335 498.748 63.1353 498.516 64.0372C498.409 64.3785 498.556 64.6248 498.959 64.7761C500.122 65.2909 501.362 65.4423 502.678 65.2302C502.942 65.1877 503.205 65.1453 503.468 65.1029C503.723 65.0078 503.939 64.838 504.115 64.5935C504.239 64.3574 504.311 64.1298 504.33 63.9107C504.793 62.4314 505.183 60.9912 505.497 59.59C505.803 58.1361 506.022 56.6423 506.153 55.1086C506.263 54.1184 506.242 53.1494 506.089 52.2017C505.937 51.2539 505.578 50.3664 505.012 49.5391C505.659 49.867 506.113 50.3342 506.372 50.9406C506.632 51.547 506.87 52.184 507.085 52.8515C507.335 53.7297 507.483 54.6511 507.531 55.6158C507.578 56.5806 507.542 57.5317 507.423 58.4693C507.267 59.845 507.014 61.2904 506.663 62.8054C506.592 63.033 506.521 63.2605 506.449 63.4881C506.422 63.6546 506.456 63.8652 506.551 64.12L507.025 64.0436C507.657 63.9418 508.25 63.7653 508.803 63.514C509.357 63.2627 509.911 63.0114 510.465 62.7601C511.132 62.5445 511.765 62.2805 512.363 61.9681C512.952 61.603 513.607 61.3084 514.327 61.0843C514.273 61.4172 514.145 61.627 513.942 61.7136C513.74 61.8002 513.564 61.8825 513.415 61.9606C512.352 62.402 511.293 62.8698 510.238 63.3639C509.227 63.7968 508.216 64.2298 507.206 64.6627C506.802 64.8359 506.458 65.0533 506.176 65.3148C505.939 65.5152 505.744 65.8166 505.593 66.2191C505.316 67.1821 504.951 68.1052 504.499 68.9883C504.1 69.863 503.644 70.7198 503.131 71.5588C502.767 72.3196 502.268 73.0754 501.632 73.826C500.989 74.524 500.219 74.9451 499.324 75.0893C498.587 75.2081 497.921 75.0993 497.327 74.7629C496.724 74.3738 496.245 73.7487 495.89 72.8875C495.666 72.1673 495.525 71.4607 495.467 70.7677C495.401 70.0221 495.388 69.268 495.427 68.5054C495.443 67.2604 495.682 65.8982 496.146 64.4189C496.263 63.8058 496.17 63.2266 495.866 62.6814C495.51 62.1446 495.258 61.5908 495.112 61.0201C494.958 60.3968 494.86 59.7912 494.82 59.2035C494.73 57.9755 494.833 56.7705 495.128 55.5884C495.477 54.3978 496.004 53.3134 496.711 52.3352C497.409 51.3043 498.247 50.4671 499.224 49.8236C500.245 49.1188 501.387 48.6647 502.651 48.4611C503.089 48.4985 503.478 48.5708 503.82 48.6778C504.205 48.7237 504.511 48.9446 504.737 49.3404ZM498.536 65.1684C498.492 65.2295 498.447 65.2906 498.403 65.3518C498.351 65.3603 498.302 65.3951 498.258 65.4562C497.684 67.9257 497.504 70.3316 497.719 72.6738C497.802 73.5248 498.081 73.9121 498.555 73.8357C498.871 73.7848 499.143 73.6328 499.373 73.3798C499.522 73.3017 499.645 73.2278 499.742 73.1582C499.883 73.0274 499.998 72.9009 500.086 72.7786C500.854 71.8446 501.504 70.8485 502.036 69.7905C502.559 68.6798 503.025 67.5512 503.435 66.4048C503.533 66.0108 503.394 65.8171 503.017 65.8238C502.263 65.8373 501.5 65.7981 500.729 65.7063C500.011 65.6059 499.28 65.4266 498.536 65.1684ZM516.612 67.7659C516.453 66.4411 516.387 64.8581 516.414 63.0169C516.433 61.1231 516.531 59.2166 516.708 57.2974C516.929 55.317 517.242 53.4028 517.647 51.5549C518.051 49.7071 518.529 48.1445 519.079 46.8674C519.327 46.3952 519.583 46.138 519.846 46.0955C520.004 46.0701 520.232 46.1415 520.529 46.3097C520.818 46.4252 521.028 46.5535 521.158 46.6945C521.481 47.0206 521.558 47.3323 521.39 47.6295C520.831 48.854 520.345 50.3639 519.932 52.1591C519.563 53.8932 519.286 55.6936 519.101 57.5602C518.915 59.4268 518.778 61.2585 518.689 63.0555C518.654 64.844 518.685 66.3786 518.783 67.6593C518.781 67.9837 518.78 68.3081 518.778 68.6325C518.829 68.9484 519.007 69.2168 519.313 69.4377C519.612 69.2814 519.823 69.0853 519.947 68.8492C520.124 68.6047 520.296 68.3338 520.464 68.0366C520.757 67.5033 521.244 66.5064 521.927 65.0458C522.61 63.5852 523.311 62.0677 524.03 60.4934C524.74 58.8663 525.331 57.3395 525.804 55.9129C526.329 54.4777 526.549 53.4969 526.464 52.9703C526.374 51.7423 526.347 50.3963 526.381 48.9322C526.468 47.4596 526.664 45.9964 526.97 44.5426C527.267 43.0361 527.661 41.6221 528.15 40.3008C528.684 38.9183 529.326 37.7074 530.077 36.6681C530.254 36.4235 530.447 36.2843 530.658 36.2503C530.763 36.2334 530.846 36.247 530.908 36.2911C531.371 36.4865 531.659 36.7643 531.771 37.1244C531.97 37.6866 531.988 38.3049 531.827 38.9791C531.745 39.4785 531.668 40.0041 531.595 40.5561C531.513 41.0555 531.405 41.5591 531.271 42.0669L528.372 52.7439C528.301 52.9715 528.23 53.1991 528.158 53.4267C528.14 53.6458 528.09 53.8428 528.01 54.0177C527.744 54.7089 527.683 55.3399 527.829 55.9106C528.028 56.4729 528.306 57.0224 528.662 57.5591C528.896 58.0076 529.211 58.2811 529.605 58.3797C529.99 58.4256 530.394 58.4146 530.815 58.3467C531.228 58.2262 531.729 57.9834 532.318 57.6183C532.96 57.2448 533.572 56.8491 534.153 56.4314C534.778 55.9525 535.35 55.4821 535.87 55.0202C536.442 54.5498 536.896 54.1796 537.231 53.9096C537.504 53.5955 537.764 53.3645 538.01 53.2168C538.055 53.1556 538.107 53.1472 538.168 53.1913C538.282 53.227 538.37 53.2669 538.431 53.3111C538.553 53.3994 538.57 53.5048 538.482 53.627C538.322 53.9769 538.009 54.3785 537.541 54.832C537.127 55.2769 536.633 55.7345 536.061 56.2049C535.533 56.6142 534.978 57.0277 534.397 57.4454C533.86 57.802 533.447 58.0847 533.156 58.2936C532.575 58.7113 531.943 58.9753 531.258 59.0856C530.679 59.179 530.105 59.1364 529.536 58.958C529.011 58.7184 528.483 58.2903 527.951 57.6737C527.882 57.5768 527.755 57.4622 527.572 57.3297C527.441 57.1887 527.309 57.2099 527.177 57.3933C526.937 57.9181 526.746 58.4081 526.603 58.8632C526.005 60.8504 525.315 62.7712 524.534 64.6258C523.805 66.472 522.966 68.3088 522.018 70.1362C521.886 70.3196 521.753 70.503 521.621 70.6864C521.488 70.8698 521.325 71.0312 521.131 71.1704C520.866 71.5372 520.523 71.7546 520.102 71.8224C519.576 71.9073 519.011 71.7552 518.408 71.3661C517.858 70.9686 517.465 70.5456 517.231 70.0972C517.058 69.6929 516.915 69.3107 516.803 68.9506C516.744 68.5821 516.68 68.1872 516.612 67.7659ZM527.69 50.0177C527.936 49.87 528.207 49.3673 528.501 48.5096C528.786 47.5993 529.059 46.61 529.319 45.5417C529.632 44.4649 529.9 43.4492 530.124 42.4947C530.34 41.4875 530.475 40.8175 530.53 40.4846C530.593 40.2044 530.633 39.9547 530.652 39.7356C530.671 39.5165 530.685 39.2711 530.696 38.9993C530.75 38.6664 530.646 38.5212 530.382 38.5636C529.958 39.2803 529.536 40.1855 529.118 41.2793C528.753 42.3646 528.444 43.4677 528.193 44.5886C527.941 45.7096 527.76 46.7652 527.65 47.7554C527.531 48.6929 527.544 49.447 527.69 50.0177Z" fill="#F3E5B1"/>
</svg>
