<svg width="384" height="42" viewBox="0 0 384 42" fill="none" xmlns="http://www.w3.org/2000/svg">
<path fill-rule="evenodd" clip-rule="evenodd" d="M19.9508 7.10838C20.7158 7.10838 21.4733 7.18402 22.2159 7.33526C22.9584 7.4865 23.6784 7.71336 24.3685 8.00828C25.0585 8.3032 25.711 8.65864 26.3185 9.06699C26.9261 9.47535 27.4886 9.93663 28.0136 10.4509C28.5386 10.9651 29.0036 11.5322 29.4161 12.1372C29.8287 12.7422 30.1887 13.4001 30.4962 14.0958C30.8037 14.7991 31.0362 15.525 31.1862 16.2737C31.3437 17.0223 31.4187 17.7937 31.4187 18.565C31.4187 19.3363 31.3437 20.1001 31.1937 20.8563C31.0437 21.605 30.8187 22.3309 30.5262 23.0267C30.2337 23.7224 29.8812 24.3727 29.4687 24.9928C29.0561 25.6053 28.5911 26.1725 28.0661 26.6867C27.5486 27.2009 26.9861 27.6622 26.3785 28.0706C25.771 28.4789 25.126 28.8344 24.451 29.1293C23.7609 29.4318 23.0409 29.6586 22.2984 29.8023C21.5558 29.9535 20.7908 30.0292 19.9958 30.0292H14.8206H13.8005H8.06281C7.20778 30.0292 6.75777 29.5906 6.75777 28.7134V8.42421C6.75777 8.03854 6.87777 7.72093 7.11778 7.47894C7.35779 7.23696 7.6728 7.11595 8.05532 7.11595H13.793H14.8131H19.9508V7.10838ZM359.519 22.4671C359.924 22.4671 360.329 22.5049 360.734 22.5805C361.124 22.6561 361.514 22.7695 361.904 22.9283C362.294 23.0871 362.662 23.2762 362.984 23.4955C363.322 23.7224 363.637 23.9795 363.922 24.2668C364.199 24.5466 364.454 24.8567 364.687 25.1819C364.912 25.507 365.114 25.8549 365.287 26.2254C365.467 26.6111 365.602 27.0119 365.692 27.4202C365.782 27.8362 365.827 28.2596 365.827 28.7058C365.827 29.1369 365.782 29.5528 365.699 29.9762C365.617 30.3997 365.489 30.8005 365.324 31.171C365.167 31.5416 364.972 31.8895 364.762 32.2146C364.544 32.5474 364.297 32.8498 364.027 33.1372C363.749 33.4321 363.442 33.6892 363.112 33.9161C362.782 34.143 362.429 34.3396 362.047 34.5059C361.657 34.6723 361.259 34.8009 360.854 34.884C360.442 34.9672 360.022 35.005 359.587 35.005H348.726C347.826 35.005 347.369 34.5513 347.369 33.6363V23.8358C347.369 22.9208 347.819 22.4671 348.726 22.4671H359.519ZM359.519 31.1257C359.849 31.1257 360.142 31.0727 360.404 30.9669C360.667 30.861 360.907 30.6946 361.132 30.4602C361.357 30.2333 361.522 29.9838 361.634 29.7267C361.739 29.462 361.792 29.1671 361.792 28.8344C361.792 28.5092 361.739 28.2143 361.627 27.9571C361.514 27.7 361.349 27.4656 361.124 27.2463C360.892 27.027 360.637 26.8606 360.367 26.7548C360.089 26.6489 359.789 26.596 359.459 26.596H351.276V31.1332H359.519V31.1257ZM359.407 15.7065H351.276V0.854523V0H350.429H341.391H340.543V0.854523V41.1455V42H341.391H359.527C360.427 42 361.304 41.9093 362.167 41.7353C363.022 41.5614 363.847 41.2967 364.642 40.9489C366.224 40.2531 367.597 39.3155 368.767 38.1358C369.937 36.9561 370.867 35.5647 371.557 33.9766C372.247 32.3734 372.592 30.6719 372.592 28.8797C372.592 27.9874 372.502 27.1102 372.322 26.2557C372.142 25.4011 371.88 24.5769 371.52 23.7753C371.167 22.9813 370.754 22.2326 370.282 21.5445C369.802 20.8412 369.269 20.1909 368.677 19.5934C368.084 18.996 367.432 18.4516 366.734 17.9752C366.037 17.4988 365.287 17.0904 364.492 16.7425C363.697 16.3947 362.872 16.1376 362.017 15.9636C361.154 15.7973 360.284 15.7065 359.407 15.7065ZM359.459 37.8862C360.089 37.8862 360.704 37.8257 361.297 37.7123C361.889 37.5913 362.467 37.4174 363.029 37.1829C363.592 36.9485 364.124 36.6612 364.619 36.336C365.114 36.0108 365.564 35.6478 365.977 35.2395C366.389 34.8311 366.764 34.3849 367.094 33.8934C367.424 33.4019 367.717 32.8801 367.957 32.3205C368.197 31.7609 368.377 31.1862 368.497 30.5963C368.617 30.0141 368.677 29.4015 368.677 28.7587C368.677 28.1235 368.617 27.511 368.504 26.9136C368.384 26.3162 368.212 25.7414 367.979 25.1894C367.747 24.6298 367.462 24.108 367.139 23.6165C366.817 23.1325 366.449 22.6788 366.029 22.2553C365.609 21.8318 365.159 21.4537 364.679 21.1361C364.192 20.8034 363.674 20.5236 363.119 20.2892C362.572 20.0547 362.002 19.8808 361.409 19.7598C360.817 19.6388 360.209 19.5859 359.587 19.5859H348.726C348.306 19.5859 347.969 19.4422 347.714 19.1549C347.481 18.8977 347.369 18.565 347.369 18.1566V4.16673H344.518V37.8786H359.459V37.8862ZM384 0.915033V41.0925V41.9471H383.152H374.055H373.207V41.0925V0.915033V0.0605099H374.055H383.152H384V0.915033ZM380.032 4.00794H377.182V38.0072H380.032V4.00794ZM19.9508 26.0212C20.4683 26.0212 20.9633 25.9759 21.4358 25.8776C21.9159 25.7793 22.3809 25.628 22.8234 25.439C23.2734 25.2424 23.7009 25.0079 24.0984 24.7357C24.5035 24.4635 24.871 24.161 25.2085 23.8358C25.546 23.5031 25.846 23.1401 26.116 22.7469C26.386 22.3461 26.6185 21.9226 26.8135 21.4764C27.0086 21.0302 27.1511 20.5614 27.2486 20.0699C27.3461 19.5935 27.3911 19.0943 27.3911 18.5726C27.3911 18.0508 27.3461 17.5517 27.2486 17.0753C27.1511 16.5913 27.0011 16.1224 26.8135 15.6763C26.6185 15.2301 26.386 14.7991 26.116 14.3983C25.846 13.9975 25.5535 13.6345 25.2235 13.3018C24.8935 12.969 24.5335 12.6665 24.1434 12.4019C23.7459 12.1296 23.3184 11.8952 22.8759 11.6986C22.4334 11.502 21.9684 11.3583 21.4883 11.26C21.0158 11.1617 20.5208 11.1163 20.0033 11.1163H10.7854V26.0288H19.9508V26.0212ZM20.0033 0.287364H0.960037C0.79503 0.287364 0.637528 0.325186 0.495022 0.393245C0.165009 0.559611 0 0.831846 0 1.19483V41.085C0 41.4555 0.172509 41.7202 0.495022 41.8866C0.630027 41.9546 0.787534 41.9924 0.95254 41.9924H9.81789C9.9829 41.9924 10.1404 41.9546 10.2754 41.8866H10.2829C10.6054 41.7202 10.7779 41.448 10.7779 41.085V36.8351H19.9958C21.2483 36.8351 22.4859 36.7141 23.7009 36.4645C24.916 36.215 26.086 35.852 27.2111 35.3605C28.3511 34.8689 29.4311 34.2564 30.4587 33.5153C31.4637 32.7893 32.3938 31.95 33.2488 30.9971C34.0138 30.135 34.6964 29.22 35.2964 28.2596C35.9039 27.2841 36.4289 26.2481 36.8714 25.1592C37.3065 24.0854 37.6365 23.004 37.854 21.8999C38.079 20.7883 38.184 19.6766 38.184 18.5574C38.184 17.3097 38.064 16.0846 37.824 14.8898C37.584 13.7026 37.224 12.5455 36.7514 11.4339C36.2789 10.3223 35.7089 9.28628 35.0639 8.31833C34.4113 7.34281 33.6688 6.45049 32.8438 5.63379C32.0188 4.81708 31.1262 4.07598 30.1587 3.42564C29.1911 2.7753 28.1636 2.20814 27.0686 1.73173C25.9735 1.25532 24.826 0.892342 23.6334 0.650354C22.4559 0.415928 21.2408 0.287364 20.0033 0.287364ZM20.0033 32.9028C21.0833 32.9028 22.1109 32.7969 23.0859 32.5852C24.0609 32.3734 24.9835 32.0558 25.8685 31.6399C26.7535 31.2164 27.5786 30.7249 28.3286 30.1728C29.0786 29.6208 29.7612 29.0007 30.3762 28.3126C30.9987 27.6244 31.5462 26.8909 32.0263 26.1271C32.5063 25.3558 32.9188 24.5466 33.2563 23.6997C33.5938 22.8527 33.8488 22.0058 34.0213 21.1437C34.1938 20.2892 34.2763 19.4346 34.2763 18.5726C34.2763 17.5744 34.1863 16.614 33.9988 15.6914C33.8113 14.7688 33.5338 13.8689 33.1588 13.0068C32.7838 12.1372 32.3413 11.3205 31.8312 10.5643C31.3287 9.81563 30.7512 9.11237 30.0987 8.45446C29.4462 7.79656 28.7486 7.22182 28.0061 6.71516C27.2486 6.2085 26.4385 5.76234 25.5685 5.39936C24.7135 5.03638 23.8134 4.75659 22.8834 4.57509C21.9609 4.3936 21.0008 4.2953 20.0108 4.2953H14.8356H13.8155H3.92266V38.0601H6.77276V34.2715C6.77276 33.3565 7.22279 32.9028 8.13033 32.9028H13.8155H14.8356H20.0033ZM3.85515 4.22722C3.84015 4.24234 3.84015 4.24234 3.85515 4.22722C3.87015 4.2121 3.86265 4.21966 3.85515 4.22722ZM61.0599 22.4671C61.4649 22.4671 61.8699 22.5049 62.2749 22.5805C62.6649 22.6561 63.055 22.7695 63.445 22.9283C63.835 23.0871 64.2025 23.2762 64.525 23.4955C64.8625 23.7224 65.1775 23.9795 65.4626 24.2668C65.7401 24.5466 65.9951 24.8567 66.2276 25.1819C66.4526 25.507 66.6551 25.8549 66.8276 26.2254C67.0076 26.6111 67.1426 27.0119 67.2326 27.4202C67.3226 27.8362 67.3676 28.2596 67.3676 28.7058C67.3676 29.1369 67.3226 29.5528 67.2401 29.9762C67.1576 30.3997 67.0301 30.8005 66.8651 31.171C66.7076 31.5416 66.5126 31.8895 66.2951 32.2146C66.0776 32.5474 65.8301 32.8498 65.5601 33.1372C65.2825 33.4321 64.975 33.6892 64.645 33.9161C64.315 34.143 63.9625 34.3396 63.58 34.5059C63.19 34.6723 62.7925 34.8009 62.3874 34.884C61.9749 34.9672 61.5549 35.005 61.1199 35.005H50.2595C49.3594 35.005 48.9019 34.5513 48.9019 33.6363V23.8358C48.9019 22.9208 49.3519 22.4671 50.2595 22.4671H61.0599ZM61.0599 31.1257C61.3899 31.1257 61.6824 31.0727 61.9449 30.9669C62.2074 30.861 62.4474 30.6946 62.6725 30.4602C62.8975 30.2333 63.0625 29.9838 63.175 29.7267C63.28 29.462 63.34 29.1671 63.34 28.8344C63.34 28.5092 63.2875 28.2143 63.175 27.9571C63.0625 27.7 62.8975 27.4656 62.6725 27.2463C62.4399 27.027 62.1849 26.8606 61.9149 26.7548C61.6449 26.6489 61.3374 26.596 61.0074 26.596H52.8171V31.1332H61.0599V31.1257ZM60.9474 15.7065H52.8171V0.854523V0H51.9695H42.9317H42.0841V0.854523V41.1455V42H42.9317H61.0674C61.9674 42 62.845 41.9093 63.7075 41.7353C64.57 41.5614 65.3876 41.2967 66.1826 40.9489C67.7652 40.2531 69.1377 39.3155 70.3078 38.1358C71.4778 36.9561 72.4078 35.5647 73.0978 33.9766C73.7879 32.3734 74.1404 30.6719 74.1404 28.8797C74.1404 27.9874 74.0504 27.1102 73.8704 26.2557C73.6904 25.4011 73.4279 24.5769 73.0679 23.7753C72.7153 22.9813 72.3028 22.2326 71.8303 21.5445C71.3503 20.8412 70.8178 20.1909 70.2252 19.5934C69.6327 18.996 68.9802 18.4516 68.2827 17.9752C67.5851 17.4988 66.8351 17.0904 66.0401 16.7425C65.245 16.3947 64.42 16.1376 63.565 15.9636C62.6949 15.7973 61.8249 15.7065 60.9474 15.7065ZM60.9999 37.8862C61.6299 37.8862 62.2374 37.8257 62.8375 37.7123C63.43 37.5913 64.0075 37.4174 64.57 37.1829C65.1326 36.9485 65.6651 36.6612 66.1601 36.336C66.6551 36.0108 67.1051 35.6478 67.5176 35.2395C67.9302 34.8311 68.3052 34.3849 68.6352 33.8934C68.9652 33.4019 69.2577 32.8801 69.4977 32.3205C69.7377 31.7609 69.9177 31.1862 70.0452 30.5963C70.1652 30.0141 70.2252 29.4015 70.2252 28.7587C70.2252 28.1235 70.1652 27.511 70.0527 26.9136C69.9327 26.3162 69.7602 25.7414 69.5277 25.1894C69.2952 24.6298 69.0102 24.108 68.6877 23.6165C68.3652 23.1325 67.9977 22.6788 67.5776 22.2553C67.1576 21.8318 66.7076 21.4537 66.2276 21.1361C65.7401 20.8034 65.2225 20.5236 64.6675 20.2892C64.12 20.0547 63.55 19.8808 62.9575 19.7598C62.3649 19.6388 61.7574 19.5859 61.1274 19.5859H50.267C49.8469 19.5859 49.5094 19.4422 49.2544 19.1549C49.0219 18.8977 48.9094 18.565 48.9094 18.1566V4.16673H46.0593V37.8786H60.9999V37.8862ZM85.5408 0.915033V41.0925V41.9471H84.6933H75.5955H74.7479V41.0925V0.915033V0.0605099H75.5955H84.6933H85.5408V0.915033ZM81.5732 4.00794H78.7231V38.0072H81.5732V4.00794ZM111.709 22.4141C112.114 22.4141 112.527 22.4595 112.939 22.5427C113.344 22.6259 113.734 22.7544 114.117 22.9132C114.499 23.0796 114.852 23.2686 115.182 23.4879C115.512 23.7072 115.82 23.9568 116.105 24.2366C116.39 24.5088 116.645 24.8189 116.877 25.1516C117.11 25.4843 117.305 25.8398 117.477 26.2179C117.657 26.6111 117.792 27.0119 117.875 27.4127C117.965 27.821 118.01 28.2369 118.01 28.6604C118.01 29.099 117.972 29.5225 117.89 29.9384C117.807 30.3468 117.687 30.7551 117.515 31.1408C117.35 31.5189 117.162 31.8819 116.937 32.2222C116.705 32.57 116.45 32.8801 116.172 33.1599C115.895 33.4397 115.58 33.6968 115.242 33.9312C114.904 34.1581 114.552 34.3547 114.169 34.5135C113.787 34.6799 113.397 34.8009 112.992 34.884C112.579 34.9672 112.174 35.0126 111.762 35.0126H98.2914C97.8713 35.0126 97.5263 34.884 97.2638 34.6194C97.0013 34.3547 96.8738 34.0144 96.8738 33.5909V23.8509C96.8738 23.4274 97.0013 23.0796 97.2638 22.8225C97.5263 22.5578 97.8638 22.4292 98.2838 22.4292H111.709V22.4141ZM111.769 31.0122C112.099 31.0122 112.392 30.9593 112.654 30.8534C112.917 30.7476 113.164 30.5736 113.389 30.3543C113.614 30.1275 113.779 29.8779 113.892 29.6208C113.997 29.3561 114.049 29.0612 114.049 28.7285C114.049 28.0857 113.832 27.5412 113.389 27.0951C113.164 26.8682 112.917 26.7018 112.654 26.5884C112.392 26.4825 112.099 26.4296 111.769 26.4296H100.849V31.0274H111.769V31.0122ZM111.657 15.5326H100.849V11.2222H120.807H121.655V10.3677V1.02846V0.173937H120.807H90.911H90.0635V1.02846V41.085V41.9395H90.911H111.769C112.647 41.9395 113.517 41.8488 114.364 41.6748C115.212 41.5009 116.03 41.2362 116.825 40.8884C117.605 40.5405 118.347 40.1322 119.045 39.6557C119.75 39.1718 120.395 38.6348 120.98 38.045C121.572 37.4476 122.112 36.7897 122.585 36.0864C123.057 35.3831 123.462 34.6269 123.807 33.8254C124.497 32.2071 124.842 30.498 124.842 28.7058C124.842 27.7984 124.752 26.906 124.572 26.0364C124.392 25.1743 124.13 24.3425 123.77 23.5409C123.417 22.7468 123.005 22.0058 122.525 21.3101C122.052 20.6143 121.512 19.9716 120.92 19.3817C120.327 18.7919 119.682 18.2625 118.985 17.7937C118.295 17.3248 117.552 16.9165 116.772 16.5762C115.985 16.2283 115.16 15.9636 114.297 15.7897C113.434 15.6233 112.557 15.5326 111.657 15.5326ZM111.597 37.9467C112.234 37.9467 112.834 37.8862 113.419 37.7652C114.004 37.6442 114.574 37.4627 115.129 37.2132C115.685 36.9636 116.217 36.6763 116.712 36.3435C117.207 36.0108 117.665 35.6403 118.092 35.2319C118.512 34.8235 118.895 34.3774 119.24 33.8858C119.577 33.4019 119.877 32.8725 120.125 32.3129C120.372 31.7533 120.56 31.1862 120.687 30.5963C120.815 30.0065 120.875 29.4015 120.875 28.7663C120.875 28.1311 120.815 27.5185 120.702 26.9211C120.582 26.3237 120.41 25.749 120.177 25.197C119.945 24.6374 119.66 24.1156 119.337 23.6241C119.015 23.1401 118.647 22.6864 118.227 22.2629C117.8 21.8318 117.35 21.4537 116.877 21.1286C116.39 20.7958 115.872 20.5085 115.31 20.2589C114.754 20.0169 114.184 19.8354 113.599 19.7144C113.022 19.5934 112.414 19.533 111.777 19.533H98.3063C97.8863 19.533 97.5413 19.4044 97.2788 19.1397C97.0163 18.875 96.8888 18.5348 96.8888 18.1113V8.65863C96.8888 8.23515 97.0163 7.88728 97.2788 7.63017C97.5413 7.3655 97.8788 7.23695 98.3063 7.23695H117.695V4.12893H94.0387V37.9543H111.597V37.9467ZM167.279 41.9471H157.619H157.026L156.824 41.3799L155.436 37.5308H138.71L137.323 41.3799L137.12 41.9471H136.528H126.867H125.667L126.072 40.8052L140.398 0.688155L140.6 0.120997H141.193H152.961H153.553L153.756 0.688155L168.082 40.8052L168.487 41.9471H167.279ZM157.274 33.5304C157.581 33.5304 157.844 33.6212 158.069 33.7951C158.279 33.9539 158.429 34.1732 158.519 34.4379L159.786 37.9391H162.831L150.778 4.11379H143.353L131.3 37.9391H134.345L135.613 34.4379C135.703 34.1959 135.823 33.9917 136.025 33.8178C136.25 33.6287 136.513 33.5304 136.858 33.5304H157.274ZM145.056 7.84948L137.555 28.8797C137.488 29.0763 137.45 29.273 137.473 29.4771C137.495 29.7191 137.585 29.946 137.765 30.1502C137.908 30.3165 138.073 30.4375 138.268 30.5283C138.455 30.6114 138.65 30.6493 138.86 30.6493H155.346C155.549 30.6493 155.744 30.6039 155.939 30.5056C156.111 30.4224 156.261 30.3014 156.389 30.1502C156.561 29.946 156.651 29.7191 156.681 29.4771C156.704 29.2654 156.666 29.0763 156.599 28.8797L149.098 7.84948C148.993 7.56212 148.821 7.35039 148.588 7.19915C148.371 7.06303 148.123 6.99496 147.853 6.99496H146.316C146.046 6.99496 145.798 7.06303 145.581 7.19915C145.333 7.35039 145.161 7.56212 145.056 7.84948ZM142.566 26.6565H151.581L147.073 13.9521L142.566 26.6565ZM219.406 0.975519V41.0925V41.9471H218.559H209.468H208.621V41.0925V26.9741L204.66 35.3227L204.428 35.8066H203.895H196.793H196.26L196.028 35.3227L192.068 27.0648V41.085V41.9395H191.22H182.122H181.275V41.085V0.975519V0.120997H182.122H190.59H191.122L191.355 0.604983L200.31 19.3212L209.273 0.604983L209.506 0.120997H210.031H218.559H219.406V0.975519ZM215.438 37.9467V4.12136H212.588V4.41627L211.973 4.25748L201.473 26.0969C201.375 26.2935 201.255 26.4674 201.09 26.596C200.88 26.7699 200.633 26.8607 200.34 26.8607C200.055 26.8607 199.808 26.7699 199.598 26.596C199.433 26.4599 199.313 26.2935 199.215 26.0893L188.647 4.10625H185.25V37.9316H188.1V15.1167C188.1 14.8142 188.182 14.5571 188.347 14.3302C188.512 14.0958 188.752 13.937 189.045 13.8614C189.33 13.7858 189.607 13.8009 189.87 13.9067C190.14 14.0202 190.357 14.2243 190.5 14.5193L198.675 31.6853H201.953L210.181 14.5193C210.316 14.2395 210.503 14.0429 210.773 13.9219C211.021 13.8084 211.291 13.7858 211.591 13.8614C211.868 13.9294 212.101 14.058 212.266 14.247C212.476 14.4739 212.581 14.7461 212.581 15.0562V37.9316H215.438V37.9467ZM235.164 11.1088V17.9979H253.247H254.095V18.8524V28.0177V28.8722H253.247H235.164V31.0576H257.62H258.468V31.9121V41.085V41.9395H257.62H225.219H224.371V41.085V0.975519V0.120997H225.219H257.62H258.468V0.975519V10.2618V11.1163H257.62H235.164V11.1088ZM232.502 21.9982C231.654 21.9982 231.204 21.5596 231.204 20.6824V8.41664C231.204 7.53943 231.639 7.10084 232.502 7.10084H254.507V4.10625H228.346V37.9316H232.044H254.5V35.058H232.494C231.647 35.058 231.197 34.6194 231.197 33.7422V26.233C231.197 25.318 231.632 24.8642 232.494 24.8642H250.12V21.9906H232.502V21.9982ZM294.694 0.975519V41.0925V41.9471H293.846H284.749H283.901V41.0925V31.9046C283.661 31.9424 283.421 31.9726 283.189 31.9953C282.596 32.0558 282.018 32.0861 281.456 32.0861C280.338 32.0861 279.236 31.9726 278.133 31.7533C277.038 31.534 275.958 31.2013 274.886 30.7627C273.821 30.3241 272.801 29.7947 271.826 29.1822C270.866 28.5697 269.958 27.8815 269.118 27.1026C268.173 26.233 267.333 25.2877 266.605 24.2744C265.878 23.2535 265.263 22.1721 264.76 21.0302C264.265 19.8884 263.89 18.7087 263.643 17.4912C263.395 16.2737 263.268 15.0259 263.268 13.7555V0.975519V0.120997H264.115H273.213H274.061V0.975519V13.7555C274.061 14.2773 274.106 14.7764 274.203 15.2528C274.301 15.7368 274.451 16.2056 274.638 16.6593C274.833 17.1055 275.058 17.529 275.336 17.9373C275.598 18.3381 275.898 18.7011 276.228 19.0339C276.558 19.3666 276.918 19.6691 277.308 19.9338C277.706 20.206 278.133 20.4404 278.576 20.637C279.018 20.8336 279.483 20.9773 279.971 21.0756C280.443 21.1739 280.938 21.2193 281.456 21.2193C282.326 21.2193 283.144 21.0832 283.909 20.811V0.975519V0.120997H284.756H293.854H294.702V0.975519H294.694ZM290.726 37.9467V4.06842H287.876V22.4141C287.876 22.6334 287.831 22.8603 287.726 23.072C287.621 23.2913 287.456 23.4728 287.239 23.6089C286.811 23.866 286.369 24.0929 285.919 24.282C285.484 24.471 285.019 24.6374 284.554 24.7811C284.066 24.9323 283.579 25.0382 283.076 25.1138C282.566 25.1894 282.049 25.2272 281.523 25.2272C280.736 25.2272 279.971 25.1516 279.221 24.9928C278.471 24.834 277.751 24.5996 277.061 24.2895C276.378 23.9795 275.733 23.6165 275.141 23.2081C274.533 22.7847 273.971 22.3158 273.453 21.794C272.936 21.2722 272.471 20.7051 272.058 20.0774C271.646 19.4649 271.293 18.807 271.001 18.1113C270.708 17.4156 270.483 16.6896 270.333 15.941C270.183 15.1847 270.108 14.421 270.108 13.6572V4.08354H267.258V13.7177C267.258 14.8066 267.363 15.8426 267.573 16.8257C267.783 17.8088 268.098 18.7389 268.51 19.6237C268.931 20.516 269.418 21.3479 269.973 22.1041C270.521 22.8603 271.136 23.5484 271.818 24.1685C272.501 24.7962 273.228 25.3482 273.986 25.8322C274.751 26.3162 275.546 26.7321 276.393 27.0724C277.226 27.4127 278.073 27.6698 278.928 27.8437C279.776 28.0176 280.623 28.1008 281.478 28.1008C282.296 28.1008 283.091 28.0403 283.849 27.9118C284.599 27.7908 285.326 27.6017 286.031 27.3446C286.241 27.269 286.451 27.2388 286.669 27.2614C286.909 27.2841 287.126 27.3673 287.336 27.5261C287.524 27.6698 287.666 27.8361 287.756 28.0252C287.854 28.2294 287.906 28.4411 287.906 28.6604V37.9467H290.726ZM336.156 0.975519V10.1484V11.0029H335.308H323.083V40.8657C323.083 41.1757 322.978 41.4328 322.775 41.637C322.573 41.8412 322.318 41.9471 322.01 41.9471H313.43C312.68 41.9471 312.297 41.5841 312.297 40.8657V11.0029H300.124H299.277V10.1484V0.975519V0.120997H300.124H335.308H336.156V0.975519ZM332.18 6.99496V4.12136H319.955H315.41H303.237V6.99496H315.065C315.41 6.99496 315.695 7.10839 315.92 7.32769C316.145 7.55456 316.257 7.84193 316.257 8.18979V37.9391H319.107V8.18979C319.107 7.81168 319.242 7.51675 319.505 7.28232C319.73 7.08571 320.015 6.98741 320.353 6.98741H332.18V6.99496Z" fill="#2D4086"/>
</svg>
