<svg width="1440" height="574" viewBox="0 0 1440 574" fill="none" xmlns="http://www.w3.org/2000/svg">
<mask id="mask0_184_1730" style="mask-type:alpha" maskUnits="userSpaceOnUse" x="0" y="0" width="1440" height="574">
<rect width="1440" height="574" fill="#C4C4C4"/>
</mask>
<g mask="url(#mask0_184_1730)">
<g filter="url(#filter0_d_184_1730)">
<path d="M117.997 397.625H119.435C120.968 397.625 122.31 397.146 123.46 396.187C124.61 395.037 125.568 393.696 126.335 392.162C127.293 390.437 127.964 388.712 128.347 386.987C128.731 385.071 128.922 383.346 128.922 381.812V250.137L33.4723 379.225V381.812C33.4723 383.346 33.6639 385.071 34.0473 386.987C34.6223 388.712 35.2931 390.342 36.0598 391.875C36.8264 393.408 37.7848 394.75 38.9348 395.9C40.0848 397.05 41.4264 397.625 42.9598 397.625H44.3973V400.5H3.57227V397.625H5.00977C6.5431 397.625 7.88477 397.146 9.03477 396.187C10.1848 395.037 11.1431 393.696 11.9098 392.162C12.8681 390.437 13.5389 388.712 13.9223 386.987C14.3056 385.071 14.4973 383.346 14.4973 381.812V228.575C14.4973 227.233 14.3056 225.7 13.9223 223.975C13.5389 222.25 12.8681 220.621 11.9098 219.087C11.1431 217.554 10.1848 216.308 9.03477 215.35C7.88477 214.2 6.5431 213.625 5.00977 213.625H3.57227V210.75H44.3973V213.625H42.0973C40.7556 213.817 39.5098 214.487 38.3598 215.637C37.4014 216.787 36.5389 218.129 35.7723 219.662C35.0056 221.004 34.4306 222.537 34.0473 224.262C33.6639 225.796 33.4723 227.233 33.4723 228.575V361.4L128.922 232.312V228.575C128.922 227.233 128.731 225.7 128.347 223.975C127.964 222.25 127.293 220.621 126.335 219.087C125.568 217.554 124.61 216.308 123.46 215.35C122.31 214.2 120.968 213.625 119.435 213.625H117.997V210.75H158.822V213.625H157.385C155.851 213.625 154.51 214.2 153.36 215.35C152.21 216.308 151.251 217.554 150.485 219.087C149.718 220.621 149.047 222.25 148.472 223.975C148.089 225.7 147.897 227.233 147.897 228.575V381.812C147.897 383.346 148.089 384.975 148.472 386.7C149.047 388.425 149.718 390.15 150.485 391.875C151.251 393.408 152.21 394.75 153.36 395.9C154.51 397.05 155.851 397.625 157.385 397.625H158.822V400.5H117.997V397.625ZM186.067 397.625H187.505C189.038 397.625 190.38 397.146 191.53 396.187C192.68 395.037 193.638 393.696 194.405 392.162C195.363 390.629 196.034 389 196.417 387.275C196.992 385.55 197.28 383.921 197.28 382.387V228.575C197.28 227.233 196.992 225.7 196.417 223.975C196.034 222.25 195.363 220.621 194.405 219.087C193.638 217.554 192.68 216.308 191.53 215.35C190.38 214.2 189.038 213.625 187.505 213.625H186.067V210.75H291.292V238.062H288.417C288.417 233.654 286.884 229.821 283.817 226.562C280.751 223.112 276.055 221.387 269.73 221.387H216.542V291.25H229.767C238.584 291.25 247.305 292.112 255.93 293.837C264.747 295.562 272.605 298.533 279.505 302.75C286.597 306.775 292.251 312.333 296.467 319.425C300.876 326.517 303.08 335.429 303.08 346.162C303.08 354.596 301.451 362.167 298.192 368.875C295.126 375.583 290.717 381.333 284.967 386.125C279.217 390.725 272.317 394.271 264.267 396.762C256.409 399.254 247.784 400.5 238.392 400.5H186.067V397.625ZM227.755 390.437C237.338 390.437 245.58 389.383 252.48 387.275C259.572 385.167 265.417 382.292 270.017 378.65C274.617 374.817 277.972 370.408 280.08 365.425C282.38 360.25 283.53 354.692 283.53 348.75C283.53 334.758 278.547 323.354 268.58 314.537C258.613 305.529 244.43 301.025 226.03 301.025H216.542V390.437H227.755ZM329.249 210.75H370.074C391.349 210.75 407.449 214.871 418.374 223.112C429.491 231.162 435.049 242.662 435.049 257.612C435.049 265.662 433.133 272.85 429.299 279.175C425.466 285.5 420.387 290.867 414.062 295.275C407.928 299.492 400.932 302.75 393.074 305.05C385.407 307.35 377.741 308.5 370.074 308.5H359.149V381.812C359.149 383.346 359.341 385.071 359.724 386.987C360.107 388.712 360.682 390.342 361.449 391.875C362.407 393.408 363.366 394.75 364.324 395.9C365.474 397.05 366.816 397.625 368.349 397.625H369.787V400.5H329.249V397.625H330.687C332.028 397.625 333.274 397.05 334.424 395.9C335.574 394.75 336.532 393.408 337.299 391.875C338.066 390.342 338.641 388.712 339.024 386.987C339.407 385.071 339.599 383.346 339.599 381.812V228.575C339.599 225.892 338.832 222.825 337.299 219.375C335.766 215.925 333.562 214.008 330.687 213.625H329.249V210.75ZM359.149 220.812V298.437H367.774C375.441 298.437 382.245 297.383 388.187 295.275C394.32 293.167 399.399 290.387 403.424 286.937C407.449 283.487 410.516 279.558 412.624 275.15C414.733 270.742 415.787 266.237 415.787 261.637C415.787 256.079 414.828 250.904 412.912 246.112C411.187 241.129 408.216 236.817 403.999 233.175C399.974 229.342 394.607 226.371 387.899 224.262C381.191 221.962 372.949 220.812 363.174 220.812H359.149ZM525.836 397.625H527.274C531.874 397.625 534.174 395.517 534.174 391.3C534.174 389.767 533.886 388.137 533.311 386.412L507.436 316.55H457.124L432.111 385.262C431.536 386.796 431.249 388.233 431.249 389.575C431.249 392.067 431.92 394.079 433.261 395.612C434.603 396.954 436.04 397.625 437.574 397.625H439.011V400.5H407.099V397.625H408.536C411.028 397.625 413.424 396.187 415.724 393.312C418.215 390.246 420.228 386.7 421.761 382.675L487.599 207.3L551.999 380.95C553.34 384.783 555.161 388.521 557.461 392.162C559.953 395.804 563.115 397.625 566.949 397.625H568.386V400.5H525.836V397.625ZM459.999 306.775H504.274L482.136 246.687L459.999 306.775ZM625.554 397.625H626.991V400.5H585.591V397.625H587.029C588.562 397.625 589.904 397.146 591.054 396.187C592.204 395.037 593.162 393.696 593.929 392.162C594.887 390.629 595.558 389 595.941 387.275C596.325 385.55 596.516 383.921 596.516 382.387V228.575C596.516 227.233 596.325 225.7 595.941 223.975C595.558 222.25 594.887 220.621 593.929 219.087C593.162 217.554 592.204 216.308 591.054 215.35C589.904 214.2 588.562 213.625 587.029 213.625H585.591V210.75H696.279V241.225H693.404C693.404 234.325 691.871 229.246 688.804 225.987C685.929 222.537 681.329 220.812 675.004 220.812H616.066V382.387C616.066 383.921 616.258 385.55 616.641 387.275C617.025 389 617.6 390.629 618.366 392.162C619.325 393.696 620.379 395.037 621.529 396.187C622.679 397.146 624.021 397.625 625.554 397.625ZM828.044 397.625H829.481C831.015 397.625 832.356 397.146 833.506 396.187C834.656 395.037 835.615 393.696 836.381 392.162C837.34 390.437 838.01 388.712 838.394 386.987C838.777 385.071 838.969 383.346 838.969 381.812V250.137L743.519 379.225V381.812C743.519 383.346 743.71 385.071 744.094 386.987C744.669 388.712 745.34 390.342 746.106 391.875C746.873 393.408 747.831 394.75 748.981 395.9C750.131 397.05 751.473 397.625 753.006 397.625H754.444V400.5H713.619V397.625H715.056C716.59 397.625 717.931 397.146 719.081 396.187C720.231 395.037 721.19 393.696 721.956 392.162C722.915 390.437 723.585 388.712 723.969 386.987C724.352 385.071 724.544 383.346 724.544 381.812V228.575C724.544 227.233 724.352 225.7 723.969 223.975C723.585 222.25 722.915 220.621 721.956 219.087C721.19 217.554 720.231 216.308 719.081 215.35C717.931 214.2 716.59 213.625 715.056 213.625H713.619V210.75H754.444V213.625H752.144C750.802 213.817 749.556 214.487 748.406 215.637C747.448 216.787 746.585 218.129 745.819 219.662C745.052 221.004 744.477 222.537 744.094 224.262C743.71 225.796 743.519 227.233 743.519 228.575V361.4L838.969 232.312V228.575C838.969 227.233 838.777 225.7 838.394 223.975C838.01 222.25 837.34 220.621 836.381 219.087C835.615 217.554 834.656 216.308 833.506 215.35C832.356 214.2 831.015 213.625 829.481 213.625H828.044V210.75H868.869V213.625H867.431C865.898 213.625 864.556 214.2 863.406 215.35C862.256 216.308 861.298 217.554 860.531 219.087C859.765 220.621 859.094 222.25 858.519 223.975C858.135 225.7 857.944 227.233 857.944 228.575V381.812C857.944 383.346 858.135 384.975 858.519 386.7C859.094 388.425 859.765 390.15 860.531 391.875C861.298 393.408 862.256 394.75 863.406 395.9C864.556 397.05 865.898 397.625 867.431 397.625H868.869V400.5H828.044V397.625ZM1050.79 397.625H1052.23C1053.57 397.625 1054.81 397.05 1055.96 395.9C1057.11 394.75 1058.07 393.408 1058.84 391.875C1059.8 390.342 1060.47 388.712 1060.85 386.987C1061.23 385.071 1061.43 383.346 1061.43 381.812V230.587L987.251 403.663L916.814 239.5V381.812C916.814 383.346 917.006 385.071 917.389 386.987C917.772 388.712 918.347 390.342 919.114 391.875C920.072 393.408 921.126 394.75 922.276 395.9C923.426 397.05 924.768 397.625 926.301 397.625H927.739V400.5H896.401V397.625H897.839C899.18 397.625 900.426 397.05 901.576 395.9C902.726 394.75 903.685 393.408 904.451 391.875C905.218 390.342 905.793 388.712 906.176 386.987C906.56 385.071 906.751 383.346 906.751 381.812V228.575C906.751 227.233 906.56 225.7 906.176 223.975C905.793 222.25 905.218 220.621 904.451 219.087C903.685 217.554 902.726 216.308 901.576 215.35C900.426 214.2 899.18 213.625 897.839 213.625H896.401V210.75H925.726L992.426 368.012L1059.13 210.75H1091.61V213.625H1090.18C1088.64 213.625 1087.3 214.2 1086.15 215.35C1085 216.308 1083.95 217.554 1082.99 219.087C1082.22 220.621 1081.65 222.25 1081.26 223.975C1080.88 225.7 1080.69 227.233 1080.69 228.575V381.812C1080.69 383.346 1080.88 385.071 1081.26 386.987C1081.65 388.712 1082.22 390.342 1082.99 391.875C1083.95 393.408 1085 394.75 1086.15 395.9C1087.3 397.05 1088.64 397.625 1090.18 397.625H1091.61V400.5H1050.79V397.625ZM1198.24 207.875C1213.19 207.875 1226.6 210.558 1238.49 215.925C1250.37 221.1 1260.43 228.192 1268.68 237.2C1277.11 246.017 1283.53 256.367 1287.94 268.25C1292.54 279.942 1294.84 292.208 1294.84 305.05C1294.84 319.425 1292.15 332.65 1286.79 344.725C1281.61 356.8 1274.43 367.15 1265.23 375.775C1256.03 384.4 1245.29 391.204 1233.03 396.187C1220.95 400.979 1208.01 403.375 1194.21 403.375C1179.45 403.375 1166.13 400.692 1154.25 395.325C1142.56 389.958 1132.59 382.867 1124.35 374.05C1116.3 365.233 1110.07 355.075 1105.66 343.575C1101.25 332.075 1099.05 320.096 1099.05 307.637C1099.05 295.371 1101.25 283.296 1105.66 271.412C1110.07 259.337 1116.49 248.604 1124.93 239.212C1133.55 229.821 1144 222.25 1156.26 216.5C1168.53 210.75 1182.52 207.875 1198.24 207.875ZM1197.95 393.312C1210.79 392.737 1222 389.862 1231.59 384.687C1241.36 379.321 1249.51 372.612 1256.03 364.562C1262.54 356.321 1267.33 347.312 1270.4 337.537C1273.66 327.762 1275.29 318.083 1275.29 308.5C1275.29 297.958 1273.37 287.321 1269.54 276.587C1265.7 265.854 1260.24 256.175 1253.15 247.55C1246.06 238.733 1237.53 231.642 1227.56 226.275C1217.79 220.717 1206.77 217.937 1194.5 217.937C1182.62 217.937 1171.98 220.621 1162.59 225.987C1153.2 231.162 1145.15 237.871 1138.44 246.112C1131.92 254.354 1126.94 263.554 1123.49 273.712C1120.04 283.871 1118.31 293.837 1118.31 303.612C1118.31 314.154 1120.33 324.792 1124.35 335.525C1128.38 346.067 1133.93 355.65 1141.03 364.275C1148.12 372.9 1156.45 379.896 1166.04 385.262C1175.81 390.629 1186.45 393.312 1197.95 393.312ZM1320.06 397.625H1321.5C1322.84 397.625 1324.09 397.05 1325.24 395.9C1326.39 394.75 1327.35 393.408 1328.11 391.875C1329.07 390.342 1329.74 388.712 1330.13 386.987C1330.51 385.071 1330.7 383.346 1330.7 381.812V228.862C1330.7 227.521 1330.51 225.987 1330.13 224.262C1329.74 222.537 1329.07 220.908 1328.11 219.375C1327.35 217.65 1326.29 216.308 1324.95 215.35C1323.8 214.2 1322.46 213.625 1320.93 213.625H1319.49V210.75H1366.64C1384.46 210.75 1398.36 214.679 1408.33 222.537C1418.48 230.396 1423.56 240.842 1423.56 253.875C1423.56 259.433 1422.61 264.417 1420.69 268.825C1418.77 273.233 1416.28 277.162 1413.21 280.612C1410.34 284.062 1407.18 287.033 1403.73 289.525C1400.28 291.825 1397.02 293.742 1393.95 295.275C1402 296.808 1408.71 299.396 1414.08 303.037C1419.44 306.679 1423.76 310.896 1427.01 315.687C1430.46 320.287 1432.86 325.271 1434.2 330.637C1435.54 336.004 1436.21 341.275 1436.21 346.45C1436.21 356.417 1434.39 364.85 1430.75 371.75C1427.11 378.458 1422.22 384.017 1416.09 388.425C1410.15 392.642 1403.25 395.708 1395.39 397.625C1387.72 399.542 1379.77 400.5 1371.53 400.5H1320.06V397.625ZM1416.66 348.175C1415.13 333.417 1410.15 322.012 1401.71 313.962C1393.28 305.912 1381.4 301.887 1366.06 301.887H1349.96V391.012H1366.64C1382.16 391.012 1394.33 387.562 1403.15 380.662C1412.16 373.571 1416.66 363.796 1416.66 351.337V348.175ZM1404.88 256.462C1404.3 245.346 1400.37 236.529 1393.09 230.012C1386 223.496 1376.41 220.237 1364.34 220.237H1349.96V292.687H1364.91C1372.96 292.687 1379.48 291.633 1384.46 289.525C1389.64 287.417 1393.76 284.733 1396.83 281.475C1399.89 278.025 1402 274.287 1403.15 270.262C1404.3 266.237 1404.88 262.308 1404.88 258.475V256.462Z" fill="#DDE3E8"/>
</g>
<g filter="url(#filter1_d_184_1730)">
<path d="M116.979 183.187H118.385C122.885 183.187 125.135 181.125 125.135 177C125.135 175.5 124.854 173.906 124.291 172.219L98.9785 103.875H49.7598L25.291 171.094C24.7285 172.594 24.4473 174 24.4473 175.312C24.4473 177.75 25.1035 179.719 26.416 181.219C27.7285 182.531 29.1348 183.187 30.6348 183.187H32.041V186H0.822266V183.187H2.22852C4.66602 183.187 7.00977 181.781 9.25977 178.969C11.6973 175.969 13.666 172.5 15.166 168.562L79.5723 -3.00001L142.572 166.875C143.885 170.625 145.666 174.281 147.916 177.844C150.354 181.406 153.447 183.187 157.197 183.187H158.604V186H116.979V183.187ZM52.5723 94.3125H95.8848L74.2285 35.5312L52.5723 94.3125ZM199.341 166.312C197.653 171.187 195.028 175.687 191.466 179.812C187.903 183.937 182.653 186 175.716 186H166.997V183.187C168.122 183.187 169.622 182.906 171.497 182.344C173.372 181.594 175.341 180.469 177.403 178.969C179.466 177.469 181.528 175.594 183.591 173.344C185.653 170.906 187.435 167.906 188.935 164.344L242.091 18.6562C243.028 15.8437 243.497 13.6875 243.497 12.1875C243.497 9.37499 242.653 7.21874 240.966 5.71874C239.466 4.03124 237.872 3.18749 236.185 3.18749V0.374993H259.247L322.247 172.5C323.185 175.125 324.966 177.562 327.591 179.812C330.216 181.875 333.122 183 336.31 183.187V186H296.091V183.187C297.591 183.187 299.091 182.625 300.591 181.5C302.278 180.187 303.122 178.5 303.122 176.437C303.122 175.875 302.935 175.031 302.56 173.906L249.685 28.2187L199.341 166.312ZM357.258 183.187H358.665C360.165 183.187 361.477 182.719 362.602 181.781C363.727 180.656 364.665 179.344 365.415 177.844C366.352 176.344 367.008 174.75 367.383 173.062C367.946 171.375 368.227 169.781 368.227 168.281V17.8125C368.227 16.5 367.946 15 367.383 13.3125C367.008 11.625 366.352 10.0312 365.415 8.53124C364.665 7.03124 363.727 5.81248 362.602 4.87498C361.477 3.74999 360.165 3.18749 358.665 3.18749H357.258V0.374993H465.54V26.5312H462.727C462.352 22.2187 460.665 18.4687 457.665 15.2812C454.665 11.9062 449.977 10.2188 443.602 10.2188H387.071V81.375H433.758C438.071 81.375 441.633 80.0625 444.446 77.4375C447.446 74.8125 448.946 71.7187 448.946 68.1562H451.758V103.313H448.946C448.946 99.9375 447.54 97.0312 444.727 94.5937C441.915 92.1562 438.258 90.9375 433.758 90.9375H387.071V176.156H448.665C452.227 176.156 455.321 175.312 457.946 173.625C460.571 171.937 462.727 169.969 464.415 167.719C466.29 165.281 467.602 162.75 468.352 160.125C469.29 157.312 469.758 154.969 469.758 153.094H472.571V186H357.258V183.187ZM493.763 183.187H495.17C496.67 183.187 497.982 182.625 499.107 181.5C500.232 180.375 501.17 179.062 501.92 177.562C502.857 176.062 503.513 174.469 503.888 172.781C504.263 170.906 504.451 169.219 504.451 167.719V17.8125C504.451 16.5 504.263 15 503.888 13.3125C503.513 11.625 502.857 10.0312 501.92 8.53124C501.17 7.03124 500.232 5.81248 499.107 4.87498C497.982 3.74999 496.763 3.18749 495.451 3.18749H494.045V0.374993H533.982V3.18749H532.576C531.076 3.18749 529.763 3.74999 528.638 4.87498C527.513 5.81248 526.482 7.03124 525.545 8.53124C524.795 10.0312 524.138 11.625 523.576 13.3125C523.201 15 523.013 16.5 523.013 17.8125V76.0312L588.263 11.0625C589.763 9.56249 590.513 7.78124 590.513 5.71874C590.513 4.03124 589.763 3.18749 588.263 3.18749V0.374993H618.638V3.18749C614.888 3.37499 611.513 4.49999 608.513 6.5625C605.701 8.62499 602.607 11.3437 599.232 14.7187L532.576 81.375C544.763 81.75 554.607 84.375 562.107 89.25C569.607 94.125 575.513 100.875 579.826 109.5L602.045 154.5C603.357 157.312 605.045 160.406 607.107 163.781C609.357 166.969 611.795 170.062 614.42 173.062C617.232 175.875 620.326 178.312 623.701 180.375C627.076 182.25 630.638 183.187 634.388 183.187V186H620.326C614.888 186 610.201 185.25 606.263 183.75C602.326 182.062 598.857 179.906 595.857 177.281C593.045 174.469 590.513 171.375 588.263 168C586.201 164.625 584.326 161.25 582.638 157.875L559.857 112.594C556.295 105.656 551.326 100.406 544.951 96.8437C538.763 93.0937 531.451 91.0312 523.013 90.6562V167.719C523.013 169.219 523.201 170.812 523.576 172.5C523.951 174.187 524.513 175.875 525.263 177.562C526.013 179.062 526.951 180.375 528.076 181.5C529.201 182.437 530.42 183 531.732 183.187H533.701V186H493.763V183.187ZM728.994 7.6875C715.119 7.6875 703.025 10.2187 692.713 15.2812C682.588 20.1562 674.15 26.625 667.4 34.6875C660.65 42.5625 655.588 51.4687 652.213 61.4062C649.025 71.3437 647.431 81.1875 647.431 90.9375C647.431 102 649.588 112.875 653.9 123.562C658.213 134.062 664.119 143.437 671.619 151.687C679.306 159.75 688.213 166.312 698.338 171.375C708.463 176.25 719.431 178.687 731.244 178.687C734.619 178.687 738.556 178.312 743.056 177.562C747.744 176.812 752.338 175.406 756.838 173.344C761.338 171.094 765.463 168 769.213 164.062C773.15 160.125 776.15 154.969 778.213 148.594H781.025V179.812C778.213 179.812 775.213 180.187 772.025 180.937C769.025 181.687 765.65 182.531 761.9 183.469C757.025 184.781 751.588 186 745.588 187.125C739.775 188.25 733.588 188.813 727.025 188.813C710.713 188.813 696.369 186 683.994 180.375C671.619 174.75 661.306 167.437 653.056 158.437C644.806 149.437 638.619 139.312 634.494 128.062C630.369 116.625 628.306 105.094 628.306 93.4687C628.306 81.8437 630.369 70.3125 634.494 58.875C638.619 47.4375 644.9 37.2187 653.338 28.2187C661.775 19.0312 672.369 11.625 685.119 5.99999C697.869 0.374993 712.869 -2.4375 730.119 -2.4375C736.306 -2.4375 741.838 -1.87501 746.713 -0.75001C751.775 0.374987 756.275 1.49999 760.213 2.625C763.025 3.5625 765.556 4.31249 767.806 4.87498C770.244 5.24999 772.588 5.43749 774.838 5.43749V36.6562H772.025C770.9 30.8437 768.838 26.0625 765.838 22.3125C762.838 18.375 759.275 15.375 755.15 13.3125C751.213 11.25 746.9 9.84375 742.213 9.09375C737.713 8.15625 733.306 7.6875 728.994 7.6875ZM907.445 183.187H908.851C913.351 183.187 915.601 181.125 915.601 177C915.601 175.5 915.32 173.906 914.757 172.219L889.445 103.875H840.226L815.757 171.094C815.195 172.594 814.914 174 814.914 175.312C814.914 177.75 815.57 179.719 816.882 181.219C818.195 182.531 819.601 183.187 821.101 183.187H822.507V186H791.289V183.187H792.695C795.132 183.187 797.476 181.781 799.726 178.969C802.164 175.969 804.132 172.5 805.632 168.562L870.039 -3.00001L933.039 166.875C934.351 170.625 936.132 174.281 938.382 177.844C940.82 181.406 943.914 183.187 947.664 183.187H949.07V186H907.445V183.187ZM843.039 94.3125H886.351L864.695 35.5312L843.039 94.3125ZM1078.12 183.187H1079.53C1080.84 183.187 1082.06 182.719 1083.18 181.781C1084.31 180.656 1085.24 179.344 1085.99 177.844C1086.93 176.156 1087.59 174.469 1087.96 172.781C1088.34 170.906 1088.53 169.219 1088.53 167.719V91.2187H998.526V167.719C998.526 169.219 998.713 170.906 999.088 172.781C999.463 174.469 1000.03 176.062 1000.78 177.562C1001.53 179.062 1002.37 180.375 1003.31 181.5C1004.43 182.625 1005.74 183.187 1007.24 183.187H1008.65V186H969.276V183.187H970.682C971.995 183.187 973.213 182.719 974.338 181.781C975.463 180.656 976.401 179.344 977.151 177.844C978.088 176.156 978.745 174.469 979.12 172.781C979.495 170.906 979.682 169.219 979.682 167.719V17.8125C979.682 16.5 979.495 15 979.12 13.3125C978.745 11.625 978.182 10.0312 977.432 8.53124C976.682 7.03124 975.745 5.81248 974.62 4.87498C973.495 3.74999 972.182 3.18749 970.682 3.18749H969.276V0.374993H1008.65V3.18749H1007.24C1005.74 3.18749 1004.43 3.74999 1003.31 4.87498C1002.18 5.81248 1001.24 7.03124 1000.49 8.53124C999.932 10.0312 999.463 11.625 999.088 13.3125C998.713 15 998.526 16.5 998.526 17.8125V81.375H1088.53V17.8125C1088.53 16.5 1088.34 15 1087.96 13.3125C1087.59 11.625 1087.03 10.0312 1086.28 8.53124C1085.53 7.03124 1084.59 5.81248 1083.46 4.87498C1082.34 3.74999 1081.03 3.18749 1079.53 3.18749H1078.12V0.374993H1117.49V3.18749H1116.09C1114.59 3.18749 1113.28 3.74999 1112.15 4.87498C1111.03 5.81248 1110.09 7.03124 1109.34 8.53124C1108.78 10.0312 1108.31 11.625 1107.93 13.3125C1107.56 15 1107.37 16.5 1107.37 17.8125V167.719C1107.37 169.219 1107.56 170.906 1107.93 172.781C1108.49 174.469 1109.15 176.062 1109.9 177.562C1110.65 179.062 1111.49 180.375 1112.43 181.5C1113.56 182.625 1114.78 183.187 1116.09 183.187H1117.49V186H1078.12V183.187ZM1313.83 176.156V211.313H1311.01C1310.83 208.875 1310.17 206.156 1309.05 203.156C1307.92 200.156 1306.33 197.344 1304.26 194.719C1302.39 192.281 1300.14 190.219 1297.51 188.531C1294.89 186.844 1291.98 186 1288.8 186H1159.14C1155.95 186 1153.05 186.844 1150.42 188.531C1147.8 190.406 1145.45 192.563 1143.39 195C1141.51 197.625 1139.92 200.438 1138.61 203.438C1137.48 206.438 1136.83 209.063 1136.64 211.313H1133.83V176.156H1146.2C1152.2 176.156 1156.42 172.687 1158.86 165.75L1223.55 -3.84375L1288.8 164.906C1290.11 167.719 1291.89 170.344 1294.14 172.781C1296.39 175.031 1299.01 176.156 1302.01 176.156H1313.83ZM1165.05 176.156H1273.33L1219.05 36.375L1165.05 176.156ZM1336.41 0.374993H1376.35C1397.16 0.374993 1412.91 4.40624 1423.6 12.4687C1434.47 20.3437 1439.91 31.5937 1439.91 46.2187C1439.91 54.0937 1438.03 61.125 1434.28 67.3125C1430.53 73.5 1425.56 78.75 1419.38 83.0625C1413.38 87.1875 1406.53 90.375 1398.85 92.625C1391.35 94.875 1383.85 96 1376.35 96H1365.66V167.719C1365.66 169.219 1365.85 170.906 1366.22 172.781C1366.6 174.469 1367.16 176.062 1367.91 177.562C1368.85 179.062 1369.78 180.375 1370.72 181.5C1371.85 182.625 1373.16 183.187 1374.66 183.187H1376.06V186H1336.41V183.187H1337.81C1339.13 183.187 1340.35 182.625 1341.47 181.5C1342.6 180.375 1343.53 179.062 1344.28 177.562C1345.03 176.062 1345.6 174.469 1345.97 172.781C1346.35 170.906 1346.53 169.219 1346.53 167.719V17.8125C1346.53 15.1875 1345.78 12.1875 1344.28 8.81248C1342.78 5.43749 1340.63 3.5625 1337.81 3.18749H1336.41V0.374993ZM1365.66 10.2188V86.1562H1374.1C1381.6 86.1562 1388.25 85.125 1394.06 83.0625C1400.06 81 1405.03 78.2812 1408.97 74.9062C1412.91 71.5312 1415.91 67.6875 1417.97 63.375C1420.03 59.0625 1421.06 54.6562 1421.06 50.1562C1421.06 44.7187 1420.13 39.6562 1418.25 34.9687C1416.56 30.0937 1413.66 25.875 1409.53 22.3125C1405.6 18.5625 1400.35 15.6562 1393.78 13.5937C1387.22 11.3437 1379.16 10.2188 1369.6 10.2188H1365.66Z" fill="#DDE3E8"/>
</g>
</g>
<defs>
<filter id="filter0_d_184_1730" x="-46.4277" y="157.3" width="1532.64" height="296.363" filterUnits="userSpaceOnUse" color-interpolation-filters="sRGB">
<feFlood flood-opacity="0" result="BackgroundImageFix"/>
<feColorMatrix in="SourceAlpha" type="matrix" values="0 0 0 0 0 0 0 0 0 0 0 0 0 0 0 0 0 0 127 0" result="hardAlpha"/>
<feOffset/>
<feGaussianBlur stdDeviation="25"/>
<feComposite in2="hardAlpha" operator="out"/>
<feColorMatrix type="matrix" values="0 0 0 0 0 0 0 0 0 0 0 0 0 0 0 0 0 0 0.5 0"/>
<feBlend mode="normal" in2="BackgroundImageFix" result="effect1_dropShadow_184_1730"/>
<feBlend mode="normal" in="SourceGraphic" in2="effect1_dropShadow_184_1730" result="shape"/>
</filter>
<filter id="filter1_d_184_1730" x="-49.1777" y="-53.8438" width="1539.09" height="315.156" filterUnits="userSpaceOnUse" color-interpolation-filters="sRGB">
<feFlood flood-opacity="0" result="BackgroundImageFix"/>
<feColorMatrix in="SourceAlpha" type="matrix" values="0 0 0 0 0 0 0 0 0 0 0 0 0 0 0 0 0 0 127 0" result="hardAlpha"/>
<feOffset/>
<feGaussianBlur stdDeviation="25"/>
<feComposite in2="hardAlpha" operator="out"/>
<feColorMatrix type="matrix" values="0 0 0 0 0 0 0 0 0 0 0 0 0 0 0 0 0 0 0.5 0"/>
<feBlend mode="normal" in2="BackgroundImageFix" result="effect1_dropShadow_184_1730"/>
<feBlend mode="normal" in="SourceGraphic" in2="effect1_dropShadow_184_1730" result="shape"/>
</filter>
</defs>
</svg>
