<svg width="1163" height="228" viewBox="0 0 1163 228" fill="none" xmlns="http://www.w3.org/2000/svg">
<g filter="url(#filter0_d_184_1717)">
<path d="M101.075 164.75H102.2C105.8 164.75 107.6 163.1 107.6 159.8C107.6 158.6 107.375 157.325 106.925 155.975L86.675 101.3H47.3L27.725 155.075C27.275 156.275 27.05 157.4 27.05 158.45C27.05 160.4 27.575 161.975 28.625 163.175C29.675 164.225 30.8 164.75 32 164.75H33.125V167H8.15V164.75H9.275C11.225 164.75 13.1 163.625 14.9 161.375C16.85 158.975 18.425 156.2 19.625 153.05L71.15 15.8L121.55 151.7C122.6 154.7 124.025 157.625 125.825 160.475C127.775 163.325 130.25 164.75 133.25 164.75H134.375V167H101.075V164.75ZM49.55 93.65H84.2L66.875 46.625L49.55 93.65ZM166.965 151.25C165.615 155.15 163.515 158.75 160.665 162.05C157.815 165.35 153.615 167 148.065 167H141.09V164.75C141.99 164.75 143.19 164.525 144.69 164.075C146.19 163.475 147.765 162.575 149.415 161.375C151.065 160.175 152.715 158.675 154.365 156.875C156.015 154.925 157.44 152.525 158.64 149.675L201.165 33.125C201.915 30.875 202.29 29.15 202.29 27.95C202.29 25.7 201.615 23.975 200.265 22.775C199.065 21.425 197.79 20.75 196.44 20.75V18.5H214.89L265.29 156.2C266.04 158.3 267.465 160.25 269.565 162.05C271.665 163.7 273.99 164.6 276.54 164.75V167H244.365V164.75C245.565 164.75 246.765 164.3 247.965 163.4C249.315 162.35 249.99 161 249.99 159.35C249.99 158.9 249.84 158.225 249.54 157.325L207.24 40.775L166.965 151.25ZM293.299 164.75H294.424C295.624 164.75 296.674 164.375 297.574 163.625C298.474 162.725 299.224 161.675 299.824 160.475C300.574 159.275 301.099 158 301.399 156.65C301.849 155.3 302.074 154.025 302.074 152.825V32.45C302.074 31.4 301.849 30.2 301.399 28.85C301.099 27.5 300.574 26.225 299.824 25.025C299.224 23.825 298.474 22.85 297.574 22.1C296.674 21.2 295.624 20.75 294.424 20.75H293.299V18.5H379.924V39.425H377.674C377.374 35.975 376.024 32.975 373.624 30.425C371.224 27.725 367.474 26.375 362.374 26.375H317.149V83.3H354.499C357.949 83.3 360.799 82.25 363.049 80.15C365.449 78.05 366.649 75.575 366.649 72.725H368.899V100.85H366.649C366.649 98.15 365.524 95.825 363.274 93.875C361.024 91.925 358.099 90.95 354.499 90.95H317.149V159.125H366.424C369.274 159.125 371.749 158.45 373.849 157.1C375.949 155.75 377.674 154.175 379.024 152.375C380.524 150.425 381.574 148.4 382.174 146.3C382.924 144.05 383.299 142.175 383.299 140.675H385.549V167H293.299V164.75ZM402.503 164.75H403.628C404.828 164.75 405.878 164.3 406.778 163.4C407.678 162.5 408.428 161.45 409.028 160.25C409.778 159.05 410.303 157.775 410.603 156.425C410.903 154.925 411.053 153.575 411.053 152.375V32.45C411.053 31.4 410.903 30.2 410.603 28.85C410.303 27.5 409.778 26.225 409.028 25.025C408.428 23.825 407.678 22.85 406.778 22.1C405.878 21.2 404.903 20.75 403.853 20.75H402.728V18.5H434.678V20.75H433.553C432.353 20.75 431.303 21.2 430.403 22.1C429.503 22.85 428.678 23.825 427.928 25.025C427.328 26.225 426.803 27.5 426.353 28.85C426.053 30.2 425.903 31.4 425.903 32.45V79.025L478.103 27.05C479.303 25.85 479.903 24.425 479.903 22.775C479.903 21.425 479.303 20.75 478.103 20.75V18.5H502.403V20.75C499.403 20.9 496.703 21.8 494.303 23.45C492.053 25.1 489.578 27.275 486.878 29.975L433.553 83.3C443.303 83.6 451.178 85.7 457.178 89.6C463.178 93.5 467.903 98.9 471.353 105.8L489.128 141.8C490.178 144.05 491.528 146.525 493.178 149.225C494.978 151.775 496.928 154.25 499.028 156.65C501.278 158.9 503.753 160.85 506.453 162.5C509.153 164 512.003 164.75 515.003 164.75V167H503.753C499.403 167 495.653 166.4 492.503 165.2C489.353 163.85 486.578 162.125 484.178 160.025C481.928 157.775 479.903 155.3 478.103 152.6C476.453 149.9 474.953 147.2 473.603 144.5L455.378 108.275C452.528 102.725 448.553 98.525 443.453 95.675C438.503 92.675 432.653 91.025 425.903 90.725V152.375C425.903 153.575 426.053 154.85 426.353 156.2C426.653 157.55 427.103 158.9 427.703 160.25C428.303 161.45 429.053 162.5 429.953 163.4C430.853 164.15 431.828 164.6 432.878 164.75H434.453V167H402.503V164.75ZM590.687 24.35C579.587 24.35 569.912 26.375 561.662 30.425C553.562 34.325 546.812 39.5 541.412 45.95C536.012 52.25 531.962 59.375 529.262 67.325C526.712 75.275 525.437 83.15 525.437 90.95C525.437 99.8 527.162 108.5 530.612 117.05C534.062 125.45 538.787 132.95 544.787 139.55C550.937 146 558.062 151.25 566.162 155.3C574.262 159.2 583.037 161.15 592.487 161.15C595.187 161.15 598.337 160.85 601.937 160.25C605.687 159.65 609.362 158.525 612.962 156.875C616.562 155.075 619.862 152.6 622.862 149.45C626.012 146.3 628.412 142.175 630.062 137.075H632.312V162.05C630.062 162.05 627.662 162.35 625.112 162.95C622.712 163.55 620.012 164.225 617.012 164.975C613.112 166.025 608.762 167 603.962 167.9C599.312 168.8 594.362 169.25 589.112 169.25C576.062 169.25 564.587 167 554.687 162.5C544.787 158 536.537 152.15 529.937 144.95C523.337 137.75 518.387 129.65 515.087 120.65C511.787 111.5 510.137 102.275 510.137 92.975C510.137 83.675 511.787 74.45 515.087 65.3C518.387 56.15 523.412 47.975 530.162 40.775C536.912 33.425 545.387 27.5 555.587 23C565.787 18.5 577.787 16.25 591.587 16.25C596.537 16.25 600.962 16.7 604.862 17.6C608.912 18.5 612.512 19.4 615.662 20.3C617.912 21.05 619.937 21.65 621.737 22.1C623.687 22.4 625.562 22.55 627.362 22.55V47.525H625.112C624.212 42.875 622.562 39.05 620.162 36.05C617.762 32.9 614.912 30.5 611.612 28.85C608.462 27.2 605.012 26.075 601.262 25.475C597.662 24.725 594.137 24.35 590.687 24.35ZM733.448 164.75H734.573C738.173 164.75 739.973 163.1 739.973 159.8C739.973 158.6 739.748 157.325 739.298 155.975L719.048 101.3H679.673L660.098 155.075C659.648 156.275 659.423 157.4 659.423 158.45C659.423 160.4 659.948 161.975 660.998 163.175C662.048 164.225 663.173 164.75 664.373 164.75H665.498V167H640.523V164.75H641.648C643.598 164.75 645.473 163.625 647.273 161.375C649.223 158.975 650.798 156.2 651.998 153.05L703.523 15.8L753.923 151.7C754.973 154.7 756.398 157.625 758.198 160.475C760.148 163.325 762.623 164.75 765.623 164.75H766.748V167H733.448V164.75ZM681.923 93.65H716.573L699.248 46.625L681.923 93.65ZM869.988 164.75H871.113C872.163 164.75 873.138 164.375 874.038 163.625C874.938 162.725 875.688 161.675 876.288 160.475C877.038 159.125 877.563 157.775 877.863 156.425C878.163 154.925 878.313 153.575 878.313 152.375V91.175H806.313V152.375C806.313 153.575 806.463 154.925 806.763 156.425C807.063 157.775 807.513 159.05 808.113 160.25C808.713 161.45 809.388 162.5 810.138 163.4C811.038 164.3 812.088 164.75 813.288 164.75H814.413V167H782.913V164.75H784.038C785.088 164.75 786.063 164.375 786.963 163.625C787.863 162.725 788.613 161.675 789.213 160.475C789.963 159.125 790.488 157.775 790.788 156.425C791.088 154.925 791.238 153.575 791.238 152.375V32.45C791.238 31.4 791.088 30.2 790.788 28.85C790.488 27.5 790.038 26.225 789.438 25.025C788.838 23.825 788.088 22.85 787.188 22.1C786.288 21.2 785.238 20.75 784.038 20.75H782.913V18.5H814.413V20.75H813.288C812.088 20.75 811.038 21.2 810.138 22.1C809.238 22.85 808.488 23.825 807.888 25.025C807.438 26.225 807.063 27.5 806.763 28.85C806.463 30.2 806.313 31.4 806.313 32.45V83.3H878.313V32.45C878.313 31.4 878.163 30.2 877.863 28.85C877.563 27.5 877.113 26.225 876.513 25.025C875.913 23.825 875.163 22.85 874.263 22.1C873.363 21.2 872.313 20.75 871.113 20.75H869.988V18.5H901.488V20.75H900.363C899.163 20.75 898.113 21.2 897.213 22.1C896.313 22.85 895.563 23.825 894.963 25.025C894.513 26.225 894.138 27.5 893.838 28.85C893.538 30.2 893.388 31.4 893.388 32.45V152.375C893.388 153.575 893.538 154.925 893.838 156.425C894.288 157.775 894.813 159.05 895.413 160.25C896.013 161.45 896.688 162.5 897.438 163.4C898.338 164.3 899.313 164.75 900.363 164.75H901.488V167H869.988V164.75ZM1058.55 159.125V187.25H1056.3C1056.15 185.3 1055.63 183.125 1054.73 180.725C1053.83 178.325 1052.55 176.075 1050.9 173.975C1049.4 172.025 1047.6 170.375 1045.5 169.025C1043.4 167.675 1041.08 167 1038.53 167H934.804C932.254 167 929.929 167.675 927.829 169.025C925.729 170.525 923.854 172.25 922.204 174.2C920.704 176.3 919.429 178.55 918.379 180.95C917.479 183.35 916.954 185.45 916.804 187.25H914.554V159.125H924.454C929.254 159.125 932.629 156.35 934.579 150.8L986.329 15.125L1038.53 150.125C1039.58 152.375 1041 154.475 1042.8 156.425C1044.6 158.225 1046.7 159.125 1049.1 159.125H1058.55ZM939.529 159.125H1026.15L982.729 47.3L939.529 159.125ZM1076.62 18.5H1108.57C1125.22 18.5 1137.82 21.725 1146.37 28.175C1155.07 34.475 1159.42 43.475 1159.42 55.175C1159.42 61.475 1157.92 67.1 1154.92 72.05C1151.92 77 1147.94 81.2 1142.99 84.65C1138.19 87.95 1132.72 90.5 1126.57 92.3C1120.57 94.1 1114.57 95 1108.57 95H1100.02V152.375C1100.02 153.575 1100.17 154.925 1100.47 156.425C1100.77 157.775 1101.22 159.05 1101.82 160.25C1102.57 161.45 1103.32 162.5 1104.07 163.4C1104.97 164.3 1106.02 164.75 1107.22 164.75H1108.34V167H1076.62V164.75H1077.74C1078.79 164.75 1079.77 164.3 1080.67 163.4C1081.57 162.5 1082.32 161.45 1082.92 160.25C1083.52 159.05 1083.97 157.775 1084.27 156.425C1084.57 154.925 1084.72 153.575 1084.72 152.375V32.45C1084.72 30.35 1084.12 27.95 1082.92 25.25C1081.72 22.55 1079.99 21.05 1077.74 20.75H1076.62V18.5ZM1100.02 26.375V87.125H1106.77C1112.77 87.125 1118.09 86.3 1122.74 84.65C1127.54 83 1131.52 80.825 1134.67 78.125C1137.82 75.425 1140.22 72.35 1141.87 68.9C1143.52 65.45 1144.34 61.925 1144.34 58.325C1144.34 53.975 1143.59 49.925 1142.09 46.175C1140.74 42.275 1138.42 38.9 1135.12 36.05C1131.97 33.05 1127.77 30.725 1122.52 29.075C1117.27 27.275 1110.82 26.375 1103.17 26.375H1100.02Z" fill="#DDE3E8"/>
</g>
<defs>
<filter id="filter0_d_184_1717" x="-31.8496" y="-24.875" width="1231.27" height="252.125" filterUnits="userSpaceOnUse" color-interpolation-filters="sRGB">
<feFlood flood-opacity="0" result="BackgroundImageFix"/>
<feColorMatrix in="SourceAlpha" type="matrix" values="0 0 0 0 0 0 0 0 0 0 0 0 0 0 0 0 0 0 127 0" result="hardAlpha"/>
<feOffset/>
<feGaussianBlur stdDeviation="20"/>
<feComposite in2="hardAlpha" operator="out"/>
<feColorMatrix type="matrix" values="0 0 0 0 0 0 0 0 0 0 0 0 0 0 0 0 0 0 0.5 0"/>
<feBlend mode="normal" in2="BackgroundImageFix" result="effect1_dropShadow_184_1717"/>
<feBlend mode="normal" in="SourceGraphic" in2="effect1_dropShadow_184_1717" result="shape"/>
</filter>
</defs>
</svg>
