<svg width="1163" height="238" viewBox="0 0 1163 238" fill="none" xmlns="http://www.w3.org/2000/svg">
<g filter="url(#filter0_d_184_1718)">
<path d="M101.89 192.7H103.04C104.267 192.7 105.34 192.317 106.26 191.55C107.18 190.63 107.947 189.557 108.56 188.33C109.327 186.95 109.863 185.57 110.17 184.19C110.477 182.657 110.63 181.277 110.63 180.05V74.71L34.27 177.98V180.05C34.27 181.277 34.4233 182.657 34.73 184.19C35.19 185.57 35.7267 186.873 36.34 188.1C36.9533 189.327 37.72 190.4 38.64 191.32C39.56 192.24 40.6333 192.7 41.86 192.7H43.01V195H10.35V192.7H11.5C12.7267 192.7 13.8 192.317 14.72 191.55C15.64 190.63 16.4067 189.557 17.02 188.33C17.7867 186.95 18.3233 185.57 18.63 184.19C18.9367 182.657 19.09 181.277 19.09 180.05V57.46C19.09 56.3867 18.9367 55.16 18.63 53.78C18.3233 52.4 17.7867 51.0967 17.02 49.87C16.4067 48.6433 15.64 47.6467 14.72 46.88C13.8 45.96 12.7267 45.5 11.5 45.5H10.35V43.2H43.01V45.5H41.17C40.0967 45.6533 39.1 46.19 38.18 47.11C37.4133 48.03 36.7233 49.1033 36.11 50.33C35.4967 51.4033 35.0367 52.63 34.73 54.01C34.4233 55.2367 34.27 56.3867 34.27 57.46V163.72L110.63 60.45V57.46C110.63 56.3867 110.477 55.16 110.17 53.78C109.863 52.4 109.327 51.0967 108.56 49.87C107.947 48.6433 107.18 47.6467 106.26 46.88C105.34 45.96 104.267 45.5 103.04 45.5H101.89V43.2H134.55V45.5H133.4C132.173 45.5 131.1 45.96 130.18 46.88C129.26 47.6467 128.493 48.6433 127.88 49.87C127.267 51.0967 126.73 52.4 126.27 53.78C125.963 55.16 125.81 56.3867 125.81 57.46V180.05C125.81 181.277 125.963 182.58 126.27 183.96C126.73 185.34 127.267 186.72 127.88 188.1C128.493 189.327 129.26 190.4 130.18 191.32C131.1 192.24 132.173 192.7 133.4 192.7H134.55V195H101.89V192.7ZM156.346 192.7H157.496C158.723 192.7 159.796 192.317 160.716 191.55C161.636 190.63 162.403 189.557 163.016 188.33C163.783 187.103 164.319 185.8 164.626 184.42C165.086 183.04 165.316 181.737 165.316 180.51V57.46C165.316 56.3867 165.086 55.16 164.626 53.78C164.319 52.4 163.783 51.0967 163.016 49.87C162.403 48.6433 161.636 47.6467 160.716 46.88C159.796 45.96 158.723 45.5 157.496 45.5H156.346V43.2H240.526V65.05H238.226C238.226 61.5233 236.999 58.4567 234.546 55.85C232.093 53.09 228.336 51.71 223.276 51.71H180.726V107.6H191.306C198.359 107.6 205.336 108.29 212.236 109.67C219.289 111.05 225.576 113.427 231.096 116.8C236.769 120.02 241.293 124.467 244.666 130.14C248.193 135.813 249.956 142.943 249.956 151.53C249.956 158.277 248.653 164.333 246.046 169.7C243.593 175.067 240.066 179.667 235.466 183.5C230.866 187.18 225.346 190.017 218.906 192.01C212.619 194.003 205.719 195 198.206 195H156.346V192.7ZM189.696 186.95C197.363 186.95 203.956 186.107 209.476 184.42C215.149 182.733 219.826 180.433 223.506 177.52C227.186 174.453 229.869 170.927 231.556 166.94C233.396 162.8 234.316 158.353 234.316 153.6C234.316 142.407 230.329 133.283 222.356 126.23C214.383 119.023 203.036 115.42 188.316 115.42H180.726V186.95H189.696ZM270.891 43.2H303.551C320.571 43.2 333.451 46.4967 342.191 53.09C351.085 59.53 355.531 68.73 355.531 80.69C355.531 87.13 353.998 92.88 350.931 97.94C347.865 103 343.801 107.293 338.741 110.82C333.835 114.193 328.238 116.8 321.951 118.64C315.818 120.48 309.685 121.4 303.551 121.4H294.811V180.05C294.811 181.277 294.965 182.657 295.271 184.19C295.578 185.57 296.038 186.873 296.651 188.1C297.418 189.327 298.185 190.4 298.951 191.32C299.871 192.24 300.945 192.7 302.171 192.7H303.321V195H270.891V192.7H272.041C273.115 192.7 274.111 192.24 275.031 191.32C275.951 190.4 276.718 189.327 277.331 188.1C277.945 186.873 278.405 185.57 278.711 184.19C279.018 182.657 279.171 181.277 279.171 180.05V57.46C279.171 55.3133 278.558 52.86 277.331 50.1C276.105 47.34 274.341 45.8067 272.041 45.5H270.891V43.2ZM294.811 51.25V113.35H301.711C307.845 113.35 313.288 112.507 318.041 110.82C322.948 109.133 327.011 106.91 330.231 104.15C333.451 101.39 335.905 98.2467 337.591 94.72C339.278 91.1933 340.121 87.59 340.121 83.91C340.121 79.4633 339.355 75.3233 337.821 71.49C336.441 67.5033 334.065 64.0533 330.691 61.14C327.471 58.0733 323.178 55.6967 317.811 54.01C312.445 52.17 305.851 51.25 298.031 51.25H294.811ZM428.161 192.7H429.311C432.991 192.7 434.831 191.013 434.831 187.64C434.831 186.413 434.601 185.11 434.141 183.73L413.441 127.84H373.191L353.181 182.81C352.721 184.037 352.491 185.187 352.491 186.26C352.491 188.253 353.028 189.863 354.101 191.09C355.175 192.163 356.325 192.7 357.551 192.7H358.701V195H333.171V192.7H334.321C336.315 192.7 338.231 191.55 340.071 189.25C342.065 186.797 343.675 183.96 344.901 180.74L397.571 40.44L449.091 179.36C450.165 182.427 451.621 185.417 453.461 188.33C455.455 191.243 457.985 192.7 461.051 192.7H462.201V195H428.161V192.7ZM375.491 120.02H410.911L393.201 71.95L375.491 120.02ZM507.935 192.7H509.085V195H475.965V192.7H477.115C478.342 192.7 479.415 192.317 480.335 191.55C481.255 190.63 482.022 189.557 482.635 188.33C483.402 187.103 483.939 185.8 484.245 184.42C484.552 183.04 484.705 181.737 484.705 180.51V57.46C484.705 56.3867 484.552 55.16 484.245 53.78C483.939 52.4 483.402 51.0967 482.635 49.87C482.022 48.6433 481.255 47.6467 480.335 46.88C479.415 45.96 478.342 45.5 477.115 45.5H475.965V43.2H564.515V67.58H562.215C562.215 62.06 560.989 57.9967 558.535 55.39C556.235 52.63 552.555 51.25 547.495 51.25H500.345V180.51C500.345 181.737 500.499 183.04 500.805 184.42C501.112 185.8 501.572 187.103 502.185 188.33C502.952 189.557 503.795 190.63 504.715 191.55C505.635 192.317 506.709 192.7 507.935 192.7ZM669.927 192.7H671.077C672.304 192.7 673.377 192.317 674.297 191.55C675.217 190.63 675.984 189.557 676.597 188.33C677.364 186.95 677.9 185.57 678.207 184.19C678.514 182.657 678.667 181.277 678.667 180.05V74.71L602.307 177.98V180.05C602.307 181.277 602.46 182.657 602.767 184.19C603.227 185.57 603.764 186.873 604.377 188.1C604.99 189.327 605.757 190.4 606.677 191.32C607.597 192.24 608.67 192.7 609.897 192.7H611.047V195H578.387V192.7H579.537C580.764 192.7 581.837 192.317 582.757 191.55C583.677 190.63 584.444 189.557 585.057 188.33C585.824 186.95 586.36 185.57 586.667 184.19C586.974 182.657 587.127 181.277 587.127 180.05V57.46C587.127 56.3867 586.974 55.16 586.667 53.78C586.36 52.4 585.824 51.0967 585.057 49.87C584.444 48.6433 583.677 47.6467 582.757 46.88C581.837 45.96 580.764 45.5 579.537 45.5H578.387V43.2H611.047V45.5H609.207C608.134 45.6533 607.137 46.19 606.217 47.11C605.45 48.03 604.76 49.1033 604.147 50.33C603.534 51.4033 603.074 52.63 602.767 54.01C602.46 55.2367 602.307 56.3867 602.307 57.46V163.72L678.667 60.45V57.46C678.667 56.3867 678.514 55.16 678.207 53.78C677.9 52.4 677.364 51.0967 676.597 49.87C675.984 48.6433 675.217 47.6467 674.297 46.88C673.377 45.96 672.304 45.5 671.077 45.5H669.927V43.2H702.587V45.5H701.437C700.21 45.5 699.137 45.96 698.217 46.88C697.297 47.6467 696.53 48.6433 695.917 49.87C695.304 51.0967 694.767 52.4 694.307 53.78C694 55.16 693.847 56.3867 693.847 57.46V180.05C693.847 181.277 694 182.58 694.307 183.96C694.767 185.34 695.304 186.72 695.917 188.1C696.53 189.327 697.297 190.4 698.217 191.32C699.137 192.24 700.21 192.7 701.437 192.7H702.587V195H669.927V192.7ZM848.123 192.7H849.273C850.347 192.7 851.343 192.24 852.263 191.32C853.183 190.4 853.95 189.327 854.563 188.1C855.33 186.873 855.867 185.57 856.173 184.19C856.48 182.657 856.633 181.277 856.633 180.05V59.07L797.293 197.53L740.943 66.2V180.05C740.943 181.277 741.097 182.657 741.403 184.19C741.71 185.57 742.17 186.873 742.783 188.1C743.55 189.327 744.393 190.4 745.313 191.32C746.233 192.24 747.307 192.7 748.533 192.7H749.683V195H724.613V192.7H725.763C726.837 192.7 727.833 192.24 728.753 191.32C729.673 190.4 730.44 189.327 731.053 188.1C731.667 186.873 732.127 185.57 732.433 184.19C732.74 182.657 732.893 181.277 732.893 180.05V57.46C732.893 56.3867 732.74 55.16 732.433 53.78C732.127 52.4 731.667 51.0967 731.053 49.87C730.44 48.6433 729.673 47.6467 728.753 46.88C727.833 45.96 726.837 45.5 725.763 45.5H724.613V43.2H748.073L801.433 169.01L854.793 43.2H880.783V45.5H879.633C878.407 45.5 877.333 45.96 876.413 46.88C875.493 47.6467 874.65 48.6433 873.883 49.87C873.27 51.0967 872.81 52.4 872.503 53.78C872.197 55.16 872.043 56.3867 872.043 57.46V180.05C872.043 181.277 872.197 182.657 872.503 184.19C872.81 185.57 873.27 186.873 873.883 188.1C874.65 189.327 875.493 190.4 876.413 191.32C877.333 192.24 878.407 192.7 879.633 192.7H880.783V195H848.123V192.7ZM966.083 40.9C978.043 40.9 988.776 43.0467 998.283 47.34C1007.79 51.48 1015.84 57.1533 1022.43 64.36C1029.18 71.4133 1034.32 79.6933 1037.84 89.2C1041.52 98.5533 1043.36 108.367 1043.36 118.64C1043.36 130.14 1041.22 140.72 1036.92 150.38C1032.78 160.04 1027.03 168.32 1019.67 175.22C1012.31 182.12 1003.73 187.563 993.913 191.55C984.253 195.383 973.903 197.3 962.863 197.3C951.056 197.3 940.399 195.153 930.893 190.86C921.539 186.567 913.566 180.893 906.973 173.84C900.533 166.787 895.549 158.66 892.023 149.46C888.496 140.26 886.733 130.677 886.733 120.71C886.733 110.897 888.496 101.237 892.023 91.73C895.549 82.07 900.686 73.4833 907.433 65.97C914.333 58.4567 922.689 52.4 932.503 47.8C942.316 43.2 953.509 40.9 966.083 40.9ZM965.853 189.25C976.126 188.79 985.096 186.49 992.763 182.35C1000.58 178.057 1007.1 172.69 1012.31 166.25C1017.53 159.657 1021.36 152.45 1023.81 144.63C1026.42 136.81 1027.72 129.067 1027.72 121.4C1027.72 112.967 1026.19 104.457 1023.12 95.87C1020.06 87.2833 1015.69 79.54 1010.01 72.64C1004.34 65.5867 997.516 59.9133 989.543 55.62C981.723 51.1733 972.906 48.95 963.093 48.95C953.586 48.95 945.076 51.0967 937.563 55.39C930.049 59.53 923.609 64.8967 918.243 71.49C913.029 78.0833 909.043 85.4433 906.283 93.57C903.523 101.697 902.143 109.67 902.143 117.49C902.143 125.923 903.753 134.433 906.973 143.02C910.193 151.453 914.639 159.12 920.313 166.02C925.986 172.92 932.656 178.517 940.323 182.81C948.143 187.103 956.653 189.25 965.853 189.25ZM1063.54 192.7H1064.69C1065.77 192.7 1066.76 192.24 1067.68 191.32C1068.6 190.4 1069.37 189.327 1069.98 188.1C1070.75 186.873 1071.29 185.57 1071.59 184.19C1071.9 182.657 1072.05 181.277 1072.05 180.05V57.69C1072.05 56.6167 1071.9 55.39 1071.59 54.01C1071.29 52.63 1070.75 51.3267 1069.98 50.1C1069.37 48.72 1068.53 47.6467 1067.45 46.88C1066.53 45.96 1065.46 45.5 1064.23 45.5H1063.08V43.2H1100.8C1115.06 43.2 1126.18 46.3433 1134.15 52.63C1142.28 58.9167 1146.34 67.2733 1146.34 77.7C1146.34 82.1467 1145.58 86.1333 1144.04 89.66C1142.51 93.1867 1140.52 96.33 1138.06 99.09C1135.76 101.85 1133.23 104.227 1130.47 106.22C1127.71 108.06 1125.11 109.593 1122.65 110.82C1129.09 112.047 1134.46 114.117 1138.75 117.03C1143.05 119.943 1146.5 123.317 1149.1 127.15C1151.86 130.83 1153.78 134.817 1154.85 139.11C1155.93 143.403 1156.46 147.62 1156.46 151.76C1156.46 159.733 1155.01 166.48 1152.09 172C1149.18 177.367 1145.27 181.813 1140.36 185.34C1135.61 188.713 1130.09 191.167 1123.8 192.7C1117.67 194.233 1111.31 195 1104.71 195H1063.54V192.7ZM1140.82 153.14C1139.6 141.333 1135.61 132.21 1128.86 125.77C1122.12 119.33 1112.61 116.11 1100.34 116.11H1087.46V187.41H1100.8C1113.22 187.41 1122.96 184.65 1130.01 179.13C1137.22 173.457 1140.82 165.637 1140.82 155.67V153.14ZM1131.39 79.77C1130.93 70.8767 1127.79 63.8233 1121.96 58.61C1116.29 53.3967 1108.62 50.79 1098.96 50.79H1087.46V108.75H1099.42C1105.86 108.75 1111.08 107.907 1115.06 106.22C1119.2 104.533 1122.5 102.387 1124.95 99.78C1127.41 97.02 1129.09 94.03 1130.01 90.81C1130.93 87.59 1131.39 84.4467 1131.39 81.38V79.77Z" fill="#DDE3E8"/>
</g>
<defs>
<filter id="filter0_d_184_1718" x="-29.6504" y="0.439941" width="1226.11" height="237.09" filterUnits="userSpaceOnUse" color-interpolation-filters="sRGB">
<feFlood flood-opacity="0" result="BackgroundImageFix"/>
<feColorMatrix in="SourceAlpha" type="matrix" values="0 0 0 0 0 0 0 0 0 0 0 0 0 0 0 0 0 0 127 0" result="hardAlpha"/>
<feOffset/>
<feGaussianBlur stdDeviation="20"/>
<feComposite in2="hardAlpha" operator="out"/>
<feColorMatrix type="matrix" values="0 0 0 0 0 0 0 0 0 0 0 0 0 0 0 0 0 0 0.5 0"/>
<feBlend mode="normal" in2="BackgroundImageFix" result="effect1_dropShadow_184_1718"/>
<feBlend mode="normal" in="SourceGraphic" in2="effect1_dropShadow_184_1718" result="shape"/>
</filter>
</defs>
</svg>
