<svg width="439" height="150" viewBox="0 0 439 150" fill="none" xmlns="http://www.w3.org/2000/svg">
<g clip-path="url(#clip0_777_4331)">
<path d="M0 143.752V142.252C262.57 140.252 414.49 141.772 438 142.252V143.752C414.46 143.272 262.56 141.762 0 143.752Z" fill="#A1A7B8"/>
<path d="M152.67 142.829C152.67 140.579 149.53 140.009 147.95 140.009C146.07 139.739 145.2 143.889 145.01 146.009H151.79C153.85 145.999 152.67 145.649 152.67 142.829Z" fill="#F2F7FE"/>
<path d="M151.79 147.001H145C144.86 147.001 144.722 146.971 144.595 146.914C144.467 146.858 144.353 146.775 144.26 146.671C144.166 146.569 144.095 146.449 144.05 146.318C144.005 146.188 143.988 146.049 144 145.911C144.08 145.091 144.55 140.911 146.35 139.511C146.811 139.131 147.404 138.948 148 139.001C150.73 139.001 153.65 140.221 153.65 142.821C153.652 143.471 153.725 144.118 153.87 144.751C153.974 145.024 154.013 145.317 153.981 145.608C153.95 145.898 153.85 146.177 153.69 146.421C153.436 146.653 153.134 146.825 152.805 146.926C152.476 147.026 152.129 147.052 151.79 147.001V147.001ZM146.14 145.001H151.9C151.747 144.288 151.67 143.561 151.67 142.831C151.67 141.351 148.92 141.011 147.95 141.011H147.81C147.771 141.009 147.732 141.015 147.696 141.029C147.66 141.043 147.627 141.064 147.6 141.091C147 141.591 146.41 143.311 146.14 145.001Z" fill="#A1A7B8"/>
<path d="M187.43 134.002C187.43 126.862 179.9 131.502 174.01 131.502C166.93 130.622 166.51 139.002 162.01 145.502H187.43C195.17 145.482 187.43 142.902 187.43 134.002Z" fill="#F2F7FE"/>
<path d="M187.431 146.48H162.001C161.817 146.481 161.637 146.432 161.48 146.339C161.322 146.245 161.194 146.109 161.108 145.947C161.022 145.785 160.983 145.603 160.994 145.42C161.005 145.237 161.066 145.06 161.171 144.91C162.445 142.969 163.537 140.913 164.431 138.77C166.531 134.17 168.501 129.77 174.051 130.48C175.798 130.392 177.533 130.134 179.231 129.71C182.231 129.06 185.101 128.44 186.901 129.89C187.901 130.71 188.421 132.05 188.421 133.98C188.479 136.821 189.323 139.59 190.861 141.98C191.611 143.3 192.201 144.34 191.641 145.31C191.081 146.28 189.731 146.48 187.431 146.48ZM163.831 144.48H187.431C188.232 144.519 189.034 144.459 189.821 144.3C189.619 143.845 189.389 143.404 189.131 142.98C187.411 140.289 186.476 137.173 186.431 133.98C186.491 133.525 186.452 133.063 186.318 132.625C186.183 132.186 185.955 131.782 185.651 131.44C184.601 130.6 182.091 131.14 179.651 131.66C177.802 132.132 175.908 132.407 174.001 132.48H173.871C169.931 131.99 168.481 134.72 166.251 139.6C165.529 141.267 164.721 142.896 163.831 144.48V144.48Z" fill="#A1A7B8"/>
<path d="M170.64 137C170.611 137.009 170.579 137.009 170.55 137C170.519 136.989 170.491 136.972 170.467 136.95C170.443 136.927 170.424 136.9 170.411 136.87C170.398 136.84 170.391 136.808 170.391 136.775C170.39 136.743 170.397 136.71 170.41 136.68C172 132.68 173.41 131.68 173.41 131.68C173.466 131.645 173.534 131.633 173.599 131.646C173.664 131.659 173.721 131.696 173.76 131.75C173.778 131.778 173.792 131.809 173.798 131.841C173.805 131.874 173.805 131.907 173.798 131.94C173.792 131.973 173.779 132.003 173.76 132.031C173.742 132.059 173.718 132.082 173.69 132.1C173.69 132.1 172.35 133.1 170.83 136.88C170.81 136.914 170.782 136.942 170.749 136.963C170.716 136.984 170.679 136.996 170.64 137V137Z" fill="#A1A7B8"/>
<path d="M173.591 136.48H173.531C173.467 136.463 173.413 136.423 173.379 136.367C173.346 136.31 173.335 136.243 173.351 136.18C173.699 134.221 174.797 132.474 176.411 131.31L176.491 131.26C176.525 131.219 176.573 131.191 176.625 131.18C176.678 131.169 176.733 131.176 176.781 131.2C176.811 131.214 176.839 131.234 176.862 131.259C176.884 131.283 176.902 131.313 176.913 131.344C176.924 131.376 176.929 131.41 176.927 131.443C176.925 131.477 176.916 131.51 176.901 131.54C176.847 131.616 176.775 131.678 176.691 131.72C175.19 132.821 174.17 134.457 173.841 136.29C173.825 136.344 173.793 136.393 173.748 136.427C173.702 136.461 173.647 136.48 173.591 136.48Z" fill="#A1A7B8"/>
<path d="M176.229 136.251H176.149C176.088 136.231 176.036 136.187 176.006 136.129C175.976 136.071 175.97 136.004 175.989 135.941C176.592 133.835 177.836 131.968 179.549 130.601L179.649 130.521C179.666 130.494 179.687 130.471 179.713 130.452C179.738 130.434 179.767 130.42 179.798 130.413C179.828 130.406 179.86 130.404 179.891 130.409C179.923 130.414 179.952 130.425 179.979 130.441C180.035 130.483 180.073 130.544 180.086 130.613C180.099 130.681 180.086 130.752 180.049 130.811C179.996 130.881 179.932 130.942 179.859 130.991C178.228 132.295 177.043 134.074 176.469 136.081C176.451 136.131 176.419 136.173 176.376 136.204C176.333 136.234 176.282 136.251 176.229 136.251V136.251Z" fill="#A1A7B8"/>
<path d="M184.609 138.598C184.551 138.598 184.495 138.578 184.45 138.542C184.405 138.505 184.373 138.455 184.359 138.398C184.348 138.334 184.362 138.267 184.4 138.212C184.437 138.158 184.495 138.121 184.559 138.108C186.619 137.668 187.129 137.168 187.509 136.798L187.739 136.588C187.765 136.567 187.795 136.552 187.826 136.542C187.858 136.532 187.891 136.529 187.924 136.532C187.957 136.536 187.989 136.545 188.018 136.561C188.048 136.577 188.073 136.598 188.094 136.623C188.115 136.649 188.131 136.679 188.141 136.71C188.15 136.742 188.154 136.775 188.15 136.808C188.147 136.841 188.137 136.873 188.122 136.902C188.106 136.932 188.085 136.957 188.059 136.978C187.989 137.028 187.929 137.098 187.859 137.158C187.439 137.568 186.859 138.158 184.659 138.588L184.609 138.598Z" fill="#A1A7B8"/>
<path d="M185.66 140.278C185.604 140.275 185.55 140.254 185.507 140.218C185.463 140.182 185.433 140.133 185.42 140.078C185.413 140.045 185.412 140.011 185.418 139.978C185.425 139.945 185.437 139.914 185.456 139.886C185.475 139.858 185.499 139.834 185.527 139.815C185.555 139.797 185.587 139.784 185.62 139.778C186.08 139.685 186.531 139.554 186.97 139.388C187.25 139.278 187.58 139.158 188.03 139.028C188.061 139.018 188.095 139.014 188.128 139.017C188.161 139.019 188.193 139.029 188.222 139.045C188.251 139.061 188.277 139.083 188.297 139.109C188.317 139.136 188.332 139.166 188.34 139.198C188.349 139.23 188.352 139.263 188.348 139.295C188.345 139.328 188.335 139.36 188.319 139.389C188.303 139.417 188.282 139.443 188.256 139.463C188.231 139.484 188.201 139.499 188.17 139.508C187.73 139.638 187.43 139.748 187.17 139.848C186.709 140.038 186.23 140.179 185.74 140.268L185.66 140.278Z" fill="#A1A7B8"/>
<path d="M186.34 141.829C186.282 141.828 186.226 141.808 186.18 141.772C186.135 141.736 186.103 141.685 186.09 141.629C186.078 141.564 186.093 141.497 186.13 141.443C186.168 141.388 186.225 141.351 186.29 141.339C186.822 141.262 187.344 141.131 187.85 140.949C188.02 140.889 188.23 140.809 188.59 140.709C188.621 140.698 188.653 140.694 188.686 140.696C188.719 140.698 188.75 140.707 188.779 140.722C188.808 140.737 188.834 140.758 188.855 140.783C188.875 140.808 188.891 140.837 188.9 140.869C188.919 140.934 188.912 141.004 188.88 141.063C188.848 141.123 188.794 141.168 188.73 141.189C188.39 141.289 188.19 141.359 188.02 141.419C187.493 141.615 186.947 141.752 186.39 141.829H186.34Z" fill="#A1A7B8"/>
<path d="M179.081 142.999C179.009 142.998 178.941 142.969 178.891 142.919C178.453 142.214 178.088 141.467 177.801 140.689C177.788 140.658 177.781 140.625 177.781 140.591C177.781 140.558 177.788 140.525 177.801 140.494C177.814 140.463 177.833 140.435 177.857 140.412C177.881 140.389 177.91 140.371 177.941 140.359C178.003 140.336 178.072 140.339 178.132 140.367C178.192 140.396 178.238 140.446 178.261 140.509C178.523 141.234 178.858 141.931 179.261 142.589C179.305 142.638 179.33 142.702 179.33 142.769C179.33 142.835 179.305 142.899 179.261 142.949C179.207 142.982 179.144 142.999 179.081 142.999V142.999Z" fill="#A1A7B8"/>
<path d="M180.58 142.999C180.544 143 180.509 142.994 180.476 142.98C180.443 142.966 180.414 142.945 180.39 142.919C179.744 141.549 179.225 140.123 178.84 138.659C178.822 138.595 178.829 138.527 178.861 138.468C178.893 138.41 178.946 138.367 179.01 138.349C179.042 138.338 179.075 138.334 179.108 138.337C179.141 138.34 179.173 138.35 179.202 138.365C179.232 138.381 179.257 138.403 179.277 138.43C179.298 138.456 179.312 138.486 179.32 138.519C179.683 139.915 180.168 141.277 180.77 142.589C180.794 142.611 180.813 142.638 180.826 142.668C180.839 142.698 180.846 142.731 180.846 142.764C180.846 142.796 180.839 142.829 180.826 142.859C180.813 142.889 180.794 142.916 180.77 142.939C180.745 142.962 180.715 142.98 180.682 142.99C180.649 143.001 180.614 143.003 180.58 142.999Z" fill="#A1A7B8"/>
<path d="M133 140C133 136.8 127.66 136 125 136C121.8 135.6 120.33 141.5 120 144.5H131.5C135 144.52 133 144 133 140Z" fill="#F2F7FE"/>
<path d="M131.51 145.522H120C119.859 145.523 119.719 145.494 119.59 145.437C119.461 145.38 119.345 145.297 119.25 145.192C119.156 145.087 119.085 144.963 119.042 144.829C118.999 144.694 118.985 144.552 119 144.412C119.07 143.752 119.79 137.932 122.5 135.802C122.852 135.508 123.259 135.288 123.696 135.154C124.134 135.02 124.595 134.975 125.05 135.022C128.4 135.022 134 136.092 134 140.022C134.003 140.965 134.13 141.903 134.38 142.812C134.522 143.131 134.585 143.478 134.564 143.826C134.543 144.174 134.439 144.512 134.26 144.812C133.76 145.472 132.89 145.522 131.51 145.522ZM121.16 143.522H131.51C131.97 143.522 132.28 143.522 132.51 143.522C132.489 143.46 132.472 143.396 132.46 143.332C132.156 142.248 132.001 141.128 132 140.002C132 137.932 127.9 137.002 125 137.002H124.87C124.667 136.98 124.462 137.001 124.267 137.063C124.073 137.125 123.893 137.227 123.74 137.362C122.48 138.372 121.57 141.072 121.16 143.522Z" fill="#A1A7B8"/>
<path d="M124.089 140.251C124.056 140.248 124.024 140.237 123.995 140.221C123.967 140.205 123.941 140.183 123.921 140.157C123.9 140.131 123.885 140.101 123.876 140.069C123.867 140.037 123.865 140.004 123.869 139.971C124.265 138.512 124.922 137.136 125.809 135.911C125.828 135.884 125.852 135.861 125.88 135.843C125.908 135.826 125.939 135.814 125.972 135.808C126.004 135.803 126.038 135.804 126.07 135.811C126.102 135.818 126.132 135.832 126.159 135.851C126.186 135.87 126.209 135.894 126.227 135.922C126.245 135.95 126.257 135.981 126.262 136.014C126.268 136.046 126.267 136.08 126.259 136.112C126.252 136.144 126.238 136.174 126.219 136.201C125.384 137.361 124.754 138.657 124.359 140.031C124.357 140.064 124.348 140.095 124.333 140.124C124.318 140.153 124.297 140.179 124.271 140.199C124.246 140.22 124.217 140.235 124.186 140.244C124.154 140.253 124.122 140.255 124.089 140.251V140.251Z" fill="#A1A7B8"/>
<path d="M126.281 139.521H126.201C126.17 139.512 126.141 139.497 126.116 139.476C126.091 139.455 126.07 139.429 126.056 139.4C126.042 139.37 126.034 139.339 126.033 139.306C126.032 139.273 126.038 139.241 126.051 139.211C126.385 138.319 126.81 137.465 127.321 136.661C127.361 136.609 127.418 136.573 127.483 136.56C127.547 136.547 127.614 136.558 127.671 136.591C127.725 136.629 127.762 136.687 127.775 136.752C127.789 136.817 127.776 136.885 127.741 136.941C127.251 137.707 126.842 138.521 126.521 139.371C126.501 139.417 126.467 139.456 126.424 139.483C126.381 139.51 126.331 139.523 126.281 139.521V139.521Z" fill="#A1A7B8"/>
<path d="M128.421 139.9H128.341C128.278 139.878 128.228 139.831 128.199 139.771C128.171 139.711 128.168 139.643 128.191 139.58C128.638 138.56 129.205 137.596 129.881 136.71C129.92 136.657 129.98 136.622 130.045 136.613C130.111 136.603 130.178 136.621 130.231 136.66C130.284 136.7 130.319 136.759 130.328 136.825C130.338 136.891 130.32 136.957 130.281 137.01C129.637 137.854 129.093 138.771 128.661 139.74C128.641 139.788 128.608 139.828 128.565 139.857C128.522 139.885 128.472 139.9 128.421 139.9V139.9Z" fill="#A1A7B8"/>
<path d="M51.9988 125.85V126.29C51.9582 130.364 52.1853 134.436 52.6788 138.48C52.9488 140.59 53.4288 142.67 53.7688 144.76C53.9388 145.81 53.3988 149.68 54.7688 149.85C56.5588 150.09 55.7688 145.69 55.6088 144.85C55.3988 143.4 55.4888 141.85 55.4188 140.42C55.3288 138.42 54.8388 136.57 54.8488 134.59C54.8488 131.77 54.7988 128.94 54.5388 126.13C54.0188 120.62 55.5388 112.93 57.4488 107.75C59.8488 101.12 63.9088 95.26 67.7188 89.38C74.2788 79.3 84.7188 69.9 86.7188 57.65C88.2065 48.8903 87.2338 39.8896 83.9088 31.65C81.6484 25.8804 79.0058 20.268 75.9988 14.85C73.4788 10.29 70.5888 3.37 66.5788 0C65.7288 2 67.7588 4.92 68.4788 6.78C69.6702 9.50356 71.188 12.0724 72.9988 14.43C74.7824 16.8533 76.3358 19.4378 77.6388 22.15C82.2788 32.15 85.9888 44.31 84.9688 55.43C83.8588 67.21 75.7888 75.71 69.3588 85C66.6788 88.87 63.6988 92.51 61.0988 96.43C58.4988 100.35 56.8888 104.3 54.8988 108.35C52.0988 114 51.9988 119.75 51.9988 125.85Z" fill="#A1A7B8"/>
<path d="M53.1799 127.632C52.8099 125.302 55.3599 124.542 57.0499 123.322C58.7476 122.144 60.1229 120.559 61.0499 118.712C61.8524 117.095 62.5408 115.425 63.1099 113.712C63.4101 112.857 63.5918 111.966 63.6499 111.062C63.8278 109.054 63.4252 107.037 62.4899 105.252C61.117 103.138 59.302 101.347 57.1699 100.002C56.2196 99.2635 55.217 98.5951 54.1699 98.0019C53.2599 97.5419 52.9199 96.7419 52.1099 96.1619C50.8886 95.4167 49.7721 94.5121 48.7899 93.4719C48.0599 92.5819 47.3399 91.7519 46.6899 90.8019C45.0401 88.3608 43.6651 85.7449 42.5899 83.0019C41.3299 79.9419 38.6899 72.6819 41.0799 69.9219C42.5199 73.7819 42.3399 78.1219 43.9299 81.9219C45.7399 86.1719 48.1899 90.4819 51.9299 93.5619C55.6699 96.6419 60.9899 98.6419 63.5999 102.952C66.2099 107.262 65.8499 111.852 64.1699 116.322C63.1716 119.076 61.6466 121.61 59.6799 123.782C58.7085 124.832 57.6178 125.765 56.4299 126.562C55.8299 126.962 55.1399 127.252 54.5499 127.652C54.4399 127.722 53.4799 128.652 53.3599 128.382C53.2772 128.138 53.2169 127.887 53.1799 127.632V127.632Z" fill="#A1A7B8"/>
<path d="M87.0593 50.89C87.9193 46.22 92.2693 43.2 93.9193 38.89C95.2828 35.3503 95.4444 31.4605 94.3793 27.82C92.3793 22.01 89.1793 16.41 90.7293 9.93996C91.2393 7.80996 91.9393 2.27996 94.1393 1.20996C94.7093 2.94996 93.3293 5.20996 92.9793 6.94996C92.4404 8.85986 92.0525 10.8092 91.8193 12.78C91.5993 17.42 93.3693 20.78 95.0793 24.89C96.8353 28.7764 97.3554 33.1083 96.5693 37.3C96.2849 39.4611 95.4783 41.5205 94.2193 43.3C93.0293 44.94 91.7593 46.3 90.7193 48.06C90.0393 49.22 89.4493 50.4 88.7193 51.53C88.2993 52.17 87.5793 54.01 86.8293 54.32C85.7193 54.78 85.7293 52.96 85.8293 52.02C85.9993 50.69 87.0893 50.67 87.0593 50.89Z" fill="#A1A7B8"/>
<path d="M61.5691 149.69C61.0191 149.69 60.7491 150.22 60.3191 149.45C58.9591 147.02 58.9391 143.34 58.9291 140.62C58.9291 135.95 61.2691 131.43 63.0091 127.25C67.0791 117.45 72.8391 107.59 75.7291 97.1604C78.6191 86.7304 74.5091 78.6404 70.1591 69.3504C66.1591 60.7404 60.8491 52.5504 57.9591 43.3504C57.0991 40.6304 51.8091 15.6504 56.1691 16.3504C56.6591 24.7104 57.9291 32.7504 58.9291 40.7504C59.9991 49.3704 65.7391 57.0604 70.0791 64.2504C75.5291 73.2504 79.5991 82.5204 79.0791 93.3104C78.5691 103.05 73.7791 112.06 69.0791 120.31C66.0791 125.63 63.3791 131.01 62.5091 137.01C62.0183 139.506 61.734 142.038 61.6591 144.58C61.6591 146.2 63.0991 147.93 62.5091 149.5C62.2091 150.21 61.9291 149.72 61.5691 149.69Z" fill="#A1A7B8"/>
<path d="M76.9987 113.13C75.3187 113.97 73.8088 114.99 72.0788 115.73C71.2088 116.1 69.1887 116.35 70.2387 114.81C70.9387 113.81 72.6388 113.43 73.6888 112.89C75.1788 112.13 76.6888 111.42 78.1788 110.56C80.7487 109.05 83.8187 108.04 85.9887 105.93C87.0176 104.846 87.8199 103.568 88.3487 102.17C89.5671 99.4918 90.2467 96.6002 90.3487 93.6598C90.3487 90.0198 89.6287 86.4198 89.6287 82.7798C89.6287 77.2198 90.8487 72.8498 94.5287 68.5398C96.0987 66.6998 98.7088 65.3398 100.799 64.1898C102.015 63.46 103.314 62.8791 104.669 62.4598C105.669 62.1898 108.149 62.8298 106.349 63.9998C104.549 65.1698 102.649 65.3498 100.949 66.4398C99.1715 67.6428 97.5552 69.0676 96.1387 70.6798C92.7987 74.3098 92.8887 77.9198 92.8887 82.8298C92.8887 92.3498 94.0988 100.72 86.6588 107.55C83.5388 110.43 80.7787 111.27 76.9987 113.13Z" fill="#A1A7B8"/>
<path d="M69.1184 63.8081C69.1145 64.4561 69.2123 65.1006 69.4084 65.7181C69.7084 66.6281 70.4084 66.7181 70.4784 65.7181C70.7164 63.288 71.1614 60.8826 71.8084 58.5281C73.1384 53.1881 75.8984 48.2781 74.8084 42.5781C74.1784 39.2681 72.1184 36.6681 70.2684 33.9681C69.2684 32.5281 68.4984 30.9681 67.4984 29.5581C67.1484 29.0481 63.9484 25.2381 63.8184 26.8881C63.9334 27.3652 64.1011 27.8281 64.3184 28.2681C64.5074 28.8263 64.7805 29.3524 65.1284 29.8281C65.8284 30.8281 66.7284 31.6881 67.5184 32.6281C69.4389 34.9841 71.0519 37.5749 72.3184 40.3381C73.5145 43.1405 73.7843 46.2517 73.0884 49.2181C72.365 52.068 71.4462 54.8646 70.3384 57.5881C69.9799 58.5679 69.6859 59.57 69.4584 60.5881C69.2252 61.6454 69.1111 62.7255 69.1184 63.8081V63.8081Z" fill="#A1A7B8"/>
<path d="M91.4787 96.4089C91.7687 96.3489 92.2487 95.7189 92.4787 95.5089L93.5687 94.5089C94.3287 93.7989 95.0787 93.0689 95.8087 92.3289C97.3212 90.8139 98.6626 89.1371 99.8087 87.3289C101.449 84.9252 102.16 82.0076 101.809 79.1189C101.736 78.7645 101.6 78.4259 101.409 78.1189C100.949 77.3889 100.949 78.4189 100.949 78.7689C100.912 80.9397 100.421 83.0788 99.5087 85.0489C98.8293 86.8448 97.8597 88.517 96.6387 89.9989C95.5787 91.1589 94.0387 91.8789 92.7987 92.8889C91.3587 94.0489 90.2487 96.6989 91.4787 96.4089Z" fill="#A1A7B8"/>
<path d="M61.8991 134.671C61.9289 134.58 61.9692 134.493 62.0191 134.411C62.6674 133.462 63.4223 132.589 64.2691 131.811C65.7191 130.371 67.9791 129.721 69.9191 129.131C73.6491 128.001 78.0591 127.841 81.5591 126.131C84.0795 124.825 86.2163 122.884 87.7591 120.501C88.8791 118.871 90.0791 115.561 91.8291 114.781C92.3591 114.551 92.4791 116.411 92.4891 116.651C92.4604 117.594 92.1658 118.509 91.6391 119.291C91.1632 120.34 90.5942 121.344 89.9391 122.291C88.6408 123.943 87.1196 125.407 85.4191 126.641C82.0491 129.133 78.2289 130.95 74.1691 131.991C72.4491 132.441 70.8991 133.201 69.2391 133.741C67.7208 134.081 66.2568 134.63 64.8891 135.371C63.7451 136.304 62.4761 137.071 61.1191 137.651C61.2531 136.629 61.5152 135.628 61.8991 134.671V134.671Z" fill="#A1A7B8"/>
<path d="M46.1996 146.26C45.9096 142.26 43.8196 135.99 43.6896 134.74C43.1695 129.985 43.1997 125.187 43.7796 120.44C45.4196 109.71 53.4096 100.59 56.0596 90.2497C57.0596 86.4497 57.7796 81.3297 56.8396 77.4197C55.6196 72.4197 51.5996 67.4197 49.0996 62.9097C46.0996 57.6097 42.8896 52.5797 41.7996 46.5497C40.9796 42.0697 41.2696 37.4497 41.2696 32.8997C41.2696 30.2097 45.6796 9.77969 40.2096 9.67969C40.2796 9.67969 39.9096 36.6797 39.9096 39.5097C39.6998 48.7652 42.4423 57.8472 47.7396 65.4397C53.1996 73.4397 56.4296 80.8697 53.6696 90.4397C50.9796 99.7997 44.8296 107.92 42.0696 117.44C40.4296 123.05 41.2896 129.16 42.1796 134.82C42.5996 137.5 42.9396 140.17 43.1796 142.82C43.2496 143.65 43.4696 149.4 44.4296 149.62C45.9996 150 46.3596 148.46 46.1996 146.26Z" fill="#A1A7B8"/>
<path d="M43.1691 114.002C44.6991 112.212 44.0191 104.602 43.7191 102.182C43.1991 97.9615 39.9191 93.9315 36.9191 91.1015C33.3091 87.7115 28.7991 85.4915 25.5191 81.8115C22.5991 78.4915 21.6391 75.0015 19.7591 71.3015C19.4191 70.6115 17.6491 66.8115 16.5691 67.2315C15.0891 67.8115 16.9391 70.6015 17.3291 71.2315C18.9991 74.0915 20.6591 76.9015 22.1891 79.8415C23.8791 83.1315 24.9991 85.6115 27.9991 87.6515C30.5191 89.4115 33.1291 91.2915 35.5091 93.2815C38.7391 96.0015 41.6191 99.6415 41.8091 104.002C41.9491 107.282 41.5991 113.002 43.5191 115.622C43.7291 114.782 43.7691 113.772 43.1691 114.002Z" fill="#A1A7B8"/>
<path d="M37.6682 61C40.11 62.8221 42.7708 64.3305 45.5882 65.49C46.5282 65.89 50.5882 67.61 49.0082 64.96C48.1582 63.55 46.2382 62.86 44.7882 62.28C43.0338 61.5794 41.4134 60.5814 39.9982 59.33C38.9982 58.44 37.8782 57.64 36.9982 56.66C34.8937 54.3596 33.5039 51.4966 32.9982 48.42C32.6082 45.82 32.2282 43.42 31.5882 40.88C31.0682 38.81 30.3882 36.05 28.4882 34.79C27.5882 37.35 28.3482 40.93 29.1782 43.4C30.2982 46.72 30.9482 50.09 32.2582 53.4C33.3468 56.373 35.2155 58.9981 37.6682 61V61Z" fill="#A1A7B8"/>
<path d="M55.4991 85.7198C55.4991 83.0898 57.6891 80.8898 59.1291 78.8398C60.0145 77.5908 60.5106 76.1079 60.5551 74.5776C60.5996 73.0473 60.1904 71.5381 59.3791 70.2398C56.9046 66.7152 55.5142 62.5442 55.3791 58.2398C55.3011 56.9544 55.3851 55.6643 55.6291 54.3998C55.8519 53.3094 56.2504 52.2624 56.8091 51.2998C57.1991 52.4898 56.6891 53.9598 56.5191 55.1698C56.3889 56.6394 56.3588 58.1161 56.4291 59.5898C56.4733 60.85 56.6749 62.0997 57.0291 63.3098C57.3545 64.4053 57.8652 65.4369 58.5391 66.3598C59.0791 67.1598 59.6791 67.9298 60.1991 68.7498C60.4409 69.1184 60.658 69.5026 60.8491 69.8998C61.0772 70.2522 61.281 70.6197 61.4591 70.9998C61.6491 71.5298 61.7791 71.9998 61.9591 72.5898C62.2111 73.5481 62.299 74.5422 62.2191 75.5298C62.1368 76.3958 61.9383 77.2467 61.6291 78.0598C61.4288 78.7773 61.1678 79.4765 60.8491 80.1498C60.629 80.7116 60.3614 81.2536 60.0491 81.7698C59.656 82.3204 59.3209 82.9102 59.0491 83.5298C58.6691 84.3598 56.9591 89.0798 55.2591 87.9798C53.7691 86.9798 55.4491 84.2098 56.0991 83.3698" fill="#A1A7B8"/>
<path d="M42.6184 52.2498C42.6184 48.9498 42.5184 46.4598 43.8884 43.4698C45.2449 40.3366 46.4201 37.128 47.4084 33.8598C48.3384 30.9998 48.0584 28.0098 48.0584 24.9698C48.0584 23.4898 48.2384 19.9698 46.8584 19.0898C46.1784 23.1498 47.1084 27.1698 46.9684 31.3898C46.8084 36.3898 43.5584 40.6398 41.8884 45.2398C41.1784 47.2398 41.4584 49.8598 41.5484 51.9598C42.4484 52.1298 42.6484 51.1898 42.6184 52.2498Z" fill="#A1A7B8"/>
<path d="M37.1699 124.21C38.2794 124.613 39.2648 125.298 40.0293 126.198C40.7938 127.097 41.3109 128.18 41.5299 129.34C41.7099 129.99 41.9999 131.61 42.6599 130.26C43.3199 128.91 42.0199 126.49 41.1899 125.4C39.9099 123.74 37.9499 123.02 36.0199 122.4C33.0199 121.46 29.7599 120.26 27.8699 117.68C25.9799 115.1 26.2299 111.85 26.3699 108.87C26.3699 108.43 28.1999 100.87 26.1599 101.64C25.8099 102.87 25.8599 104.28 25.6299 105.54C25.4016 106.929 25.268 108.333 25.2299 109.74C25.1099 112.49 24.5499 114.79 26.0199 117.4C28.2799 121.39 33.2699 122.44 37.1699 124.21Z" fill="#A1A7B8"/>
<path d="M303.4 91.1484C303.4 91.1484 302.79 93.8384 302.4 95.9384C301.9 98.3684 301.4 100.118 301.4 100.118C302.917 99.2477 304.163 97.974 305 96.4384C305.736 95.0343 306.291 93.5424 306.65 91.9984L303.4 91.1484Z" fill="#A1A7B8"/>
<path d="M338.171 82.7691C337.421 81.8691 336.3 80.2091 334.46 78.2091C332.754 76.356 330.865 74.6807 328.82 73.2091C324.47 70.0491 318.56 68.4391 311.65 68.7791C311.4 69.3391 311.16 69.8991 310.9 70.4591C309.999 72.3811 309.221 74.3585 308.57 76.3791C307.839 78.6129 307.521 80.9612 307.63 83.3091C307.63 83.7291 307.7 84.1791 307.74 84.6391L307.79 85.0291C307.79 85.2991 307.88 85.5891 307.93 85.8791C307.926 85.9423 307.926 86.0059 307.93 86.0691C307.946 86.2184 307.976 86.3657 308.02 86.5091C308.081 86.883 308.161 87.2535 308.26 87.6191C308.268 87.7393 308.295 87.8576 308.34 87.9691C308.47 88.4591 308.62 88.9691 308.79 89.4291C309.189 90.6002 309.777 91.6981 310.53 92.6791H312.04C313.7 92.6791 315.24 92.6191 316.68 92.5691C316.527 91.3421 316.474 90.1047 316.52 88.8691V88.7491C316.524 88.3648 316.547 87.9809 316.59 87.5991V87.4291C316.614 87.0504 316.657 86.6732 316.72 86.2991V85.9991C316.72 85.6691 316.83 85.3191 316.9 84.9991V84.8691C317.227 83.281 317.713 81.7299 318.35 80.2391L318.421 80.0891C318.541 79.8091 318.67 79.5491 318.8 79.2791C318.93 79.0091 318.93 78.9891 319 78.8491L319.37 78.1691L319.66 77.6491L320.02 77.0491L320.38 76.4891L320.75 75.9391L321.18 75.3491C321.3 75.1891 321.42 75.0191 321.56 74.8591C321.7 74.6991 321.88 74.4491 322.05 74.2591C322.22 74.0691 322.29 73.9591 322.43 73.8191L323.04 73.1491C323.14 73.0291 323.25 72.9191 323.36 72.8091C323.67 72.4991 323.98 72.2091 324.31 71.9091C324.31 72.3191 324.25 72.7091 324.24 73.1091C324.293 76.0436 324.997 78.9297 326.3 81.5591C327.16 83.6414 328.417 85.5366 330 87.1391C331.2 88.4691 332.11 88.0791 331.87 86.9291C331.489 84.9939 331.351 83.0185 331.46 81.0491C331.78 77.1791 333.84 79.7191 335.09 80.9891C336.299 82.3013 337.723 83.3971 339.3 84.2291C338.95 83.7228 338.573 83.2355 338.171 82.7691V82.7691ZM314.59 92.1191H312.94C309.83 82.2791 313.53 72.7791 315.65 69.6591C315.733 69.5383 315.849 69.4432 315.983 69.3848C316.117 69.3265 316.266 69.3072 316.41 69.3291L319.53 69.8091C317.276 73.018 315.679 76.6413 314.831 80.4704C313.983 84.2994 313.901 88.2584 314.59 92.1191V92.1191Z" fill="#A1A7B8"/>
<path d="M283.61 80.4091C283.87 77.0291 281.18 74.7491 278.99 72.6091C276.452 70.3263 274.051 67.8954 271.8 65.3291C270.74 65.0991 270.64 66.3291 271.52 68.7091C272.45 71.2591 275.85 75.3991 277.91 77.7891C278.86 78.8791 279.12 79.8791 278.28 80.7191C277.05 81.9191 274.86 84.1791 271.62 88.0191C270.1 89.7491 269.89 90.6191 270.24 91.0191C272.67 89.4291 275.37 88.0191 277.71 86.7891C281.08 84.9991 283.34 83.7991 283.61 80.4091Z" fill="#A1A7B8"/>
<path d="M330.901 80.9387C330.9 81.2569 330.802 81.5673 330.621 81.8287C330.441 82.0846 330.191 82.2826 329.901 82.3987C329.612 82.5167 329.294 82.5411 328.991 82.4687C328.686 82.406 328.41 82.2484 328.201 82.0187C327.984 81.788 327.838 81.4999 327.781 81.1887C327.731 80.8778 327.77 80.5593 327.891 80.2687C328.02 79.9828 328.228 79.7399 328.491 79.5687C328.799 79.3659 329.168 79.2787 329.535 79.3226C329.901 79.3666 330.239 79.5388 330.491 79.8087C330.63 79.9609 330.738 80.139 330.808 80.3329C330.878 80.5268 330.91 80.7327 330.901 80.9387Z" fill="white"/>
<path d="M330.12 80.9189C330.145 81.0242 330.145 81.1337 330.12 81.2389C330.104 81.3457 330.059 81.446 329.99 81.5289C329.93 81.6163 329.847 81.6855 329.75 81.729C329.654 81.7768 329.547 81.8008 329.44 81.799C329.335 81.7973 329.232 81.7698 329.14 81.7189C329.043 81.6715 328.96 81.599 328.9 81.5089C328.839 81.4199 328.801 81.3166 328.79 81.2089C328.765 81.1037 328.765 80.9942 328.79 80.8889C328.839 80.7526 328.928 80.6346 329.046 80.5506C329.164 80.4666 329.305 80.4206 329.45 80.4189C329.596 80.426 329.736 80.4785 329.85 80.5689C329.978 80.6505 330.074 80.7743 330.12 80.9189Z" fill="#A1A7B8"/>
<path d="M302.06 100.689C301.878 100.687 301.699 100.639 301.54 100.549C301.374 100.448 301.245 100.296 301.171 100.116C301.097 99.9362 301.083 99.7374 301.13 99.5487C301.76 96.8587 302.21 93.5487 302.42 91.9287C300.724 91.4604 299.055 90.8995 297.42 90.2487C295.986 91.7186 294.423 93.0572 292.75 94.2487C291.189 95.1724 289.47 95.7996 287.68 96.0987L286.84 96.2987C286.53 96.3787 285.71 96.5887 285.39 96.0387C285.25 95.8287 285.18 95.4587 285.61 94.9487L285.68 94.8687C286.464 93.8488 287.182 92.78 287.83 91.6687C289.12 89.5787 288.28 86.6687 288.12 86.1287C287.848 86.0382 287.566 85.9779 287.28 85.9487H287.21C285.29 85.9487 280.21 88.1387 276.56 89.7487C275.28 90.3287 274.1 90.8287 273.22 91.1787C272.94 91.2987 270.37 92.2787 269.49 91.3387C268.61 90.3987 269.76 88.8887 270.81 87.6387C274.05 83.8087 276.24 81.5287 277.51 80.2987C277.73 80.0687 278.33 79.4987 277.1 78.0887C274.65 75.2787 271.53 71.3887 270.61 68.8687C269.88 66.8687 269.79 65.7587 270.29 65.1387C270.434 64.9763 270.622 64.8584 270.83 64.7987C271.037 64.7436 271.254 64.7436 271.46 64.7987C272.565 65.1984 273.564 65.8448 274.38 66.6887C277.38 69.4087 285.38 73.3687 286.8 74.0587C288.39 73.5787 289.87 73.0587 291.33 72.6587C294.74 71.5787 297.97 70.5687 302.1 69.6587C302.397 67.8243 302.524 65.9665 302.48 64.1087C302.494 63.9991 302.494 63.8883 302.48 63.7787C302.42 63.2387 302.33 62.3987 302.92 61.9587C303.51 61.5187 304.29 61.6487 305.56 62.2087C308.32 63.4287 311.19 67.2087 311.9 68.2087C318.51 67.9287 324.17 69.4587 328.75 72.7787C330.821 74.2709 332.734 75.9696 334.46 77.8487C335.74 79.2587 336.69 80.4887 337.38 81.3587C337.69 81.7687 337.96 82.1287 338.2 82.3587C338.59 82.8287 338.97 83.3587 339.32 83.8287C339.72 84.2719 339.973 84.8271 340.047 85.4192C340.12 86.0112 340.01 86.6115 339.73 87.1387C339.18 88.0087 338.01 88.7887 335.83 89.7587C332 91.4387 327.22 92.6387 316.35 93.0087C315.35 93.0087 314.22 93.0787 313.07 93.0987C313.032 94.1537 312.909 95.2038 312.7 96.2387C312.39 97.8087 311.7 99.4887 310.7 99.6887C310.54 99.7341 310.371 99.7341 310.21 99.6887C310.055 99.6223 309.922 99.5109 309.83 99.3687C309.48 98.8083 309.192 98.2114 308.97 97.5887C308.85 97.2987 308.73 96.9787 308.56 96.5887C308.39 96.1987 308.33 96.0387 308.19 95.6587C307.543 97.11 306.477 98.3354 305.13 99.1787C304.262 99.9501 303.201 100.472 302.06 100.689V100.689ZM297.2 89.0587L297.52 89.1887C299.337 89.9286 301.197 90.5565 303.09 91.0687L303.52 91.1787V91.6287C303.34 93.0687 302.87 96.7187 302.19 99.6287C303.084 99.4065 303.912 98.9784 304.61 98.3787C305.398 97.9037 306.082 97.2759 306.623 96.5322C307.164 95.7886 307.551 94.9442 307.76 94.0487L308.18 92.5287L308.73 93.9987C309.09 94.9987 309.37 95.7487 309.57 96.2087C309.77 96.6687 309.87 96.9087 309.98 97.2087C310.162 97.707 310.379 98.1916 310.63 98.6587C311.226 97.9204 311.604 97.0302 311.72 96.0887C311.943 94.9691 312.057 93.8304 312.06 92.6887V92.1787H312.6C313.96 92.1787 315.18 92.1787 316.35 92.0887C327.07 91.7187 331.74 90.5487 335.47 88.9087C337.4 88.0587 338.47 87.3587 338.9 86.6887C339.21 86.2087 339.26 85.6887 338.51 84.5087C338.24 84.1187 337.91 83.6787 337.45 83.1087C337.21 82.8221 336.93 82.4621 336.61 82.0287C335.95 81.1387 335 79.9287 333.75 78.5287C332.066 76.7008 330.204 75.0459 328.19 73.5887C323.76 70.4087 318.19 68.9487 311.74 69.2687H311.46L311.3 69.0287C311.3 69.0287 308.08 64.3987 305.23 63.1487C303.88 62.5687 303.62 62.7687 303.6 62.7787C303.58 62.7887 303.53 63.4287 303.6 63.6587C303.622 63.7945 303.622 63.9329 303.6 64.0687C303.659 66.115 303.512 68.162 303.16 70.1787L303.1 70.5087L302.77 70.5887C298.51 71.5887 295.22 72.5887 291.77 73.6687C290.25 74.1487 288.71 74.6687 287.04 75.1387H286.85L286.64 75.0587C285.64 74.5787 277.04 70.3687 273.84 67.4687C273.138 66.7394 272.29 66.1669 271.35 65.7887C271.291 65.7739 271.229 65.7739 271.17 65.7887C271.17 65.7887 270.83 66.2287 271.66 68.4887C272.56 70.9887 275.99 75.1287 277.95 77.3787C279.59 79.2487 278.87 80.4587 278.3 81.0187C277.04 82.2387 274.88 84.4787 271.67 88.2787C270.13 90.1087 270.31 90.5987 270.31 90.5987C270.52 90.8287 271.88 90.5987 272.95 90.1987C273.82 89.8487 274.95 89.3587 276.27 88.7787C280.27 87.0487 285.17 84.8887 287.34 84.8987H287.44C288.614 85.1116 289.748 85.5063 290.8 86.0687L290.43 87.0687L289.43 86.7087C289.916 88.5619 289.695 90.5294 288.81 92.2287C288.201 93.2949 287.534 94.3265 286.81 95.3187L287.6 95.1387C289.261 94.8569 290.859 94.2849 292.32 93.4487C294.009 92.2213 295.576 90.835 297 89.3087L297.2 89.0587Z" fill="#A1A7B8"/>
<path d="M321.431 85.9388C319.361 85.7488 316.691 85.5188 315.161 85.4788C312.511 85.4188 311.841 86.5588 312.871 87.7688C313.901 88.9788 315.691 89.5088 318.271 88.7688C319.443 88.423 320.587 87.985 321.691 87.4588C321.476 86.9825 321.387 86.4594 321.431 85.9388V85.9388Z" fill="#A1A7B8"/>
<path d="M307.141 69.4573C306.403 69.4356 305.665 69.4993 304.941 69.6473C297.681 71.1273 293.231 72.8273 287.211 74.6473C287.131 74.5997 287.054 74.5462 286.981 74.4873C286.761 75.0719 286.653 75.6926 286.661 76.3173C286.491 78.6173 288.071 80.5473 287.921 82.8873C287.814 83.7716 287.858 84.6677 288.051 85.5373C288.857 85.6559 289.637 85.9059 290.361 86.2773L288.921 86.5273C288.921 86.5273 289.821 89.7473 288.711 91.9673C288.011 93.2273 288.151 92.4273 287.211 93.5173C288.889 92.9301 290.462 92.0794 291.871 90.9973C293.141 88.3073 292.491 85.2573 292.041 82.7873C290.961 76.7873 291.761 74.7873 293.451 73.3773C293.759 73.1054 294.12 72.9011 294.511 72.7773C295.546 72.4218 296.601 72.128 297.671 71.8973C295.671 73.3973 292.061 75.3573 293.971 82.2473C294.611 84.5234 294.758 86.9099 294.401 89.2473C294.974 88.884 295.51 88.4654 296.001 87.9973C296.626 87.4186 297.103 86.6984 297.391 85.8973C297.491 85.6973 297.581 85.4773 297.671 85.2673V85.1873C297.763 84.9659 297.84 84.7387 297.901 84.5073C298.711 81.5773 296.601 77.7573 299.111 75.4373C300.921 73.7873 303.691 73.6973 305.791 72.5573C306.788 72.0059 307.668 71.2654 308.381 70.3773C309.001 69.6973 308.051 69.4973 307.141 69.4573Z" fill="#A1A7B8"/>
</g>
<defs>
<clipPath id="clip0_777_4331">
<rect width="438.02" height="149.87" fill="white"/>
</clipPath>
</defs>
</svg>
