<svg xmlns="http://www.w3.org/2000/svg" viewBox="0 0 137.04 98.87"><defs><style>.cls-1{fill:none;stroke:#2d4086;stroke-miterlimit:10;stroke-width:3px;fill-rule:evenodd;}</style></defs><g id="Layer_2" data-name="Layer 2"><g id="Layer_1-2" data-name="Layer 1"><path class="cls-1" d="M104.48,49.9c9.32,3,19.33,8,30.09,15.54,0,0-23.35,19.38-53.51,19.38-13.65,0-23.86-.4-46.85-8.1,0,0-11.56,4.36-32.71,19.26V71L11,65.43,1.5,59.72V35.07C24,50.11,34.19,54.15,34.19,54.15a97.21,97.21,0,0,1,15.23-4.8L43.26,24.91l13.85,7.22,2.7-13.22L69.26,27,77.37,4.42,85.56,27l9.81-7.73L98,32.13l13.62-7.22Z"/></g></g></svg>