<svg width="59" height="41" viewBox="0 0 59 41" fill="none" xmlns="http://www.w3.org/2000/svg">
<path d="M3.71264 26.6916C2.68347 26.102 1.66662 25.494 0.648741 24.887C0.648741 21.0558 0.648741 17.2257 0.648741 13.3945C5.29851 16.2571 9.97191 19.32 15.0069 21.4862C16.7992 20.8617 18.6264 20.3163 20.4793 19.8623C19.5447 16.3629 18.611 12.8645 17.6763 9.36512L23.9294 12.4311L25.0244 7.06129L29.2581 10.3378L32.9568 0.558594L36.6637 10.3399L40.8995 7.06129L41.9944 12.4311L48.2475 9.36512L45.3654 20.1581C50.0019 21.7275 54.1453 24.0981 58.3041 26.7204C54.0066 29.3149 49.9936 31.6947 45.3151 33.296C41.6031 34.5665 37.6425 35.1962 32.2286 35.0832C26.3596 34.961 20.5276 33.7849 15.0233 31.8714C9.9791 34.0509 5.29954 37.1261 0.642578 40V28.4993C1.66148 27.8903 2.68141 27.2832 3.71264 26.6916Z" stroke="#2D4086" stroke-miterlimit="10" stroke-linecap="round" stroke-linejoin="round"/>
<path d="M4.99023 22.6064C7.6515 24.1933 10.3539 25.5492 13.0593 26.679C10.3641 27.8098 7.66383 29.1718 4.99023 30.7721L5 34C8.28576 31.9725 11.6059 30.2983 14.9173 29C17.5 29.5 21.8786 30.3406 26 31C34.7696 32.403 42.3024 31.0227 50.0099 26.7201C42.1751 22.5448 34.8445 20.0846 26 21.5C22.802 21.9806 18.0827 23.5 15 24.5C11.5827 23 8.26624 21.009 5 19L4.99023 22.6064Z" stroke="#2D4086" stroke-miterlimit="10" stroke-linecap="round" stroke-linejoin="round"/>
</svg>
