<svg width="209" height="143" viewBox="0 0 209 143" fill="none" xmlns="http://www.w3.org/2000/svg">
<path d="M11.6551 94.2993C7.96337 92.1845 4.31586 90.0033 0.664683 87.8259C0.664683 74.0833 0.664683 60.3444 0.664683 46.6018C17.3437 56.8701 34.1074 67.8568 52.1681 75.627C58.5973 73.387 65.1517 71.4306 71.7983 69.8021C68.4455 57.2495 65.0964 44.7007 61.7437 32.1481L84.174 43.1459L88.1015 23.8842L103.288 35.6372L116.556 0.558594L129.852 35.6446L145.047 23.8842L148.974 43.1459L171.404 32.1481L161.066 70.8632C177.697 76.4929 192.56 84.9963 207.478 94.4024C192.063 103.709 177.668 112.246 160.886 117.99C147.57 122.547 133.364 124.806 113.943 124.4C92.8911 123.962 71.9714 119.743 52.227 112.879C34.1332 120.698 17.3474 131.728 0.642578 142.037V100.784C4.29744 98.5989 7.956 96.4215 11.6551 94.2993Z" stroke="#2D4086" stroke-width="1.1053" stroke-miterlimit="10" stroke-linecap="round" stroke-linejoin="round"/>
<path d="M16.2388 79.6446C25.7849 85.3369 35.4784 90.2002 45.1829 94.253C35.5152 98.3095 25.8291 103.195 16.2388 108.935V114.782C28.025 107.509 39.9696 101.566 51.8479 96.9094C65.071 101.927 78.2573 105.439 91.0567 107.487C122.514 112.52 150.08 109.834 177.727 94.4004C149.623 79.4235 122.245 76.0487 90.5188 81.1257C77.8999 83.1447 64.9126 86.6154 51.8442 91.5929C39.9107 86.9359 27.955 81.0152 16.2388 73.8086V79.6446Z" stroke="#2D4086" stroke-width="1.1053" stroke-miterlimit="10" stroke-linecap="round" stroke-linejoin="round"/>
</svg>
