<svg width="206" height="147" viewBox="0 0 206 147" fill="none" xmlns="http://www.w3.org/2000/svg">
<path d="M159.747 75.7218L158.302 75.3333C115.491 62.8989 75.0948 74.2174 74.699 74.3369L73.2149 74.7255L62.6582 32.5903L84.86 44.2375L88.8769 23.9122L103.718 36.1074L116.748 0L129.828 36.2269L144.965 23.962L149.061 44.2176L170.768 32.5305L159.747 75.7218ZM115.442 66.4957C129.686 66.4232 143.875 68.2764 157.629 72.0055L166.217 38.369L146.944 48.741L142.986 29.3621L128.442 41.1787L116.748 8.75783L105.083 41.109L90.826 29.392L86.9971 48.731L67.15 38.3192L75.3421 71.0789C88.4896 68.0085 101.946 66.4805 115.442 66.5256V66.4957Z" fill="#2D4086"/>
<path d="M150.218 70.9497L147.329 70.2522L150.1 58.7146L138.781 64.5532L135.922 48.8608L123.357 58.9438L116.718 39.9934L110.158 59.153L97.3556 48.8309L94.4072 64.4137L83.2865 58.7445L86.2646 70.1028L83.3954 70.86L78.7354 53.0653L92.2306 59.9501L95.357 43.3909L108.724 54.1713L116.678 30.9067L124.762 53.982L137.94 43.4108L140.987 60.0597L154.503 53.0853L150.218 70.9497Z" fill="#2D4086"/>
<path d="M0 147V105.154L13.0302 97.4123L0 89.5212V48.1831L2.30527 49.7374C32.531 70.0528 48.1435 77.2364 51.1413 78.5316C72.1587 70.627 94.3918 66.5025 116.827 66.3464C148.873 66.3464 174.211 74.9946 204.407 96.2366L206 97.3525L204.496 98.6079C204.14 98.9068 168.107 128.578 122.298 128.578C100.818 128.578 85.2752 127.751 51.1908 116.293C48.1732 117.548 31.0073 125.041 2.33495 145.376L0 147ZM2.96816 106.848V141.251C33.3819 119.949 49.9145 113.583 50.6269 113.274L51.1216 113.085L51.6162 113.254C85.6313 124.732 101.006 125.539 122.298 125.539C161.705 125.539 193.751 103.022 201.043 97.482C172.163 77.4954 147.616 69.3155 116.827 69.3155C94.5701 69.4463 72.516 73.5831 51.7053 81.5306L51.1413 81.7697L50.5774 81.5406C49.9541 81.2915 35.3013 75.3234 2.96816 53.8025V87.8275L18.7983 97.4123L2.96816 106.848Z" fill="#2D4086"/>
<path d="M10.8838 126.973V110.663L34.4312 97.3622L10.8838 83.1743V68.5879L13.1198 69.913C34.7379 82.7558 48.2727 88.7438 51.0825 89.9395C55.5743 88.1361 85.4439 76.718 116.303 76.718C142.907 76.718 165.772 83.3038 184.224 96.2861L185.946 97.5017L184.234 98.6375C183.967 98.8368 156.472 118.315 120.003 118.315C93.2897 118.315 73.7098 112.487 50.9935 104.835C37.6798 110.245 25.0013 117.122 13.1891 125.339L10.8838 126.973ZM13.8519 112.417V121.384C34.0354 107.903 50.3108 101.985 50.4592 101.925L50.944 101.756L51.4288 101.915C74.0956 109.557 93.5272 115.406 119.993 115.406C150.259 115.406 174.132 101.676 180.702 97.4718C163.071 85.6851 141.413 79.707 116.303 79.707C83.5839 79.707 51.9928 92.8488 51.6366 92.9883L51.0726 93.2174L50.5087 92.9883C50.3702 92.9883 36.964 87.4486 13.8421 73.8585V81.5304L40.3576 97.4718L13.8519 112.417Z" fill="#2D4086"/>
<path d="M117.113 107.455C99.9091 107.425 82.8311 104.499 66.5853 98.7972L62.8652 97.3226L66.6348 95.9975C122.367 76.3795 162.081 95.8879 162.477 96.0871L165.356 97.5418L162.388 98.7972C147.062 105.293 131.301 107.455 117.113 107.455ZM71.7499 97.4222C83.9985 101.328 121.783 111.152 157.916 97.4222C147.853 93.4668 115.164 83.4436 71.7499 97.4222Z" fill="#2D4086"/>
</svg>
