<svg width="2100" height="31" viewBox="0 0 2100 31" fill="none" xmlns="http://www.w3.org/2000/svg">
<path d="M1003.63 0.000211326C1065.58 0.000216741 1141.56 13.6019 1171.81 20.4028V30.9228L0 30.9227V15C34.3009 7.09401 115.481 0.212697 124.5 0.000171295C235.229 0.000180976 265.939 20.4027 377.5 20.4027C489.061 20.4028 533.31 -5.56794e-06 597 0C660.69 5.56794e-06 714.422 20.4026 808.5 20.4026C902.578 20.4026 926.207 0.000204558 1003.63 0.000211326Z" fill="#F2F7FE"/>
<path d="M1802.5 4.15958e-05C1864.44 4.70108e-05 2015 30.4805 2100 15V30.9226H927.999V10.5201C962.3 2.61407 988.913 0.212526 997.933 0C1108.66 9.6802e-06 1103.44 15.5 1215 15.5C1326.56 15.5 1353.81 -5.56794e-06 1417.5 0C1481.19 5.56794e-06 1515.92 20.4028 1610 20.4028C1704.08 20.4028 1725.07 3.48269e-05 1802.5 4.15958e-05Z" fill="#F2F7FE"/>
</svg>
