<svg width="2100" height="31" viewBox="0 0 2100 31" fill="none" xmlns="http://www.w3.org/2000/svg">
<path d="M1003.63 0.000211326C1065.58 0.000216741 1141.56 13.6019 1171.81 20.4028V30.9228L0 30.9227L1.78365e-06 10.5202C34.3009 2.6142 60.9147 0.212655 69.9338 0.0001297C180.662 0.00013938 194.399 20.4027 305.961 20.4027C417.522 20.4027 482.044 0.000165728 545.734 0.000171295C609.424 0.000176863 680.19 20.4027 774.268 20.4027C868.345 20.4028 926.207 0.000204558 1003.63 0.000211326Z" fill="#F2F7FE"/>
<path d="M1931.63 8.16267e-05C1993.57 8.70418e-05 2015 26 2100 10.5195V30.9226H927.999V10.5201C962.3 2.61407 988.913 0.212526 997.933 0C1108.66 9.6802e-06 1122.4 20.4026 1233.96 20.4026C1345.52 20.4026 1410.04 3.60278e-05 1473.73 4.15958e-05C1537.42 4.71637e-05 1608.19 20.4026 1702.27 20.4026C1796.34 20.4026 1854.21 7.48578e-05 1931.63 8.16267e-05Z" fill="#F2F7FE"/>
</svg>
